<?xml version="1.0" standalone="no"?>
<!DOCTYPE svg PUBLIC "-//W3C//DTD SVG 1.1//EN" "http://www.w3.org/Graphics/SVG/1.1/DTD/svg11.dtd" >
<svg>
<metadata>
Created by FontForge 20090622 at Mon Dec 17 16:49:10 2012
 By ffonts
Created by Rebecca Bettencourt with FontForge 2.0 (http://fontforge.sf.net)
</metadata>
<defs>
<font id="PetMe64" horiz-adv-x="800" >
  <font-face 
    font-family="Pet Me 64"
    font-weight="500"
    font-stretch="normal"
    units-per-em="800"
    panose-1="0 0 0 0 0 0 0 0 0 0"
    ascent="700"
    descent="-100"
    x-height="500"
    cap-height="700"
    bbox="0 -100 800 700"
    underline-thickness="100"
    underline-position="-50"
    unicode-range="U+0020-U+FB02"
  />
<missing-glyph horiz-adv-x="0" 
 />
    <glyph glyph-name=".notdef" horiz-adv-x="0" 
 />
    <glyph glyph-name=".null" horiz-adv-x="0" 
 />
    <glyph glyph-name="nonmarkingreturn" horiz-adv-x="0" 
 />
    <glyph glyph-name="space" unicode=" " 
 />
    <glyph glyph-name="exclam" unicode="!" 
d="M500 100v-100h-200v100h200zM500 300h-200v400h200v-400z" />
    <glyph glyph-name="quotedbl" unicode="&#x22;" 
d="M500 700h200v-300h-200v300zM100 400v300h200v-300h-200z" />
    <glyph glyph-name="numbersign" unicode="#" 
d="M700 400v-100h100v-100h-100v-200h-200v200h-200v-200h-200v200h-100v100h100v100h-100v100h100v200h200v-200h200v200h200v-200h100v-100h-100zM300 300h200v100h-200v-100z" />
    <glyph glyph-name="dollar" unicode="$" 
d="M500 100v-100h-200v100h-200v100h400v100h-300v100h-100v100h100v100h100v100h200v-100h200v-100h-400v-100h300v-100h100v-100h-100v-100h-100z" />
    <glyph glyph-name="percent" unicode="%" 
d="M600 500v-100h-100v-100h-100v-100h-100v-100h-100v-100h-100v200h100v100h100v100h100v100h100v100h100v100h100v-200h-100zM700 200v-200h-200v200h200zM300 500h-200v200h200v-200z" />
    <glyph glyph-name="ampersand" unicode="&#x26;" 
d="M500 100v200h300v-100h-100v-100h100v-100h-600v100h-100v200h100v200h-100v100h100v100h400v-100h100v-100h-100v-100h-100v-100h-200v-200h200zM300 500h200v100h-200v-100z" />
    <glyph glyph-name="quotesingle" unicode="'" 
d="M500 700h200v-100h-100v-100h-100v-100h-200v100h100v100h100v100z" />
    <glyph glyph-name="parenleft" unicode="(" 
d="M500 100h100v-100h-200v100h-100v100h-100v300h100v100h100v100h200v-100h-100v-100h-100v-300h100v-100z" />
    <glyph glyph-name="parenright" unicode=")" 
d="M500 100h-100v-100h-200v100h100v100h100v300h-100v100h-100v100h200v-100h100v-100h100v-300h-100v-100z" />
    <glyph glyph-name="asterisk" unicode="*" 
d="M500 100v100h-200v-100h-200v100h100v100h-200v100h200v100h-100v100h200v-100h200v100h200v-100h-100v-100h200v-100h-200v-100h100v-100h-200z" />
    <glyph glyph-name="plus" unicode="+" 
d="M500 100h-200v200h-200v100h200v200h200v-200h200v-100h-200v-200z" />
    <glyph glyph-name="comma" unicode="," 
d="M200 -100v100h100v200h200v-200h-100v-100h-200z" />
    <glyph glyph-name="hyphen" unicode="-" 
d="M700 400v-100h-600v100h600z" />
    <glyph glyph-name="period" unicode="." 
d="M500 0h-200v200h200v-200z" />
    <glyph glyph-name="slash" unicode="/" 
d="M700 400h-100v-100h-100v-100h-100v-100h-100v-100h-200v100h100v100h100v100h100v100h100v100h100v100h200v-100h-100v-100z" />
    <glyph glyph-name="zero" unicode="0" 
d="M500 100v300h-100v100h100v100h-200v-200h100v-100h-100v-200h200zM700 600v-500h-100v-100h-400v100h-100v500h100v100h400v-100h100z" />
    <glyph glyph-name="one" unicode="1" 
d="M500 100h200v-100h-600v100h200v300h-100v100h100v200h200v-600z" />
    <glyph glyph-name="two" unicode="2" 
d="M600 300h-200v100h100v200h-200v-100h-200v100h100v100h400v-100h100v-200h-100v-100zM700 0h-600v200h100v100h200v-100h-100v-100h400v-100z" />
    <glyph glyph-name="three" unicode="3" 
d="M500 100v200h-200v100h200v200h-200v-100h-200v100h100v100h400v-100h100v-200h-100v-100h100v-200h-100v-100h-400v100h-100v100h200v-100h200z" />
    <glyph glyph-name="four" unicode="4" 
d="M500 700h200v-400h100v-100h-100v-200h-200v200h-400v200h200v-100h200v100h-200v100h100v100h100v100z" />
    <glyph glyph-name="five" unicode="5" 
d="M500 100v300h-400v300h600v-100h-400v-100h300v-100h100v-300h-100v-100h-400v100h-100v100h200v-100h200z" />
    <glyph glyph-name="six" unicode="6" 
d="M500 100v200h-200v-200h200zM600 300h100v-200h-100v-100h-400v100h-100v500h100v100h400v-100h100v-100h-200v100h-200v-200h300v-100z" />
    <glyph glyph-name="seven" unicode="7" 
d="M600 500v-100h-100v-400h-200v400h100v100h100v100h-200v-100h-200v200h600v-200h-100z" />
    <glyph glyph-name="eight" unicode="8" 
d="M500 100v200h-200v-200h200zM700 400h-100v-100h100v-200h-100v-100h-400v100h-100v200h100v100h-100v200h100v100h400v-100h100v-200zM300 600v-200h200v200h-200z" />
    <glyph glyph-name="nine" unicode="9" 
d="M500 100v200h-300v100h-100v200h100v100h400v-100h100v-500h-100v-100h-400v100h-100v100h200v-100h200zM300 600v-200h200v200h-200z" />
    <glyph glyph-name="colon" unicode=":" 
d="M500 100h-200v100h200v-100zM500 500v-100h-200v100h200z" />
    <glyph glyph-name="semicolon" unicode=";" 
d="M500 500v-100h-200v100h200zM200 0h100v200h200v-200h-100v-100h-200v100z" />
    <glyph glyph-name="less" unicode="&#x3c;" 
d="M500 100h200v-100h-300v100h-100v100h-100v100h-100v100h100v100h100v100h100v100h300v-100h-200v-100h-100v-100h-100v-100h100v-100h100v-100z" />
    <glyph glyph-name="equal" unicode="=" 
d="M700 400h-600v100h600v-100zM700 200h-600v100h600v-100z" />
    <glyph glyph-name="greater" unicode="&#x3e;" 
d="M500 100h-100v-100h-300v100h200v100h100v100h100v100h-100v100h-100v100h-200v100h300v-100h100v-100h100v-100h100v-100h-100v-100h-100v-100z" />
    <glyph glyph-name="question" unicode="?" 
d="M500 100v-100h-200v100h200zM700 400h-100v-100h-100v-100h-200v100h100v100h100v200h-200v-100h-200v100h100v100h400v-100h100v-200z" />
    <glyph glyph-name="at" unicode="@" 
d="M700 600v-300h-300v200h100v100h-200v-500h300v-100h-400v100h-100v500h100v100h400v-100h100zM700 200v-100h-100v100h100z" />
    <glyph glyph-name="A" unicode="A" 
d="M500 700v-100h100v-100h100v-500h-200v300h-200v-300h-200v500h100v100h100v100h200zM300 500v-100h200v100h-200z" />
    <glyph glyph-name="B" unicode="B" 
d="M500 100v200h-200v-200h200zM700 400h-100v-100h100v-200h-100v-100h-500v700h500v-100h100v-200zM300 600v-200h200v200h-200z" />
    <glyph glyph-name="C" unicode="C" 
d="M500 100v100h200v-100h-100v-100h-400v100h-100v500h100v100h400v-100h100v-100h-200v100h-200v-500h200z" />
    <glyph glyph-name="D" unicode="D" 
d="M500 100v-100h-400v700h400v-100h100v-100h100v-300h-100v-100h-100zM400 100v100h100v300h-100v100h-100v-500h100z" />
    <glyph glyph-name="E" unicode="E" 
d="M500 300h-200v-200h400v-100h-600v700h600v-100h-400v-200h200v-100z" />
    <glyph glyph-name="F" unicode="F" 
d="M500 300h-200v-300h-200v700h600v-100h-400v-200h200v-100z" />
    <glyph glyph-name="G" unicode="G" 
d="M500 100v200h-100v100h300v-300h-100v-100h-400v100h-100v500h100v100h400v-100h100v-100h-200v100h-200v-500h200z" />
    <glyph glyph-name="H" unicode="H" 
d="M500 300h-200v-300h-200v700h200v-300h200v300h200v-700h-200v300z" />
    <glyph glyph-name="I" unicode="I" 
d="M500 100h100v-100h-400v100h100v500h-100v100h400v-100h-100v-500z" />
    <glyph glyph-name="J" unicode="J" 
d="M500 100v-100h-300v100h-100v100h200v-100h100v500h-100v100h400v-100h-100v-500h-100z" />
    <glyph glyph-name="K" unicode="K" 
d="M500 100h-100v100h-100v-200h-200v700h200v-200h100v100h100v100h200v-100h-100v-100h-100v-100h-100v-100h100v-100h100v-100h100v-100h-200v100z" />
    <glyph glyph-name="L" unicode="L" 
d="M700 0h-600v700h200v-600h400v-100z" />
    <glyph glyph-name="M" unicode="M" 
d="M100 0v700h200v-100h100v-100h100v100h100v100h200v-700h-200v400h-100v-100h-100v100h-100v-400h-200z" />
    <glyph glyph-name="N" unicode="N" 
d="M500 700h200v-700h-200v200h-100v100h-100v-300h-200v700h200v-100h100v-100h100v200z" />
    <glyph glyph-name="O" unicode="O" 
d="M500 100v500h-200v-500h200zM700 600v-500h-100v-100h-400v100h-100v500h100v100h400v-100h100z" />
    <glyph glyph-name="P" unicode="P" 
d="M600 300h-300v-300h-200v700h500v-100h100v-200h-100v-100zM300 600v-200h200v200h-200z" />
    <glyph glyph-name="Q" unicode="Q" 
d="M400 100h-200v100h-100v400h100v100h400v-100h100v-400h-100v-100h100v-100h-300v100zM300 200h200v400h-200v-400z" />
    <glyph glyph-name="R" unicode="R" 
d="M500 100h-100v100h-100v-200h-200v700h500v-100h100v-200h-100v-100h-100v-100h100v-100h100v-100h-200v100zM300 600v-200h200v200h-200z" />
    <glyph glyph-name="S" unicode="S" 
d="M500 100v200h-300v100h-100v200h100v100h400v-100h100v-100h-200v100h-200v-200h300v-100h100v-200h-100v-100h-400v100h-100v100h200v-100h200z" />
    <glyph glyph-name="T" unicode="T" 
d="M100 600v100h600v-100h-200v-600h-200v600h-200z" />
    <glyph glyph-name="U" unicode="U" 
d="M500 100v600h200v-600h-100v-100h-400v100h-100v600h200v-600h200z" />
    <glyph glyph-name="V" unicode="V" 
d="M500 100v-100h-200v100h-100v100h-100v500h200v-500h200v500h200v-500h-100v-100h-100z" />
    <glyph glyph-name="W" unicode="W" 
d="M500 100v100h-100v-100h-100v-100h-200v700h200v-400h100v100h100v-100h100v400h200v-700h-200v100h-100z" />
    <glyph glyph-name="X" unicode="X" 
d="M600 300v-100h100v-200h-200v200h-200v-200h-200v200h100v100h100v100h-100v100h-100v200h200v-200h200v200h200v-200h-100v-100h-100v-100h100z" />
    <glyph glyph-name="Y" unicode="Y" 
d="M600 300h-100v-300h-200v300h-100v100h-100v300h200v-300h200v300h200v-300h-100v-100z" />
    <glyph glyph-name="Z" unicode="Z" 
d="M600 500v-100h-100v-100h-100v-100h-100v-100h400v-100h-600v200h100v100h100v100h100v100h100v100h-400v100h600v-200h-100z" />
    <glyph glyph-name="bracketleft" unicode="[" 
d="M600 700v-100h-200v-500h200v-100h-400v700h400z" />
    <glyph glyph-name="backslash" unicode="\" 
d="M500 100v100h-100v100h-100v100h-100v100h-100v100h200v-100h100v-100h100v-100h100v-100h100v-100h100v-100h-200v100h-100z" />
    <glyph glyph-name="bracketright" unicode="]" 
d="M600 700v-700h-400v100h200v500h-200v100h400z" />
    <glyph glyph-name="asciicircum" unicode="^" 
d="M700 400v-100h-200v100h-200v-100h-200v100h100v100h100v100h200v-100h100v-100h100z" />
    <glyph glyph-name="underscore" unicode="_" 
d="M0 -100v200h800v-200h-800z" />
    <glyph glyph-name="grave" unicode="`" 
d="M400 500h-100v100h-100v100h200v-100h100v-100h100v-100h-200v100z" />
    <glyph glyph-name="a" unicode="a" 
d="M500 100v100h-200v-100h200zM700 400v-400h-500v100h-100v100h100v100h300v100h-300v100h400v-100h100z" />
    <glyph glyph-name="b" unicode="b" 
d="M500 100v200h-200v-200h200zM600 300h100v-200h-100v-100h-500v600h200v-200h300v-100z" />
    <glyph glyph-name="c" unicode="c" 
d="M600 100v-100h-400v100h-100v300h100v100h400v-100h-300v-300h300z" />
    <glyph glyph-name="d" unicode="d" 
d="M500 100v200h-200v-200h200zM700 600v-600h-500v100h-100v200h100v100h300v200h200z" />
    <glyph glyph-name="e" unicode="e" 
d="M700 400v-200h-400v-100h300v-100h-400v100h-100v300h100v100h400v-100h100zM300 300h200v100h-200v-100z" />
    <glyph glyph-name="f" unicode="f" 
d="M700 400v-100h-200v-300h-200v300h-100v100h100v100h100v100h300v-100h-200v-100h200z" />
    <glyph glyph-name="g" unicode="g" 
d="M500 100h-300v100h-100v200h100v100h500v-500h-100v-100h-500v100h400v100zM300 200h200v200h-200v-200z" />
    <glyph glyph-name="h" unicode="h" 
d="M500 300h-200v-300h-200v600h200v-200h300v-100h100v-300h-200v300z" />
    <glyph glyph-name="i" unicode="i" 
d="M500 100h100v-100h-400v100h100v200h-100v100h300v-300zM300 500v100h200v-100h-200z" />
    <glyph glyph-name="j" unicode="j" 
d="M700 400v-400h-100v-100h-400v100h300v400h200zM500 500v100h200v-100h-200z" />
    <glyph glyph-name="k" unicode="k" 
d="M500 100h-100v100h-100v-200h-200v600h200v-300h100v100h200v-100h-100v-100h100v-100h100v-100h-200v100z" />
    <glyph glyph-name="l" unicode="l" 
d="M500 100h100v-100h-400v100h100v400h-100v100h300v-500z" />
    <glyph glyph-name="m" unicode="m" 
d="M500 100h-100v100h-100v-200h-200v500h200v-100h200v100h200v-100h100v-400h-200v200h-100v-100z" />
    <glyph glyph-name="n" unicode="n" 
d="M700 400v-400h-200v400h-200v-400h-200v500h500v-100h100z" />
    <glyph glyph-name="o" unicode="o" 
d="M500 100v300h-200v-300h200zM700 400v-300h-100v-100h-400v100h-100v300h100v100h400v-100h100z" />
    <glyph glyph-name="p" unicode="p" 
d="M700 400v-200h-100v-100h-300v-200h-200v600h500v-100h100zM300 200h200v200h-200v-200z" />
    <glyph glyph-name="q" unicode="q" 
d="M500 100h-300v100h-100v200h100v100h500v-600h-200v200zM300 200h200v200h-200v-200z" />
    <glyph glyph-name="r" unicode="r" 
d="M500 300v100h-200v-400h-200v500h500v-100h100v-100h-200z" />
    <glyph glyph-name="s" unicode="s" 
d="M500 100v100h-300v100h-100v100h100v100h500v-100h-400v-100h300v-100h100v-100h-100v-100h-500v100h400z" />
    <glyph glyph-name="t" unicode="t" 
d="M500 100h200v-100h-300v100h-100v300h-200v100h200v100h200v-100h200v-100h-200v-300z" />
    <glyph glyph-name="u" unicode="u" 
d="M500 100v400h200v-500h-500v100h-100v400h200v-400h200z" />
    <glyph glyph-name="v" unicode="v" 
d="M500 100v-100h-200v100h-100v100h-100v300h200v-300h200v300h200v-300h-100v-100h-100z" />
    <glyph glyph-name="w" unicode="w" 
d="M500 100h-100v-100h-200v200h-100v300h200v-200h100v100h100v-100h100v200h200v-300h-100v-200h-200v100z" />
    <glyph glyph-name="x" unicode="x" 
d="M500 100h-200v-100h-200v100h100v100h100v100h-100v100h-100v100h200v-100h200v100h200v-100h-100v-100h-100v-100h100v-100h100v-100h-200v100z" />
    <glyph glyph-name="y" unicode="y" 
d="M100 -100v100h300v100h-200v100h-100v300h200v-300h200v300h200v-400h-100v-100h-100v-100h-400z" />
    <glyph glyph-name="z" unicode="z" 
d="M700 400h-100v-100h-100v-100h-100v-100h300v-100h-600v100h100v100h100v100h100v100h-300v100h600v-100z" />
    <glyph glyph-name="braceleft" unicode="{" 
d="M500 100h200v-100h-300v100h-100v200h-200v100h200v200h100v100h300v-100h-200v-200h-100v-100h100v-200z" />
    <glyph glyph-name="bar" unicode="|" 
d="M500 700v-800h-200v800h200z" />
    <glyph glyph-name="braceright" unicode="}" 
d="M500 100h-100v-100h-300v100h200v200h100v100h-100v200h-200v100h300v-100h100v-200h200v-100h-200v-200z" />
    <glyph glyph-name="asciitilde" unicode="~" 
d="M500 700v-100h100v100h200v-100h-100v-100h-300v100h-100v-100h-200v100h100v100h300z" />
    <glyph glyph-name="nonbreakingspace" unicode="&#xa0;" 
 />
    <glyph glyph-name="exclamdown" unicode="&#xa1;" 
d="M500 300v-400h-200v400h200zM500 500h-200v100h200v-100z" />
    <glyph glyph-name="cent" unicode="&#xa2;" 
d="M600 500v-100h-300v-300h300v-100h-100v-100h-200v100h-100v100h-100v300h100v100h100v100h200v-100h100z" />
    <glyph glyph-name="sterling" unicode="&#xa3;" 
d="M0 0v100h100v100h100v100h-100v100h100v100h100v100h100v-200h200v-100h-200v-100h-100v-100h300v-100h-600zM600 500v100h100v-100h-100zM400 700h200v-100h-200v100zM700 200v-100h-100v100h100z" />
    <glyph glyph-name="currency" unicode="&#xa4;" 
d="M500 100h-200v-100h-200v100h100v100h-100v200h100v100h-100v100h200v-100h200v100h200v-100h-100v-100h100v-200h-100v-100h100v-100h-200v100zM300 200h200v200h-200v-200z" />
    <glyph glyph-name="yen" unicode="&#xa5;" 
d="M500 100v-100h-200v100h-200v100h200v100h-100v100h-100v300h200v-300h200v300h200v-300h-100v-100h-100v-100h200v-100h-200z" />
    <glyph glyph-name="brokenbar" unicode="&#xa6;" 
d="M500 700v-300h-200v300h200zM500 -100h-200v300h200v-300z" />
    <glyph glyph-name="section" unicode="&#xa7;" 
d="M500 100v100h-300v100h-100v100h100v100h-100v100h100v100h400v-100h-300v-100h300v-100h100v-100h-100v-100h100v-100h-100v-100h-400v100h300zM300 300h200v100h-200v-100z" />
    <glyph glyph-name="dieresis" unicode="&#xa8;" 
d="M600 700v-100h-100v100h100zM200 600v100h100v-100h-100z" />
    <glyph glyph-name="copyright" unicode="&#xa9;" 
d="M600 300v-100h-200v100h200zM600 500v100h100v-100h-100zM700 200v300h100v-300h-100zM300 300v100h100v-100h-100zM300 500h-100v100h100v-100zM600 600h-300v100h300v-100zM600 100v100h100v-100h-100zM200 200h-100v300h100v-300zM300 100h300v-100h-300v100zM400 400
v100h200v-100h-200zM300 200v-100h-100v100h100z" />
    <glyph glyph-name="ordfeminine" unicode="&#xaa;" 
d="M700 200h-500v100h-100v100h100v100h300v100h-300v100h400v-100h100v-400zM300 300h200v100h-200v-100z" />
    <glyph glyph-name="guillemotleft" unicode="&#xab;" 
d="M500 100h-200v100h-100v100h-100v100h100v100h100v100h200v-100h-100v-100h-100v-100h100v-100h100v-100zM600 300h100v-100h100v-100h-200v100h-100v100h-100v100h100v100h100v100h200v-100h-100v-100h-100v-100z" />
    <glyph glyph-name="logicalnot" unicode="&#xac;" 
d="M100 400v100h600v-300h-200v200h-400z" />
    <glyph glyph-name="hyphen" unicode="&#xad;" 
d="M700 400v-100h-600v100h600z" />
    <glyph glyph-name="registered" unicode="&#xae;" 
d="M600 300v-100h-100v100h100zM600 500v100h100v-100h-100zM700 200v300h100v-300h-100zM300 500h300v-100h-100v-100h-100v-100h-100v300zM600 600h-300v100h300v-100zM300 600v-100h-100v100h100zM600 100v100h100v-100h-100zM200 200h-100v300h100v-300zM300 100h300
v-100h-300v100zM200 100v100h100v-100h-100z" />
    <glyph glyph-name="macron" unicode="&#xaf;" 
d="M0 700h800v-200h-800v200z" />
    <glyph glyph-name="degree" unicode="&#xb0;" 
d="M600 500v-100h-400v100h-100v100h100v100h400v-100h100v-100h-100zM300 500h200v100h-200v-100z" />
    <glyph glyph-name="plusminus" unicode="&#xb1;" 
d="M500 100h200v-100h-600v100h200v200h-200v100h200v200h200v-200h200v-100h-200v-200z" />
    <glyph glyph-name="twosuperior" unicode="&#xb2;" 
d="M700 200h-600v200h200v-100h400v-100zM700 600v-100h-200v100h-200v-100h-200v100h100v100h400v-100h100zM300 500h200v-100h-200v100z" />
    <glyph glyph-name="threesuperior" unicode="&#xb3;" 
d="M700 400v-100h-100v-100h-400v100h-100v100h200v-100h200v100h-200v100h200v100h-200v-100h-200v100h100v100h400v-100h100v-100h-100v-100h100z" />
    <glyph glyph-name="acute" unicode="&#xb4;" 
d="M600 700v-100h-100v-100h-100v-100h-200v100h100v100h100v100h200z" />
    <glyph glyph-name="mu" unicode="&#xb5;" 
d="M500 100v400h200v-500h-500v-100h-200v200h100v400h200v-400h200z" />
    <glyph glyph-name="paragraph" unicode="&#xb6;" 
d="M600 300h-100v-300h-200v300h-200v100h-100v200h100v100h700v-700h-200v300zM600 600h-100v-200h100v200zM300 600h-100v-200h100v200z" />
    <glyph glyph-name="periodcentered" unicode="&#xb7;" 
d="M500 200h-200v200h200v-200z" />
    <glyph glyph-name="cedilla" unicode="&#xb8;" 
d="M600 100v-100h-100v-100h-300v100h200v100h200z" />
    <glyph glyph-name="onesuperior" unicode="&#xb9;" 
d="M500 300h200v-100h-600v100h200v100h-100v100h100v200h200v-400z" />
    <glyph glyph-name="ordmasculine" unicode="&#xba;" 
d="M600 300v-100h-400v100h-100v300h100v100h400v-100h100v-300h-100zM300 300h200v300h-200v-300z" />
    <glyph glyph-name="guillemotright" unicode="&#xbb;" 
d="M700 400h100v-100h-100v-100h-100v-100h-200v100h100v100h100v100h-100v100h-100v100h200v-100h100v-100zM300 300v100h-100v100h-100v100h200v-100h100v-100h100v-100h-100v-100h-100v-100h-200v100h100v100h100z" />
    <glyph glyph-name="onequarter" unicode="&#xbc;" 
d="M500 100v200h100v-100h100v-200h-100v100h-100zM600 500v-100h-100v-100h-100v-100h-100v-100h-100v-100h-100v200h100v100h100v100h100v100h100v100h100v100h100v-200h-100zM100 700h200v-300h-200v300z" />
    <glyph glyph-name="onehalf" unicode="&#xbd;" 
d="M500 100h100v100h-100v100h200v-300h-200v100zM600 500v-100h-100v-100h-100v-100h-100v-100h-100v-100h-100v200h100v100h100v100h100v100h100v100h100v100h100v-200h-100zM100 700h200v-300h-200v300z" />
    <glyph glyph-name="threequarters" unicode="&#xbe;" 
d="M500 100v200h100v-100h100v-200h-100v100h-100zM600 500v-100h-100v-100h-100v-100h-100v-100h-100v-100h-100v200h100v100h100v100h100v100h100v100h100v100h100v-200h-100zM300 500h-100v100h100v-100zM200 700v-100h-100v100h100zM200 400h-100v100h100v-100z" />
    <glyph glyph-name="questiondown" unicode="&#xbf;" 
d="M500 100h200v-100h-100v-100h-400v100h-100v200h100v100h100v100h200v-100h-100v-100h-100v-200h200v100zM300 500v100h200v-100h-200z" />
    <glyph glyph-name="Agrave" unicode="&#xc0;" 
d="M700 400v-400h-200v200h-200v-200h-200v400h100v100h100v100h-100v100h200v-100h100v-100h100v-100h100zM300 300h200v100h-200v-100z" />
    <glyph glyph-name="Aacute" unicode="&#xc1;" 
d="M700 400v-400h-200v200h-200v-200h-200v400h100v100h100v100h100v100h200v-100h-100v-100h100v-100h100zM300 300h200v100h-200v-100z" />
    <glyph glyph-name="Acircumflex" unicode="&#xc2;" 
d="M700 400v-400h-200v200h-200v-200h-200v400h100v100h-100v100h100v100h400v-100h100v-100h-100v-100h100zM300 300h200v100h-200v-100zM300 500h200v100h-200v-100z" />
    <glyph glyph-name="Atilde" unicode="&#xc3;" 
d="M700 400v-400h-200v200h-200v-200h-200v400h100v100h-100v100h100v100h300v-100h100v100h200v-100h-100v-100h-100v-100h100zM300 300h200v100h-200v-100zM300 500h100v100h-100v-100z" />
    <glyph glyph-name="Adieresis" unicode="&#xc4;" 
d="M700 400v-400h-200v200h-200v-200h-200v400h100v100h100v100h200v-100h100v-100h100zM300 300h200v100h-200v-100zM600 600v100h100v-100h-100zM200 700v-100h-100v100h100z" />
    <glyph glyph-name="Aring" unicode="&#xc5;" 
d="M700 400v-400h-200v200h-200v-200h-200v400h100v200h100v-100h200v100h100v-200h100zM500 700v-100h-200v100h200zM300 300h200v100h-200v-100z" />
    <glyph glyph-name="AE" unicode="&#xc6;" 
d="M600 300v-200h100v-100h-300v300h-100v-300h-200v500h100v100h100v100h400v-100h-100v-200h100v-100h-100zM300 500v-100h100v100h-100z" />
    <glyph glyph-name="Ccedilla" unicode="&#xc7;" 
d="M500 100v-100h-100v-100h-300v100h200v100h-100v100h-100v400h100v100h400v-100h100v-100h-200v100h-200v-400h200v100h200v-100h-100v-100h-100z" />
    <glyph glyph-name="Egrave" unicode="&#xc8;" 
d="M700 400h-400v-100h200v-100h-200v-100h400v-100h-600v500h200v100h-100v100h200v-100h100v-100h200v-100z" />
    <glyph glyph-name="Eacute" unicode="&#xc9;" 
d="M700 400h-400v-100h200v-100h-200v-100h400v-100h-600v500h200v100h100v100h200v-100h-100v-100h200v-100z" />
    <glyph glyph-name="Ecircumflex" unicode="&#xca;" 
d="M700 400h-400v-100h200v-100h-200v-100h400v-100h-600v500h100v100h100v100h300v-100h100v-200zM400 500h100v100h-100v-100z" />
    <glyph glyph-name="Edieresis" unicode="&#xcb;" 
d="M700 400h-400v-100h200v-100h-200v-100h400v-100h-600v500h600v-100zM500 700h100v-100h-100v100zM200 700h100v-100h-100v100z" />
    <glyph glyph-name="Igrave" unicode="&#xcc;" 
d="M500 100h100v-100h-400v100h100v300h-100v100h100v100h-100v100h200v-100h100v-100h100v-100h-100v-300z" />
    <glyph glyph-name="Iacute" unicode="&#xcd;" 
d="M500 100h100v-100h-400v100h100v300h-100v100h100v100h100v100h200v-100h-100v-100h100v-100h-100v-300z" />
    <glyph glyph-name="Icircumflex" unicode="&#xce;" 
d="M500 100h100v-100h-400v100h100v300h-100v200h100v100h300v-100h100v-100h-100v-100h-100v-300zM400 500h100v100h-100v-100z" />
    <glyph glyph-name="Idieresis" unicode="&#xcf;" 
d="M500 100h100v-100h-400v100h100v300h-100v100h400v-100h-100v-300zM500 700h100v-100h-100v100zM200 700h100v-100h-100v100z" />
    <glyph glyph-name="Eth" unicode="&#xd0;" 
d="M500 100v100h100v300h-100v100h-100v-200h100v-100h-100v-200h100zM700 200v-100h-100v-100h-400v300h-100v100h100v300h400v-100h100v-100h100v-300h-100z" />
    <glyph glyph-name="Ntilde" unicode="&#xd1;" 
d="M500 100h-100v100h-100v-200h-200v600h100v100h300v-100h100v100h200v-100h-100v-600h-200v100zM300 500h100v-100h100v100h-100v100h-100v-100z" />
    <glyph glyph-name="Ograve" unicode="&#xd2;" 
d="M500 100v300h-200v-300h200zM700 400v-300h-100v-100h-400v100h-100v300h100v100h100v100h-100v100h200v-100h100v-100h100v-100h100z" />
    <glyph glyph-name="Oacute" unicode="&#xd3;" 
d="M500 100v300h-200v-300h200zM700 400v-300h-100v-100h-400v100h-100v300h100v100h100v100h100v100h200v-100h-100v-100h100v-100h100z" />
    <glyph glyph-name="Ocircumflex" unicode="&#xd4;" 
d="M500 100v300h-200v-300h200zM700 400v-300h-100v-100h-400v100h-100v300h100v100h-100v100h100v100h400v-100h100v-100h-100v-100h100zM300 500h200v100h-200v-100z" />
    <glyph glyph-name="Otilde" unicode="&#xd5;" 
d="M500 100v300h-200v-300h200zM700 400v-300h-100v-100h-400v100h-100v300h100v100h-100v100h100v100h300v-100h100v100h200v-100h-100v-100h-100v-100h100zM300 500h100v100h-100v-100z" />
    <glyph glyph-name="Odieresis" unicode="&#xd6;" 
d="M500 100v400h-200v-400h200zM600 500h100v-400h-100v-100h-400v100h-100v400h100v100h400v-100zM700 600h-100v100h100v-100zM100 700h100v-100h-100v100z" />
    <glyph glyph-name="multiply" unicode="&#xd7;" 
d="M500 100v100h-200v-100h-200v100h100v100h100v100h-100v100h-100v100h200v-100h200v100h200v-100h-100v-100h-100v-100h100v-100h100v-100h-200z" />
    <glyph glyph-name="Oslash" unicode="&#xd8;" 
d="M500 100v200h-100v-100h-100v-100h200zM700 600v-500h-100v-100h-400v100h-100v500h100v100h400v-100h100zM300 600v-200h100v100h100v100h-200z" />
    <glyph glyph-name="Ugrave" unicode="&#xd9;" 
d="M500 100v400h200v-400h-100v-100h-400v100h-100v400h200v-400h200zM400 700v-100h100v-100h-200v100h-100v100h200z" />
    <glyph glyph-name="Uacute" unicode="&#xda;" 
d="M500 100v400h200v-400h-100v-100h-400v100h-100v400h200v-400h200zM400 700h200v-100h-100v-100h-200v100h100v100z" />
    <glyph glyph-name="Ucircumflex" unicode="&#xdb;" 
d="M500 100v500h-100v-100h-100v-400h200zM700 600v-500h-100v-100h-400v100h-100v400h100v100h100v100h300v-100h100z" />
    <glyph glyph-name="Udieresis" unicode="&#xdc;" 
d="M500 100v400h200v-400h-100v-100h-400v100h-100v400h200v-400h200zM500 700h100v-100h-100v100zM200 700h100v-100h-100v100z" />
    <glyph glyph-name="Yacute" unicode="&#xdd;" 
d="M600 300v-100h-100v-200h-200v200h-100v100h-100v200h200v-200h200v200h200v-200h-100zM400 700h200v-100h-100v-100h-200v100h100v100z" />
    <glyph glyph-name="Thorn" unicode="&#xde;" 
d="M600 500h100v-300h-100v-100h-300v-100h-200v700h200v-100h300v-100zM300 500v-300h200v300h-200z" />
    <glyph glyph-name="germandbls" unicode="&#xdf;" 
d="M500 100v200h-100v100h100v200h-200v-600h-200v600h100v100h400v-100h100v-200h-100v-100h100v-200h-100v-100h-200v100h100z" />
    <glyph glyph-name="agrave" unicode="&#xe0;" 
d="M500 100v100h-200v-100h200zM700 400v-400h-500v100h-100v100h100v100h300v100h-300v100h100v100h-100v100h200v-100h100v-100h100v-100h100z" />
    <glyph glyph-name="aacute" unicode="&#xe1;" 
d="M500 100v100h-200v-100h200zM700 400v-400h-500v100h-100v100h100v100h300v100h-300v100h100v100h100v100h200v-100h-100v-100h100v-100h100z" />
    <glyph glyph-name="acircumflex" unicode="&#xe2;" 
d="M500 100v100h-200v-100h200zM700 400v-400h-500v100h-100v100h100v100h300v100h-300v200h100v100h300v-100h100v-100h-100v-100h100zM500 500v100h-100v-100h100z" />
    <glyph glyph-name="atilde" unicode="&#xe3;" 
d="M500 100v100h-200v-100h200zM700 400v-400h-500v100h-100v100h100v100h300v100h-300v100h-100v100h100v100h300v-100h100v100h200v-100h-100v-100h-100v-100h100zM300 500h100v100h-100v-100z" />
    <glyph glyph-name="adieresis" unicode="&#xe4;" 
d="M500 100v100h-200v-100h200zM700 400v-400h-500v100h-100v100h100v100h300v100h-300v100h400v-100h100zM600 600h-100v100h100v-100zM200 700h100v-100h-100v100z" />
    <glyph glyph-name="aring" unicode="&#xe5;" 
d="M500 100v100h-200v-100h200zM700 400v-400h-500v100h-100v100h100v100h300v100h-300v300h400v-300h100zM300 500h200v100h-200v-100z" />
    <glyph glyph-name="ae" unicode="&#xe6;" 
d="M500 100h200v-100h-600v100h-100v100h100v100h200v100h-200v100h600v-100h100v-200h-300v-100zM600 300v100h-100v-100h100zM300 100v100h-100v-100h100z" />
    <glyph glyph-name="ccedilla" unicode="&#xe7;" 
d="M500 100v-100h-100v-100h-300v100h200v100h-100v100h-100v200h100v100h400v-100h-300v-200h300v-100h-100z" />
    <glyph glyph-name="egrave" unicode="&#xe8;" 
d="M700 400v-200h-400v-100h300v-100h-400v100h-100v300h100v100h100v100h-100v100h200v-100h100v-100h100v-100h100zM300 300h200v100h-200v-100z" />
    <glyph glyph-name="eacute" unicode="&#xe9;" 
d="M700 400v-200h-400v-100h300v-100h-400v100h-100v300h100v100h100v100h100v100h200v-100h-100v-100h100v-100h100zM300 300h200v100h-200v-100z" />
    <glyph glyph-name="ecircumflex" unicode="&#xea;" 
d="M700 400v-200h-400v-100h300v-100h-400v100h-100v300h100v100h-100v100h100v100h400v-100h100v-100h-100v-100h100zM300 300h200v100h-200v-100zM300 500h200v100h-200v-100z" />
    <glyph glyph-name="edieresis" unicode="&#xeb;" 
d="M700 400v-200h-400v-100h300v-100h-400v100h-100v300h100v100h400v-100h100zM300 300h200v100h-200v-100zM600 600h-100v100h100v-100zM200 700h100v-100h-100v100z" />
    <glyph glyph-name="igrave" unicode="&#xec;" 
d="M500 100h100v-100h-400v100h100v200h-100v100h300v-300zM400 700v-100h100v-100h-200v100h-100v100h200z" />
    <glyph glyph-name="iacute" unicode="&#xed;" 
d="M500 100h100v-100h-400v100h100v200h-100v100h300v-300zM400 700h200v-100h-100v-100h-200v100h100v100z" />
    <glyph glyph-name="icircumflex" unicode="&#xee;" 
d="M500 100h100v-100h-400v100h100v200h-100v100h300v-300zM700 600v-100h-200v100h-200v-100h-200v100h100v100h400v-100h100z" />
    <glyph glyph-name="idieresis" unicode="&#xef;" 
d="M500 100h100v-100h-400v100h100v200h-100v100h300v-300zM600 500h-100v100h100v-100zM300 500h-100v100h100v-100z" />
    <glyph glyph-name="eth" unicode="&#xf0;" 
d="M500 100v200h-200v-200h200zM500 700h200v-100h-100v-100h100v-400h-100v-100h-400v100h-100v200h100v100h200v100h-200v100h300v100z" />
    <glyph glyph-name="ntilde" unicode="&#xf1;" 
d="M700 400v-400h-200v400h-200v-400h-200v600h100v100h300v-100h100v100h200v-100h-100v-100h-100v-100h100zM300 500h100v100h-100v-100z" />
    <glyph glyph-name="ograve" unicode="&#xf2;" 
d="M500 100v300h-200v-300h200zM700 400v-300h-100v-100h-400v100h-100v300h100v100h100v100h-100v100h200v-100h100v-100h100v-100h100z" />
    <glyph glyph-name="oacute" unicode="&#xf3;" 
d="M500 100v300h-200v-300h200zM700 400v-300h-100v-100h-400v100h-100v300h100v100h100v100h100v100h200v-100h-100v-100h100v-100h100z" />
    <glyph glyph-name="ocircumflex" unicode="&#xf4;" 
d="M500 100v300h-200v-300h200zM700 400v-300h-100v-100h-400v100h-100v300h100v100h-100v100h100v100h400v-100h100v-100h-100v-100h100zM300 500h200v100h-200v-100z" />
    <glyph glyph-name="otilde" unicode="&#xf5;" 
d="M500 100v300h-200v-300h200zM700 400v-300h-100v-100h-400v100h-100v300h100v100h-100v100h100v100h300v-100h100v100h200v-100h-100v-100h-100v-100h100zM300 500h100v100h-100v-100z" />
    <glyph glyph-name="odieresis" unicode="&#xf6;" 
d="M500 100v300h-200v-300h200zM700 400v-300h-100v-100h-400v100h-100v300h100v100h400v-100h100zM500 700h100v-100h-100v100zM200 700h100v-100h-100v100z" />
    <glyph glyph-name="divide" unicode="&#xf7;" 
d="M500 100h-200v100h200v-100zM700 400v-100h-600v100h600zM500 500h-200v100h200v-100z" />
    <glyph glyph-name="oslash" unicode="&#xf8;" 
d="M500 100v100h-100v-100h100zM700 400v-300h-100v-100h-400v100h-100v300h100v100h400v-100h100zM300 300h100v100h-100v-100z" />
    <glyph glyph-name="ugrave" unicode="&#xf9;" 
d="M500 100v400h200v-500h-500v100h-100v400h200v-400h200zM400 700v-100h100v-100h-200v100h-100v100h200z" />
    <glyph glyph-name="uacute" unicode="&#xfa;" 
d="M500 100v400h200v-500h-500v100h-100v400h200v-400h200zM400 700h200v-100h-100v-100h-200v100h100v100z" />
    <glyph glyph-name="ucircumflex" unicode="&#xfb;" 
d="M500 100v500h-100v-100h-100v-400h200zM700 600v-600h-500v100h-100v400h100v100h100v100h300v-100h100z" />
    <glyph glyph-name="udieresis" unicode="&#xfc;" 
d="M500 100v400h200v-500h-500v100h-100v400h200v-400h200zM500 700h100v-100h-100v100zM200 700h100v-100h-100v100z" />
    <glyph glyph-name="yacute" unicode="&#xfd;" 
d="M100 0h300v100h-200v100h-100v300h200v-300h200v300h200v-400h-100v-100h-100v-100h-400v100zM400 700h200v-100h-100v-100h-200v100h100v100z" />
    <glyph glyph-name="thorn" unicode="&#xfe;" 
d="M700 400v-200h-100v-100h-300v-200h-200v800h200v-200h300v-100h100zM300 200h200v200h-200v-200z" />
    <glyph glyph-name="ydieresis" unicode="&#xff;" 
d="M100 -100v100h300v100h-200v100h-100v300h200v-300h200v300h200v-400h-100v-100h-100v-100h-400zM600 600h-100v100h100v-100zM200 700h100v-100h-100v100z" />
    <glyph glyph-name="dotlessi" unicode="&#x131;" 
d="M500 100h100v-100h-400v100h100v200h-100v100h300v-300z" />
    <glyph glyph-name="IJ" unicode="&#x132;" 
d="M500 100v500h-100v-500h100zM100 0v100h100v500h-100v100h700v-100h-100v-500h-100v-100h-500z" />
    <glyph glyph-name="ij" unicode="&#x133;" 
d="M700 400v-400h-100v-100h-400v500h200v-400h100v400h200zM700 600v-100h-200v100h200zM400 500h-200v100h200v-100z" />
    <glyph glyph-name="Lslash" unicode="&#x141;" 
d="M100 0v300h-100v100h100v300h200v-200h100v-100h-100v-300h400v-100h-600z" />
    <glyph glyph-name="lslash" unicode="&#x142;" 
d="M500 100h100v-100h-400v100h100v100h-100v100h100v200h-100v100h300v-200h100v-100h-100v-200z" />
    <glyph glyph-name="Eng" unicode="&#x14a;" 
d="M500 700h200v-700h-100v-100h-300v100h200v200h-100v100h-100v-300h-200v700h200v-100h100v-100h100v200z" />
    <glyph glyph-name="eng" unicode="&#x14b;" 
d="M700 400v-400h-100v-100h-300v100h200v400h-200v-400h-200v500h500v-100h100z" />
    <glyph glyph-name="OE" unicode="&#x152;" 
d="M600 300v-200h100v-100h-500v100h-100v500h100v100h500v-100h-100v-200h100v-100h-100zM400 100v500h-100v-500h100z" />
    <glyph glyph-name="oe" unicode="&#x153;" 
d="M500 100h200v-100h-600v100h-100v300h100v100h600v-100h100v-200h-300v-100zM600 300v100h-100v-100h100zM200 100h100v300h-100v-300z" />
    <glyph glyph-name="Scaron" unicode="&#x160;" 
d="M500 100v100h-300v100h-100v100h100v100h100v100h-100v100h200v-100h100v100h200v-100h-100v-100h100v-100h-400v-100h300v-100h100v-100h-100v-100h-500v100h400z" />
    <glyph glyph-name="scaron" unicode="&#x161;" 
d="M500 100v100h-300v100h-100v100h100v100h100v100h-100v100h200v-100h100v100h200v-100h-100v-100h100v-100h-400v-100h300v-100h100v-100h-100v-100h-500v100h400z" />
    <glyph glyph-name="Ydieresis" unicode="&#x178;" 
d="M600 300v-100h-100v-200h-200v200h-100v100h-100v200h200v-200h200v200h200v-200h-100zM500 700h100v-100h-100v100zM200 700h100v-100h-100v100z" />
    <glyph glyph-name="Zcaron" unicode="&#x17d;" 
d="M600 300h-100v-100h-100v-100h300v-100h-600v100h100v100h100v100h100v100h-300v100h200v100h-100v100h200v-100h100v100h200v-100h-100v-100h100v-100h-100v-100z" />
    <glyph glyph-name="zcaron" unicode="&#x17e;" 
d="M600 300h-100v-100h-100v-100h300v-100h-600v100h100v100h100v100h100v100h-300v100h200v100h-100v100h200v-100h100v100h200v-100h-100v-100h100v-100h-100v-100z" />
    <glyph glyph-name="longs" unicode="&#x17f;" 
d="M400 500v100h300v-100h-200v-500h-200v300h-100v100h100v100h100z" />
    <glyph glyph-name="florin" unicode="&#x192;" 
d="M700 400v-100h-200v-300h-100v-100h-300v100h200v300h-100v100h100v100h100v100h300v-100h-200v-100h200z" />
    <glyph glyph-name="uni0237" unicode="&#x237;" 
d="M700 400v-400h-100v-100h-400v100h300v400h200z" />
    <glyph glyph-name="circumflex" unicode="&#x2c6;" 
d="M500 700v-100h-200v100h200zM600 500h-100v100h100v-100zM200 600h100v-100h-100v100z" />
    <glyph glyph-name="caron" unicode="&#x2c7;" 
d="M600 700v-100h-100v100h100zM500 500h-200v100h200v-100zM200 600v100h100v-100h-100z" />
    <glyph glyph-name="uni02CA" unicode="&#x2ca;" 
d="M600 700v-100h-100v-100h-200v100h100v100h200z" />
    <glyph glyph-name="uni02CB" unicode="&#x2cb;" 
d="M400 500v100h-100v100h200v-100h100v-100h-200z" />
    <glyph glyph-name="breve" unicode="&#x2d8;" 
d="M500 700h200v-100h-100v-100h-400v100h-100v100h200v-100h200v100z" />
    <glyph glyph-name="dotaccent" unicode="&#x2d9;" 
d="M500 700v-100h-200v100h200z" />
    <glyph glyph-name="ring" unicode="&#x2da;" 
d="M600 500v-100h-300v100h-100v100h100v100h300v-100h100v-100h-100zM400 500h100v100h-100v-100z" />
    <glyph glyph-name="ogonek" unicode="&#x2db;" 
d="M400 100v-100h200v-100h-300v100h-100v100h200z" />
    <glyph glyph-name="tilde" unicode="&#x2dc;" 
d="M500 700v-100h100v100h200v-100h-100v-100h-300v100h-100v-100h-200v100h100v100h300z" />
    <glyph glyph-name="hungarumlaut" unicode="&#x2dd;" 
d="M500 700h200v-100h-100v-100h-200v100h100v100zM400 700v-100h-100v-100h-200v100h100v100h200z" />
    <glyph glyph-name="Omega" unicode="&#x3a9;" 
d="M100 0v100h100v100h-100v400h100v100h500v-100h100v-400h-100v-100h100v-100h-300v200h100v400h-300v-400h100v-200h-300z" />
    <glyph glyph-name="mu" unicode="&#x3bc;" 
d="M500 100v400h200v-500h-500v-100h-200v200h100v400h200v-400h200z" />
    <glyph glyph-name="pi" unicode="&#x3c0;" 
d="M700 400v-400h-200v300h-100v-300h-200v200h-100v100h100v100h400v100h200v-100h-100z" />
    <glyph glyph-name="uni2010" unicode="&#x2010;" 
d="M700 400v-100h-600v100h600z" />
    <glyph glyph-name="uni2011" unicode="&#x2011;" 
d="M700 400v-100h-600v100h600z" />
    <glyph glyph-name="uni2012" unicode="&#x2012;" 
d="M700 400v-100h-600v100h600z" />
    <glyph glyph-name="endash" unicode="&#x2013;" 
d="M700 400v-100h-500v100h500z" />
    <glyph glyph-name="emdash" unicode="&#x2014;" 
d="M100 400h700v-100h-700v100z" />
    <glyph glyph-name="afii00208" unicode="&#x2015;" 
d="M0 200v200h800v-200h-800z" />
    <glyph glyph-name="uni2016" unicode="&#x2016;" 
d="M500 700h200v-800h-200v800zM400 700v-800h-200v800h200z" />
    <glyph glyph-name="underscoredbl" unicode="&#x2017;" 
d="M0 -100v200h800v-200h-800zM0 200v200h800v-200h-800z" />
    <glyph glyph-name="quoteleft" unicode="&#x2018;" 
d="M600 700v-100h-100v-200h-200v200h100v100h200z" />
    <glyph glyph-name="quoteright" unicode="&#x2019;" 
d="M600 700v-200h-100v-100h-200v100h100v200h200z" />
    <glyph glyph-name="quotesinglbase" unicode="&#x201a;" 
d="M200 -100v100h100v200h200v-200h-100v-100h-200z" />
    <glyph glyph-name="quotereversed" unicode="&#x201b;" 
d="M500 700v-200h100v-100h-200v100h-100v200h200z" />
    <glyph glyph-name="quotedblleft" unicode="&#x201c;" 
d="M500 700h200v-100h-100v-200h-200v200h100v100zM400 700v-100h-100v-200h-200v200h100v100h200z" />
    <glyph glyph-name="quotedblright" unicode="&#x201d;" 
d="M500 700h200v-200h-100v-100h-200v100h100v200zM400 700v-200h-100v-100h-200v100h100v200h200z" />
    <glyph glyph-name="quotedblbase" unicode="&#x201e;" 
d="M100 -100v100h100v200h200v-200h-100v-100h-200zM700 200v-200h-100v-100h-200v100h100v200h200z" />
    <glyph glyph-name="uni201F" unicode="&#x201f;" 
d="M700 400h-200v100h-100v200h200v-200h100v-100zM300 500h100v-100h-200v100h-100v200h200v-200z" />
    <glyph glyph-name="dagger" unicode="&#x2020;" 
d="M500 700v-100h200v-100h-200v-300h-200v300h-200v100h200v100h200z" />
    <glyph glyph-name="daggerdbl" unicode="&#x2021;" 
d="M700 400v-100h-200v-100h-200v100h-200v100h200v100h-200v100h200v100h200v-100h200v-100h-200v-100h200z" />
    <glyph glyph-name="bullet" unicode="&#x2022;" 
d="M500 100h-200v100h-100v200h100v100h200v-100h100v-200h-100v-100z" />
    <glyph glyph-name="uni2023" unicode="&#x2023;" 
d="M400 500v-100h200v-200h-200v-100h-200v400h200z" />
    <glyph glyph-name="uni2024" unicode="&#x2024;" 
d="M500 0h-200v200h200v-200z" />
    <glyph glyph-name="uni2025" unicode="&#x2025;" 
d="M700 0h-200v200h200v-200zM200 200h200v-200h-200v200z" />
    <glyph glyph-name="ellipsis" unicode="&#x2026;" 
d="M0 0v200h200v-200h-200zM800 0h-200v200h200v-200zM500 0h-200v200h200v-200z" />
    <glyph glyph-name="uni2027" unicode="&#x2027;" 
d="M500 300h-200v100h200v-100z" />
    <glyph glyph-name="perthousand" unicode="&#x2030;" 
d="M600 500v-100h-100v-100h-100v-100h-100v-100h-100v-100h-100v200h100v100h100v100h100v100h100v100h100v100h100v-200h-100zM700 200v-200h-100v200h100zM300 500h-200v200h200v-200zM400 0v200h100v-200h-100z" />
    <glyph glyph-name="uni2031" unicode="&#x2031;" 
d="M600 500v-100h-100v-100h-100v-100h300v-200h-400v100h-100v-100h-100v200h100v100h100v100h100v100h100v100h100v100h100v-200h-100zM300 500h-200v200h200v-200z" />
    <glyph glyph-name="guilsinglleft" unicode="&#x2039;" 
d="M400 100v100h-100v100h-100v100h100v100h100v100h200v-100h-100v-100h-100v-100h100v-100h100v-100h-200z" />
    <glyph glyph-name="guilsinglright" unicode="&#x203a;" 
d="M500 100h-200v100h100v100h100v100h-100v100h-100v100h200v-100h100v-100h100v-100h-100v-100h-100v-100z" />
    <glyph glyph-name="exclamdbl" unicode="&#x203c;" 
d="M500 100h200v-100h-200v100zM500 700h200v-400h-200v400zM100 0v100h200v-100h-200zM300 300h-200v400h200v-400z" />
    <glyph glyph-name="uni203D" unicode="&#x203d;" 
d="M500 100v-100h-200v100h200zM600 300h-100v-100h-200v300h-200v100h100v100h400v-100h100v-200h-100v-100z" />
    <glyph glyph-name="fraction" unicode="&#x2044;" 
d="M700 400h-100v-100h-100v-100h-100v-100h-100v-100h-200v100h100v100h100v100h100v100h100v100h100v100h200v-100h-100v-100z" />
    <glyph glyph-name="Euro" unicode="&#x20ac;" 
d="M600 500v100h-200v-100h100v-100h-100v-100h100v-100h-100v-100h200v100h200v-100h-100v-100h-400v100h-100v100h-100v100h100v100h-100v100h100v100h100v100h400v-100h100v-100h-200z" />
    <glyph glyph-name="uni2117" unicode="&#x2117;" 
d="M600 300h-200v-100h-100v300h300v-200zM600 500v100h100v-100h-100zM700 200v300h100v-300h-100zM300 500h-100v100h100v-100zM600 600h-300v100h300v-100zM600 100v100h100v-100h-100zM200 200h-100v300h100v-300zM300 100h300v-100h-300v100zM300 200v-100h-100v100
h100z" />
    <glyph glyph-name="uni2120" unicode="&#x2120;" 
d="M500 700v-100h100v100h200v-300h-200v100h-100v-100h-200v100h-100v-100h-200v100h100v100h-100v100h500z" />
    <glyph glyph-name="trademark" unicode="&#x2122;" 
d="M500 700v-100h100v100h200v-300h-200v100h-100v-100h-200v200h-100v-200h-200v300h500z" />
    <glyph glyph-name="Omega" unicode="&#x2126;" 
d="M100 0v100h100v100h-100v400h100v100h500v-100h100v-400h-100v-100h100v-100h-300v200h100v400h-300v-400h100v-200h-300z" />
    <glyph glyph-name="uni2127" unicode="&#x2127;" 
d="M500 700h300v-100h-100v-100h100v-400h-100v-100h-500v100h-100v400h100v100h-100v100h300v-200h-100v-400h300v400h-100v200z" />
    <glyph glyph-name="arrowleft" unicode="&#x2190;" 
d="M800 200h-400v-200h-100v100h-100v100h-100v200h100v100h100v100h100v-200h400v-200z" />
    <glyph glyph-name="arrowup" unicode="&#x2191;" 
d="M700 400v-100h-200v-400h-200v400h-200v100h100v100h100v100h200v-100h100v-100h100z" />
    <glyph glyph-name="arrowright" unicode="&#x2192;" 
d="M700 400h100v-200h-100v-100h-100v-100h-100v200h-400v200h400v200h100v-100h100v-100z" />
    <glyph glyph-name="arrowdown" unicode="&#x2193;" 
d="M700 200v-100h-100v-100h-100v-100h-200v100h-100v100h-100v100h200v400h200v-400h200z" />
    <glyph glyph-name="arrowboth" unicode="&#x2194;" 
d="M700 400h100v-200h-100v-100h-100v-100h-100v200h-100v-200h-100v100h-100v100h-100v200h100v100h100v100h100v-200h100v200h100v-100h100v-100z" />
    <glyph glyph-name="arrowupdn" unicode="&#x2195;" 
d="M700 400v-100h-200v-100h200v-100h-100v-100h-100v-100h-200v100h-100v100h-100v100h200v100h-200v100h100v100h100v100h200v-100h100v-100h100z" />
    <glyph glyph-name="uni2196" unicode="&#x2196;" 
d="M500 100h-100v100h-100v-100h-200v500h500v-200h-100v-100h100v-100h100v-100h100v-200h-200v100h-100v100z" />
    <glyph glyph-name="uni2197" unicode="&#x2197;" 
d="M500 100h-100v-100h-100v-100h-200v200h100v100h100v100h100v100h-100v200h500v-500h-200v100h-100v-100z" />
    <glyph glyph-name="uni2198" unicode="&#x2198;" 
d="M600 300v100h200v-500h-500v200h100v100h-100v100h-100v100h-100v200h200v-100h100v-100h100v-100h100z" />
    <glyph glyph-name="uni2199" unicode="&#x2199;" 
d="M500 100h100v-200h-500v500h200v-100h100v100h100v100h100v100h200v-200h-100v-100h-100v-100h-100v-100z" />
    <glyph glyph-name="uni219A" unicode="&#x219a;" 
d="M700 400h100v-200h-100v-100h-100v-100h-100v200h-100v-200h-100v100h-100v100h-100v200h100v100h100v100h100v-200h100v100h100v100h100v-200z" />
    <glyph glyph-name="uni219B" unicode="&#x219b;" 
d="M700 400h100v-200h-100v-100h-100v-100h-100v200h-100v-100h-100v-100h-100v200h-100v200h100v100h100v100h100v-200h100v200h100v-100h100v-100z" />
    <glyph glyph-name="uni219C" unicode="&#x219c;" 
d="M500 100h-100v-100h-100v100h-100v100h-100v200h100v100h100v100h100v-300h100v100h100v100h100v-100h100v-200h-100v100h-100v-100h-100v-100z" />
    <glyph glyph-name="uni219D" unicode="&#x219d;" 
d="M500 100h-100v100h-100v100h-100v-100h-100v200h100v100h100v-100h100v-100h100v300h100v-100h100v-100h100v-200h-100v-100h-100v-100h-100v100z" />
    <glyph glyph-name="uni219E" unicode="&#x219e;" 
d="M500 100v100h-100v-200h-100v100h-100v100h-100v200h100v100h100v100h100v-200h100v100h100v100h100v-200h100v-200h-100v-200h-100v100h-100z" />
    <glyph glyph-name="uni219F" unicode="&#x219f;" 
d="M700 400v-100h-200v-100h100v-100h100v-100h-200v-100h-200v100h-200v100h100v100h100v100h-200v100h100v100h100v100h200v-100h100v-100h100z" />
    <glyph glyph-name="uni21A0" unicode="&#x21a0;" 
d="M700 400h100v-200h-100v-100h-100v-100h-100v200h-100v-100h-100v-100h-100v200h-100v200h100v200h100v-100h100v-100h100v200h100v-100h100v-100z" />
    <glyph glyph-name="uni21A1" unicode="&#x21a1;" 
d="M700 400h-100v-100h-100v-100h200v-100h-100v-100h-100v-100h-200v100h-100v100h-100v100h200v100h-100v100h-100v100h200v100h200v-100h200v-100z" />
    <glyph glyph-name="uni21A2" unicode="&#x21a2;" 
d="M700 400v-200h100v-200h-100v100h-100v100h-200v-200h-100v100h-100v100h-100v200h100v100h100v100h100v-200h200v100h100v100h100v-200h-100z" />
    <glyph glyph-name="uni21A3" unicode="&#x21a3;" 
d="M700 400h100v-200h-100v-100h-100v-100h-100v200h-200v-100h-100v-100h-100v200h100v200h-100v200h100v-100h100v-100h200v200h100v-100h100v-100z" />
    <glyph glyph-name="uni21A4" unicode="&#x21a4;" 
d="M800 600v-600h-200v200h-200v-200h-100v100h-100v100h-100v200h100v100h100v100h100v-200h200v200h200z" />
    <glyph glyph-name="uni21A5" unicode="&#x21a5;" 
d="M500 100h200v-200h-600v200h200v200h-200v100h100v100h100v100h200v-100h100v-100h100v-100h-200v-200z" />
    <glyph glyph-name="uni21A6" unicode="&#x21a6;" 
d="M700 400h100v-200h-100v-100h-100v-100h-100v200h-200v-200h-200v600h200v-200h200v200h100v-100h100v-100z" />
    <glyph glyph-name="uni21A7" unicode="&#x21a7;" 
d="M700 400h-200v-200h200v-100h-100v-100h-100v-100h-200v100h-100v100h-100v100h200v200h-200v200h600v-200z" />
    <glyph glyph-name="arrowupdnbse" unicode="&#x21a8;" 
d="M700 400h-200v-100h200v-100h-100v-100h100v-200h-600v200h100v100h-100v100h200v100h-200v100h100v100h100v100h200v-100h100v-100h100v-100z" />
    <glyph glyph-name="uni21A9" unicode="&#x21a9;" 
d="M700 200h-300v-200h-100v100h-100v100h-100v200h100v100h100v100h100v-200h200v200h200v-300h-100v-100z" />
    <glyph glyph-name="uni21AA" unicode="&#x21aa;" 
d="M700 400h100v-200h-100v-100h-100v-100h-100v200h-300v100h-100v300h200v-200h200v200h100v-100h100v-100z" />
    <glyph glyph-name="uni21AB" unicode="&#x21ab;" 
d="M700 400h100v-200h-100v-200h-200v200h-100v-200h-100v100h-100v100h-100v200h100v100h100v100h100v-200h100v100h200v-100z" />
    <glyph glyph-name="uni21AC" unicode="&#x21ac;" 
d="M700 400h100v-200h-100v-100h-100v-100h-100v200h-100v-200h-200v200h-100v200h100v100h200v-100h100v200h100v-100h100v-100z" />
    <glyph glyph-name="uni21B0" unicode="&#x21b0;" 
d="M600 300v400h200v-600h-400v-200h-100v100h-100v100h-100v200h100v100h100v100h100v-200h200z" />
    <glyph glyph-name="uni21B1" unicode="&#x21b1;" 
d="M500 100h-400v600h200v-400h200v200h100v-100h100v-100h100v-200h-100v-100h-100v-100h-100v200z" />
    <glyph glyph-name="uni21B2" unicode="&#x21b2;" 
d="M600 300h-200v-200h-100v100h-100v100h-100v200h100v100h100v100h100v-200h400v-600h-200v400z" />
    <glyph glyph-name="uni21B3" unicode="&#x21b3;" 
d="M500 100v200h-200v-400h-200v600h400v200h100v-100h100v-100h100v-200h-100v-100h-100v-100h-100z" />
    <glyph glyph-name="uni21B4" unicode="&#x21b4;" 
d="M800 200v-100h-100v-100h-100v-100h-200v100h-100v100h-100v100h200v200h-300v200h500v-400h200z" />
    <glyph glyph-name="uni21B5" unicode="&#x21b5;" 
d="M800 200h-400v-200h-100v100h-100v100h-100v200h100v100h100v100h100v-200h200v200h200v-400z" />
    <glyph glyph-name="uni21D0" unicode="&#x21d0;" 
d="M400 100v-100h-100v100h-100v100h600v-100h-400zM300 500h100v-100h400v-100h-600v100h100v100zM100 200v100h100v-100h-100z" />
    <glyph glyph-name="uni21D1" unicode="&#x21d1;" 
d="M600 300v-400h-100v600h100v-100h100v-100h-100zM300 300h-100v100h100v100h100v-600h-100v400zM400 500v100h100v-100h-100z" />
    <glyph glyph-name="uni21D2" unicode="&#x21d2;" 
d="M500 100h-400v100h600v-100h-100v-100h-100v100zM700 400v-100h-600v100h400v100h100v-100h100zM700 200v100h100v-100h-100z" />
    <glyph glyph-name="uni21D3" unicode="&#x21d3;" 
d="M700 200v-100h-100v-100h-100v600h100v-400h100zM500 -100h-100v100h100v-100zM400 0h-100v100h-100v100h100v400h100v-600z" />
    <glyph glyph-name="uni21D4" unicode="&#x21d4;" 
d="M500 100h-100v-100h-100v100h-100v100h500v-100h-100v-100h-100v100zM700 400v-100h-500v100h100v100h100v-100h100v100h100v-100h100zM700 200v100h100v-100h-100zM200 200h-100v100h100v-100z" />
    <glyph glyph-name="uni21D5" unicode="&#x21d5;" 
d="M600 300v-100h100v-100h-100v-100h-100v500h100v-100h100v-100h-100zM300 300h-100v100h100v100h100v-500h-100v100h-100v100h100v100zM500 -100h-100v100h100v-100zM500 500h-100v100h100v-100z" />
    <glyph glyph-name="uni21D6" unicode="&#x21d6;" 
d="M500 100h100v-100h-100v100zM600 300v-100h-100v100h100zM700 200v-100h-100v100h100zM300 300h100v-100h-100v100zM300 500h-100v-100h100v-100h-100v-100h-100v400h400v-100h-100v-100h-100v100zM500 300h-100v100h100v-100zM700 0v-100h-100v100h100zM800 0h-100v100
h100v-100zM400 200h100v-100h-100v100z" />
    <glyph glyph-name="uni21D7" unicode="&#x21d7;" 
d="M500 100h-100v100h100v-100zM700 400v100h-100v-100h-100v100h-100v100h400v-400h-100v100h-100v100h100zM600 300v-100h-100v100h100zM300 300h100v-100h-100v100zM200 0h-100v100h100v-100zM400 0h-100v100h100v-100zM500 300h-100v100h100v-100zM300 100h-100v100h100
v-100zM300 -100h-100v100h100v-100z" />
    <glyph glyph-name="uni21D8" unicode="&#x21d8;" 
d="M500 100h100v-100h100v100h-100v100h100v100h100v-400h-400v100h100v100zM600 300v-100h-100v100h100zM300 300h100v-100h-100v100zM300 500h100v-100h-100v100zM300 600v-100h-100v100h100zM500 300h-100v100h100v-100zM200 400h-100v100h100v-100zM400 200h100v-100
h-100v100zM300 400v-100h-100v100h100z" />
    <glyph glyph-name="uni21D9" unicode="&#x21d9;" 
d="M500 100h-100v100h100v-100zM700 400v100h100v-100h-100zM600 300v-100h-100v100h100zM100 -100v400h100v-100h100v-100h-100v-100h100v100h100v-100h100v-100h-400zM600 500v100h100v-100h-100zM300 300h100v-100h-100v100zM500 300h-100v100h100v-100zM500 500h100
v-100h-100v100zM600 400h100v-100h-100v100z" />
    <glyph glyph-name="uni21DE" unicode="&#x21de;" 
d="M500 100h200v-100h-200v-100h-200v100h-200v100h200v100h-200v100h200v100h-200v100h100v100h100v100h200v-100h100v-100h100v-100h-200v-100h200v-100h-200v-100z" />
    <glyph glyph-name="uni21DF" unicode="&#x21df;" 
d="M700 400v-100h-200v-100h200v-100h-100v-100h-100v-100h-200v100h-100v100h-100v100h200v100h-200v100h200v100h-200v100h200v100h200v-100h200v-100h-200v-100h200z" />
    <glyph glyph-name="uni21E0" unicode="&#x21e0;" 
d="M700 400h100v-200h-100v200zM300 500v100h100v-600h-100v100h-100v100h-100v200h100v100h100zM600 200h-100v200h100v-200z" />
    <glyph glyph-name="uni21E1" unicode="&#x21e1;" 
d="M500 100h-200v100h200v-100zM700 400v-100h-600v100h100v100h100v100h200v-100h100v-100h100zM500 -100h-200v100h200v-100z" />
    <glyph glyph-name="uni21E2" unicode="&#x21e2;" 
d="M700 400h100v-200h-100v-100h-100v-100h-100v600h100v-100h100v-100zM300 200v200h100v-200h-100zM100 400h100v-200h-100v200z" />
    <glyph glyph-name="uni21E3" unicode="&#x21e3;" 
d="M700 200v-100h-100v-100h-100v-100h-200v100h-100v100h-100v100h600zM300 300v100h200v-100h-200zM300 500v100h200v-100h-200z" />
    <glyph glyph-name="uni21E4" unicode="&#x21e4;" 
d="M500 100h-100v100h-100v-200h-200v600h200v-200h100v100h100v100h100v-200h200v-200h-200v-200h-100v100z" />
    <glyph glyph-name="uni21E5" unicode="&#x21e5;" 
d="M500 100h-100v-100h-100v200h-200v200h200v200h100v-100h100v-100h100v200h200v-600h-200v200h-100v-100z" />
    <glyph glyph-name="partialdiff" unicode="&#x2202;" 
d="M500 100v300h-200v-300h200zM700 600v-500h-100v-100h-400v100h-100v300h100v100h300v100h-200v100h300v-100h100z" />
    <glyph glyph-name="Delta" unicode="&#x2206;" 
d="M500 700v-100h100v-200h100v-200h100v-200h-700v200h100v200h100v200h100v100h100zM600 200h-100v200h-100v-200h-100v-100h300v100z" />
    <glyph glyph-name="uni2207" unicode="&#x2207;" 
d="M500 100v-100h-100v100h-100v200h-100v200h-100v200h700v-200h-100v-200h-100v-200h-100zM600 500v100h-300v-100h100v-200h100v200h100z" />
    <glyph glyph-name="product" unicode="&#x220f;" 
d="M700 0h-200v600h-100v-600h-200v600h-100v100h700v-100h-100v-600z" />
    <glyph glyph-name="uni2210" unicode="&#x2210;" 
d="M500 100v600h200v-600h100v-100h-700v100h100v600h200v-600h100z" />
    <glyph glyph-name="summation" unicode="&#x2211;" 
d="M600 300h-100v-100h-100v-100h200v100h200v-200h-700v100h100v100h100v100h100v100h-100v100h-100v100h-100v100h700v-200h-200v100h-200v-100h100v-100h100v-100z" />
    <glyph glyph-name="minus" unicode="&#x2212;" 
d="M700 400v-100h-600v100h600z" />
    <glyph glyph-name="radical" unicode="&#x221a;" 
d="M200 0v100h-100v100h-100v100h200v-100h100v500h500v-100h-300v-600h-300z" />
    <glyph glyph-name="infinity" unicode="&#x221e;" 
d="M700 400h100v-200h-100v-100h-300v100h-100v200h-100v-200h100v-100h-200v100h-100v200h100v100h300v-100h100v-200h100v200h-100v100h200v-100z" />
    <glyph glyph-name="integral" unicode="&#x222b;" 
d="M400 500v100h300v-100h-200v-500h-100v-100h-300v100h200v500h100z" />
    <glyph glyph-name="approxequal" unicode="&#x2248;" 
d="M700 400h-300v100h-100v-100h-200v100h100v100h300v-100h100v100h200v-100h-100v-100zM600 300h200v-100h-100v-100h-300v100h-100v-100h-200v100h100v100h300v-100h100v100z" />
    <glyph glyph-name="notequal" unicode="&#x2260;" 
d="M700 400h-200v-100h200v-100h-300v-100h-200v100h-100v100h200v100h-200v100h300v100h200v-100h100v-100z" />
    <glyph glyph-name="lessequal" unicode="&#x2264;" 
d="M100 0v100h300v100h-100v100h-100v100h100v100h100v100h200v-100h-100v-100h-100v-100h100v-100h100v-100h200v-100h-700z" />
    <glyph glyph-name="greaterequal" unicode="&#x2265;" 
d="M500 100h300v-100h-700v100h200v100h100v100h100v100h-100v100h-100v100h200v-100h100v-100h100v-100h-100v-100h-100v-100z" />
    <glyph glyph-name="SF100000" unicode="&#x2500;" 
d="M0 200v200h800v-200h-800z" />
    <glyph glyph-name="uni2501" unicode="&#x2501;" 
d="M0 200v200h800v-200h-800z" />
    <glyph glyph-name="SF110000" unicode="&#x2502;" 
d="M500 700v-800h-200v800h200z" />
    <glyph glyph-name="uni2503" unicode="&#x2503;" 
d="M500 700v-800h-200v800h200z" />
    <glyph glyph-name="uni2504" unicode="&#x2504;" 
d="M100 400h200v-200h-200v200zM800 200h-200v200h200v-200zM500 200h-100v200h100v-200z" />
    <glyph glyph-name="uni2505" unicode="&#x2505;" 
d="M100 400h200v-200h-200v200zM800 200h-200v200h200v-200zM500 200h-100v200h100v-200z" />
    <glyph glyph-name="uni2506" unicode="&#x2506;" 
d="M500 300h-200v100h200v-100zM500 700v-200h-200v200h200zM500 0h-200v200h200v-200z" />
    <glyph glyph-name="uni2507" unicode="&#x2507;" 
d="M500 300h-200v100h200v-100zM500 700v-200h-200v200h200zM500 0h-200v200h200v-200z" />
    <glyph glyph-name="uni2508" unicode="&#x2508;" 
d="M700 400h100v-200h-100v200zM600 200h-100v200h100v-200zM300 200v200h100v-200h-100zM100 400h100v-200h-100v200z" />
    <glyph glyph-name="uni2509" unicode="&#x2509;" 
d="M700 400h100v-200h-100v200zM600 200h-100v200h100v-200zM300 200v200h100v-200h-100zM100 400h100v-200h-100v200z" />
    <glyph glyph-name="uni250A" unicode="&#x250a;" 
d="M500 100v-100h-200v100h200zM500 700v-100h-200v100h200zM300 300h200v-100h-200v100zM300 500h200v-100h-200v100z" />
    <glyph glyph-name="uni250B" unicode="&#x250b;" 
d="M500 100v-100h-200v100h200zM500 700v-100h-200v100h200zM300 300h200v-100h-200v100zM300 500h200v-100h-200v100z" />
    <glyph glyph-name="SF010000" unicode="&#x250c;" 
d="M800 200h-300v-300h-200v500h500v-200z" />
    <glyph glyph-name="uni250D" unicode="&#x250d;" 
d="M800 200h-300v-300h-200v500h500v-200z" />
    <glyph glyph-name="uni250E" unicode="&#x250e;" 
d="M800 200h-300v-300h-200v500h500v-200z" />
    <glyph glyph-name="uni250F" unicode="&#x250f;" 
d="M800 200h-300v-300h-200v500h500v-200z" />
    <glyph glyph-name="SF030000" unicode="&#x2510;" 
d="M0 200v200h500v-500h-200v300h-300z" />
    <glyph glyph-name="uni2511" unicode="&#x2511;" 
d="M0 200v200h500v-500h-200v300h-300z" />
    <glyph glyph-name="uni2512" unicode="&#x2512;" 
d="M0 200v200h500v-500h-200v300h-300z" />
    <glyph glyph-name="uni2513" unicode="&#x2513;" 
d="M0 200v200h500v-500h-200v300h-300z" />
    <glyph glyph-name="SF020000" unicode="&#x2514;" 
d="M500 700v-300h300v-200h-500v500h200z" />
    <glyph glyph-name="uni2515" unicode="&#x2515;" 
d="M500 700v-300h300v-200h-500v500h200z" />
    <glyph glyph-name="uni2516" unicode="&#x2516;" 
d="M500 700v-300h300v-200h-500v500h200z" />
    <glyph glyph-name="uni2517" unicode="&#x2517;" 
d="M500 700v-300h300v-200h-500v500h200z" />
    <glyph glyph-name="SF040000" unicode="&#x2518;" 
d="M0 200v200h300v300h200v-500h-500z" />
    <glyph glyph-name="uni2519" unicode="&#x2519;" 
d="M0 200v200h300v300h200v-500h-500z" />
    <glyph glyph-name="uni251A" unicode="&#x251a;" 
d="M0 200v200h300v300h200v-500h-500z" />
    <glyph glyph-name="uni251B" unicode="&#x251b;" 
d="M0 200v200h300v300h200v-500h-500z" />
    <glyph glyph-name="SF080000" unicode="&#x251c;" 
d="M500 700v-300h300v-200h-300v-300h-200v800h200z" />
    <glyph glyph-name="uni251D" unicode="&#x251d;" 
d="M500 700v-300h300v-200h-300v-300h-200v800h200z" />
    <glyph glyph-name="uni251E" unicode="&#x251e;" 
d="M500 700v-300h300v-200h-300v-300h-200v800h200z" />
    <glyph glyph-name="uni251F" unicode="&#x251f;" 
d="M500 700v-300h300v-200h-300v-300h-200v800h200z" />
    <glyph glyph-name="uni2520" unicode="&#x2520;" 
d="M500 700v-300h300v-200h-300v-300h-200v800h200z" />
    <glyph glyph-name="uni2521" unicode="&#x2521;" 
d="M500 700v-300h300v-200h-300v-300h-200v800h200z" />
    <glyph glyph-name="uni2522" unicode="&#x2522;" 
d="M500 700v-300h300v-200h-300v-300h-200v800h200z" />
    <glyph glyph-name="uni2523" unicode="&#x2523;" 
d="M500 700v-300h300v-200h-300v-300h-200v800h200z" />
    <glyph glyph-name="SF090000" unicode="&#x2524;" 
d="M0 200v200h300v300h200v-800h-200v300h-300z" />
    <glyph glyph-name="uni2525" unicode="&#x2525;" 
d="M0 200v200h300v300h200v-800h-200v300h-300z" />
    <glyph glyph-name="uni2526" unicode="&#x2526;" 
d="M0 200v200h300v300h200v-800h-200v300h-300z" />
    <glyph glyph-name="uni2527" unicode="&#x2527;" 
d="M0 200v200h300v300h200v-800h-200v300h-300z" />
    <glyph glyph-name="uni2528" unicode="&#x2528;" 
d="M0 200v200h300v300h200v-800h-200v300h-300z" />
    <glyph glyph-name="uni2529" unicode="&#x2529;" 
d="M0 200v200h300v300h200v-800h-200v300h-300z" />
    <glyph glyph-name="uni252A" unicode="&#x252a;" 
d="M0 200v200h300v300h200v-800h-200v300h-300z" />
    <glyph glyph-name="uni252B" unicode="&#x252b;" 
d="M0 200v200h300v300h200v-800h-200v300h-300z" />
    <glyph glyph-name="SF060000" unicode="&#x252c;" 
d="M0 200v200h800v-200h-300v-300h-200v300h-300z" />
    <glyph glyph-name="uni252D" unicode="&#x252d;" 
d="M0 200v200h800v-200h-300v-300h-200v300h-300z" />
    <glyph glyph-name="uni252E" unicode="&#x252e;" 
d="M0 200v200h800v-200h-300v-300h-200v300h-300z" />
    <glyph glyph-name="uni252F" unicode="&#x252f;" 
d="M0 200v200h800v-200h-300v-300h-200v300h-300z" />
    <glyph glyph-name="uni2530" unicode="&#x2530;" 
d="M0 200v200h800v-200h-300v-300h-200v300h-300z" />
    <glyph glyph-name="uni2531" unicode="&#x2531;" 
d="M0 200v200h800v-200h-300v-300h-200v300h-300z" />
    <glyph glyph-name="uni2532" unicode="&#x2532;" 
d="M0 200v200h800v-200h-300v-300h-200v300h-300z" />
    <glyph glyph-name="uni2533" unicode="&#x2533;" 
d="M0 200v200h800v-200h-300v-300h-200v300h-300z" />
    <glyph glyph-name="SF070000" unicode="&#x2534;" 
d="M0 200v200h300v300h200v-300h300v-200h-800z" />
    <glyph glyph-name="uni2535" unicode="&#x2535;" 
d="M0 200v200h300v300h200v-300h300v-200h-800z" />
    <glyph glyph-name="uni2536" unicode="&#x2536;" 
d="M0 200v200h300v300h200v-300h300v-200h-800z" />
    <glyph glyph-name="uni2537" unicode="&#x2537;" 
d="M0 200v200h300v300h200v-300h300v-200h-800z" />
    <glyph glyph-name="uni2538" unicode="&#x2538;" 
d="M0 200v200h300v300h200v-300h300v-200h-800z" />
    <glyph glyph-name="uni2539" unicode="&#x2539;" 
d="M0 200v200h300v300h200v-300h300v-200h-800z" />
    <glyph glyph-name="uni253A" unicode="&#x253a;" 
d="M0 200v200h300v300h200v-300h300v-200h-800z" />
    <glyph glyph-name="uni253B" unicode="&#x253b;" 
d="M0 200v200h300v300h200v-300h300v-200h-800z" />
    <glyph glyph-name="SF050000" unicode="&#x253c;" 
d="M0 200v200h300v300h200v-300h300v-200h-300v-300h-200v300h-300z" />
    <glyph glyph-name="uni253D" unicode="&#x253d;" 
d="M0 200v200h300v300h200v-300h300v-200h-300v-300h-200v300h-300z" />
    <glyph glyph-name="uni253E" unicode="&#x253e;" 
d="M0 200v200h300v300h200v-300h300v-200h-300v-300h-200v300h-300z" />
    <glyph glyph-name="uni253F" unicode="&#x253f;" 
d="M0 200v200h300v300h200v-300h300v-200h-300v-300h-200v300h-300z" />
    <glyph glyph-name="uni2540" unicode="&#x2540;" 
d="M0 200v200h300v300h200v-300h300v-200h-300v-300h-200v300h-300z" />
    <glyph glyph-name="uni2541" unicode="&#x2541;" 
d="M0 200v200h300v300h200v-300h300v-200h-300v-300h-200v300h-300z" />
    <glyph glyph-name="uni2542" unicode="&#x2542;" 
d="M0 200v200h300v300h200v-300h300v-200h-300v-300h-200v300h-300z" />
    <glyph glyph-name="uni2543" unicode="&#x2543;" 
d="M0 200v200h300v300h200v-300h300v-200h-300v-300h-200v300h-300z" />
    <glyph glyph-name="uni2544" unicode="&#x2544;" 
d="M0 200v200h300v300h200v-300h300v-200h-300v-300h-200v300h-300z" />
    <glyph glyph-name="uni2545" unicode="&#x2545;" 
d="M0 200v200h300v300h200v-300h300v-200h-300v-300h-200v300h-300z" />
    <glyph glyph-name="uni2546" unicode="&#x2546;" 
d="M0 200v200h300v300h200v-300h300v-200h-300v-300h-200v300h-300z" />
    <glyph glyph-name="uni2547" unicode="&#x2547;" 
d="M0 200v200h300v300h200v-300h300v-200h-300v-300h-200v300h-300z" />
    <glyph glyph-name="uni2548" unicode="&#x2548;" 
d="M0 200v200h300v300h200v-300h300v-200h-300v-300h-200v300h-300z" />
    <glyph glyph-name="uni2549" unicode="&#x2549;" 
d="M0 200v200h300v300h200v-300h300v-200h-300v-300h-200v300h-300z" />
    <glyph glyph-name="uni254A" unicode="&#x254a;" 
d="M0 200v200h300v300h200v-300h300v-200h-300v-300h-200v300h-300z" />
    <glyph glyph-name="uni254B" unicode="&#x254b;" 
d="M0 200v200h300v300h200v-300h300v-200h-300v-300h-200v300h-300z" />
    <glyph glyph-name="uni254C" unicode="&#x254c;" 
d="M100 400h300v-200h-300v200zM800 200h-300v200h300v-200z" />
    <glyph glyph-name="uni254D" unicode="&#x254d;" 
d="M100 400h300v-200h-300v200zM800 200h-300v200h300v-200z" />
    <glyph glyph-name="uni254E" unicode="&#x254e;" 
d="M500 300v-300h-200v300h200zM500 700v-300h-200v300h200z" />
    <glyph glyph-name="uni254F" unicode="&#x254f;" 
d="M500 300v-300h-200v300h200zM500 700v-300h-200v300h200z" />
    <glyph glyph-name="SF430000" unicode="&#x2550;" 
d="M0 200h800v-100h-800v100zM0 400h800v-100h-800v100z" />
    <glyph glyph-name="SF240000" unicode="&#x2551;" 
d="M600 700v-800h-100v800h100zM400 700v-800h-100v800h100z" />
    <glyph glyph-name="SF510000" unicode="&#x2552;" 
d="M500 100v-200h-200v500h500v-100h-300v-100h300v-100h-300z" />
    <glyph glyph-name="SF520000" unicode="&#x2553;" 
d="M800 200h-200v-300h-100v300h-100v-300h-100v500h500v-200z" />
    <glyph glyph-name="SF390000" unicode="&#x2554;" 
d="M600 100v-200h-100v300h300v-100h-200zM400 300v-400h-100v500h500v-100h-400z" />
    <glyph glyph-name="SF220000" unicode="&#x2555;" 
d="M0 200h300v100h-300v100h500v-500h-200v200h-300v100z" />
    <glyph glyph-name="SF210000" unicode="&#x2556;" 
d="M0 200v200h600v-500h-100v300h-100v-300h-100v300h-300z" />
    <glyph glyph-name="SF250000" unicode="&#x2557;" 
d="M500 300h-500v100h600v-500h-100v400zM0 200h400v-300h-100v200h-300v100z" />
    <glyph glyph-name="SF500000" unicode="&#x2558;" 
d="M500 300v-100h300v-100h-500v600h200v-300h300v-100h-300z" />
    <glyph glyph-name="SF490000" unicode="&#x2559;" 
d="M600 700v-300h200v-200h-500v500h100v-300h100v300h100z" />
    <glyph glyph-name="SF380000" unicode="&#x255a;" 
d="M500 300v400h100v-300h200v-100h-300zM400 700v-500h400v-100h-500v600h100z" />
    <glyph glyph-name="SF280000" unicode="&#x255b;" 
d="M500 100h-500v100h400v100h-400v100h300v300h200v-600z" />
    <glyph glyph-name="SF270000" unicode="&#x255c;" 
d="M500 300v400h100v-500h-600v200h300v300h100v-400h100z" />
    <glyph glyph-name="SF260000" unicode="&#x255d;" 
d="M600 700v-600h-600v100h500v500h100zM400 300h-400v100h300v300h100v-400z" />
    <glyph glyph-name="SF360000" unicode="&#x255e;" 
d="M500 100v-200h-200v800h200v-300h300v-100h-300v-100h300v-100h-300z" />
    <glyph glyph-name="SF370000" unicode="&#x255f;" 
d="M600 700v-300h200v-200h-200v-300h-100v800h100zM400 700v-800h-100v800h100z" />
    <glyph glyph-name="SF420000" unicode="&#x2560;" 
d="M500 700h100v-300h200v-100h-300v400zM400 700v-800h-100v800h100zM800 200v-100h-200v-200h-100v300h300z" />
    <glyph glyph-name="SF190000" unicode="&#x2561;" 
d="M0 200h300v100h-300v100h300v300h200v-800h-200v200h-300v100z" />
    <glyph glyph-name="SF200000" unicode="&#x2562;" 
d="M600 700v-800h-100v800h100zM0 200v200h300v300h100v-800h-100v300h-300z" />
    <glyph glyph-name="SF230000" unicode="&#x2563;" 
d="M500 700h100v-800h-100v800zM400 700v-400h-400v100h300v300h100zM0 100v100h400v-300h-100v200h-300z" />
    <glyph glyph-name="SF470000" unicode="&#x2564;" 
d="M500 100v-200h-200v200h-300v100h800v-100h-300zM0 400h800v-100h-800v100z" />
    <glyph glyph-name="SF480000" unicode="&#x2565;" 
d="M0 200v200h800v-200h-200v-300h-100v300h-100v-300h-100v300h-300z" />
    <glyph glyph-name="SF410000" unicode="&#x2566;" 
d="M800 200v-100h-200v-200h-100v300h300zM800 400v-100h-800v100h800zM0 100v100h400v-300h-100v200h-300z" />
    <glyph glyph-name="SF450000" unicode="&#x2567;" 
d="M0 200h800v-100h-800v100zM500 700v-300h300v-100h-800v100h300v300h200z" />
    <glyph glyph-name="SF460000" unicode="&#x2568;" 
d="M600 700v-300h200v-200h-800v200h300v300h100v-300h100v300h100z" />
    <glyph glyph-name="SF400000" unicode="&#x2569;" 
d="M500 700h100v-300h200v-100h-300v400zM400 700v-400h-400v100h300v300h100zM800 200v-100h-800v100h800z" />
    <glyph glyph-name="SF540000" unicode="&#x256a;" 
d="M500 100v-200h-200v200h-300v100h300v100h-300v100h300v300h200v-300h300v-100h-300v-100h300v-100h-300z" />
    <glyph glyph-name="SF530000" unicode="&#x256b;" 
d="M500 700h100v-300h200v-200h-200v-300h-100v300h-100v-300h-100v300h-300v200h300v300h100v-300h100v300z" />
    <glyph glyph-name="SF440000" unicode="&#x256c;" 
d="M500 700h100v-300h200v-100h-300v400zM400 700v-400h-400v100h300v300h100zM800 200v-100h-200v-200h-100v300h300zM0 100v100h400v-300h-100v200h-300z" />
    <glyph glyph-name="uni256D" unicode="&#x256d;" 
d="M500 100v-200h-200v300h100v100h100v100h300v-200h-200v-100h-100z" />
    <glyph glyph-name="uni256E" unicode="&#x256e;" 
d="M0 200v200h300v-100h100v-100h100v-300h-200v200h-100v100h-200z" />
    <glyph glyph-name="uni256F" unicode="&#x256f;" 
d="M0 200v200h200v100h100v200h200v-300h-100v-100h-100v-100h-300z" />
    <glyph glyph-name="uni2570" unicode="&#x2570;" 
d="M500 300h-100v100h-100v300h200v-200h100v-100h200v-200h-300v100z" />
    <glyph glyph-name="uni2571" unicode="&#x2571;" 
d="M700 400h-100v-100h-100v-100h-100v-100h-100v-100h-100v-100h-200v200h100v100h100v100h100v100h100v100h100v100h100v100h200v-200h-100v-100z" />
    <glyph glyph-name="uni2572" unicode="&#x2572;" 
d="M500 100h-100v100h-100v100h-100v100h-100v100h-100v200h200v-100h100v-100h100v-100h100v-100h100v-100h100v-100h100v-200h-200v100h-100v100z" />
    <glyph glyph-name="uni2573" unicode="&#x2573;" 
d="M500 100h-200v-100h-100v-100h-200v200h100v100h100v200h-100v100h-100v200h200v-100h100v-100h200v100h100v100h200v-200h-100v-100h-100v-200h100v-100h100v-200h-200v100h-100v100z" />
    <glyph glyph-name="uni2574" unicode="&#x2574;" 
d="M0 200v200h500v-200h-500z" />
    <glyph glyph-name="uni2575" unicode="&#x2575;" 
d="M500 700v-500h-200v500h200z" />
    <glyph glyph-name="uni2576" unicode="&#x2576;" 
d="M800 200h-500v200h500v-200z" />
    <glyph glyph-name="uni2577" unicode="&#x2577;" 
d="M500 -100h-200v500h200v-500z" />
    <glyph glyph-name="uni2578" unicode="&#x2578;" 
d="M0 200v200h500v-200h-500z" />
    <glyph glyph-name="uni2579" unicode="&#x2579;" 
d="M500 700v-500h-200v500h200z" />
    <glyph glyph-name="uni257A" unicode="&#x257a;" 
d="M800 200h-500v200h500v-200z" />
    <glyph glyph-name="uni257B" unicode="&#x257b;" 
d="M500 -100h-200v500h200v-500z" />
    <glyph glyph-name="uni257C" unicode="&#x257c;" 
d="M0 200v200h800v-200h-800z" />
    <glyph glyph-name="uni257D" unicode="&#x257d;" 
d="M500 700v-800h-200v800h200z" />
    <glyph glyph-name="uni257E" unicode="&#x257e;" 
d="M0 200v200h800v-200h-800z" />
    <glyph glyph-name="uni257F" unicode="&#x257f;" 
d="M500 700v-800h-200v800h200z" />
    <glyph glyph-name="upblock" unicode="&#x2580;" 
d="M0 300v400h800v-400h-800z" />
    <glyph glyph-name="uni2581" unicode="&#x2581;" 
d="M0 -100v200h800v-200h-800z" />
    <glyph glyph-name="uni2582" unicode="&#x2582;" 
d="M0 -100v200h800v-200h-800z" />
    <glyph glyph-name="uni2583" unicode="&#x2583;" 
d="M0 -100v300h800v-300h-800z" />
    <glyph glyph-name="dnblock" unicode="&#x2584;" 
d="M0 -100v400h800v-400h-800z" />
    <glyph glyph-name="uni2585" unicode="&#x2585;" 
d="M0 -100v500h800v-500h-800z" />
    <glyph glyph-name="uni2586" unicode="&#x2586;" 
d="M0 -100v600h800v-600h-800z" />
    <glyph glyph-name="uni2587" unicode="&#x2587;" 
d="M0 -100v700h800v-700h-800z" />
    <glyph glyph-name="block" unicode="&#x2588;" 
d="M0 -100v800h800v-800h-800z" />
    <glyph glyph-name="uni2589" unicode="&#x2589;" 
d="M0 -100v800h700v-800h-700z" />
    <glyph glyph-name="uni258A" unicode="&#x258a;" 
d="M0 -100v800h600v-800h-600z" />
    <glyph glyph-name="uni258B" unicode="&#x258b;" 
d="M0 -100v800h500v-800h-500z" />
    <glyph glyph-name="lfblock" unicode="&#x258c;" 
d="M0 -100v800h400v-800h-400z" />
    <glyph glyph-name="uni258D" unicode="&#x258d;" 
d="M0 -100v800h300v-800h-300z" />
    <glyph glyph-name="uni258E" unicode="&#x258e;" 
d="M0 -100v800h200v-800h-200z" />
    <glyph glyph-name="uni258F" unicode="&#x258f;" 
d="M0 -100v800h200v-800h-200z" />
    <glyph glyph-name="rtblock" unicode="&#x2590;" 
d="M400 700h400v-800h-400v800z" />
    <glyph glyph-name="ltshade" unicode="&#x2591;" 
d="M600 300h-200v200h200v-200zM400 100h200v-200h-200v200zM0 100v200h200v-200h-200zM0 700h200v-200h-200v200z" />
    <glyph glyph-name="shade" unicode="&#x2592;" 
d="M600 300v-200h-200v200h200zM400 100v-200h-200v200h200zM600 500h-200v200h200v-200zM0 100v200h200v-200h-200zM0 700h200v-200h-200v200zM800 300h-200v200h200v-200zM400 500v-200h-200v200h200zM600 100h200v-200h-200v200z" />
    <glyph glyph-name="dkshade" unicode="&#x2593;" 
d="M0 -100v800h600v-200h200v-200h-200v-200h200v-200h-400v200h-200v-200h-200zM400 500h-200v-200h200v200z" />
    <glyph glyph-name="uni2594" unicode="&#x2594;" 
d="M0 700h800v-200h-800v200z" />
    <glyph glyph-name="uni2595" unicode="&#x2595;" 
d="M600 700h200v-800h-200v800z" />
    <glyph glyph-name="uni2596" unicode="&#x2596;" 
d="M0 -100v400h400v-400h-400z" />
    <glyph glyph-name="uni2597" unicode="&#x2597;" 
d="M400 300h400v-400h-400v400z" />
    <glyph glyph-name="uni2598" unicode="&#x2598;" 
d="M400 300h-400v400h400v-400z" />
    <glyph glyph-name="uni2599" unicode="&#x2599;" 
d="M0 -100v800h400v-400h400v-400h-800z" />
    <glyph glyph-name="uni259A" unicode="&#x259a;" 
d="M400 300h-400v400h400v-400zM800 -100h-400v400h400v-400z" />
    <glyph glyph-name="uni259B" unicode="&#x259b;" 
d="M0 -100v800h800v-400h-400v-400h-400z" />
    <glyph glyph-name="uni259C" unicode="&#x259c;" 
d="M400 300h-400v400h800v-800h-400v400z" />
    <glyph glyph-name="uni259D" unicode="&#x259d;" 
d="M400 300v400h400v-400h-400z" />
    <glyph glyph-name="uni259E" unicode="&#x259e;" 
d="M0 -100v400h400v-400h-400zM400 300v400h400v-400h-400z" />
    <glyph glyph-name="uni259F" unicode="&#x259f;" 
d="M0 -100v400h400v400h400v-800h-800z" />
    <glyph glyph-name="filledbox" unicode="&#x25a0;" 
d="M700 0h-600v600h600v-600z" />
    <glyph glyph-name="H22073" unicode="&#x25a1;" 
d="M700 0h-600v600h600v-600zM500 200v200h-200v-200h200z" />
    <glyph glyph-name="uni25A2" unicode="&#x25a2;" 
d="M600 500h100v-400h-100v-100h-400v100h-100v400h100v100h400v-100zM300 200h200v200h-200v-200z" />
    <glyph glyph-name="uni25A3" unicode="&#x25a3;" 
d="M600 100v400h-400v-400h400zM700 0h-600v600h600v-600zM500 200h-200v200h200v-200z" />
    <glyph glyph-name="uni25A7" unicode="&#x25a7;" 
d="M500 100h100v200h-100v100h100v100h-100v-100h-100v100h-200v-100h100v-100h-100v-200h200v100h100v-100zM300 300h100v-100h-100v100zM700 0h-600v600h600v-600z" />
    <glyph glyph-name="uni25A8" unicode="&#x25a8;" 
d="M600 300h-100v100h100v100h-200v-100h-100v100h-100v-100h100v-100h-100v-200h100v100h100v-100h200v200zM500 300v-100h-100v100h100zM700 0h-600v600h600v-600z" />
    <glyph glyph-name="uni25A9" unicode="&#x25a9;" 
d="M500 100v100h100v100h-100v100h100v100h-100v-100h-100v100h-100v-100h-100v-100h100v-100h-100v-100h100v100h100v-100h100zM300 300v100h100v-100h-100zM500 300v-100h-100v100h100zM700 0h-600v600h600v-600z" />
    <glyph glyph-name="H18543" unicode="&#x25aa;" 
d="M600 100h-400v400h400v-400z" />
    <glyph glyph-name="H18551" unicode="&#x25ab;" 
d="M600 100h-400v400h400v-400zM500 200v200h-200v-200h200z" />
    <glyph glyph-name="filledrect" unicode="&#x25ac;" 
d="M100 500h600v-400h-600v400z" />
    <glyph glyph-name="uni25AD" unicode="&#x25ad;" 
d="M100 500h600v-400h-600v400zM500 200v200h-200v-200h200z" />
    <glyph glyph-name="uni25AE" unicode="&#x25ae;" 
d="M200 600h400v-600h-400v600z" />
    <glyph glyph-name="uni25AF" unicode="&#x25af;" 
d="M200 600h400v-600h-400v600zM500 200v200h-200v-200h200z" />
    <glyph glyph-name="uni25B0" unicode="&#x25b0;" 
d="M100 100v200h100v200h600v-200h-100v-200h-600z" />
    <glyph glyph-name="uni25B1" unicode="&#x25b1;" 
d="M600 300v100h-200v-100h-100v-100h200v100h100zM100 100v200h100v200h600v-200h-100v-200h-600z" />
    <glyph glyph-name="triagup" unicode="&#x25b2;" 
d="M700 400v-200h100v-200h-700v200h100v200h100v200h100v100h100v-100h100v-200h100z" />
    <glyph glyph-name="uni25B3" unicode="&#x25b3;" 
d="M500 700v-100h100v-200h100v-200h100v-200h-700v200h100v200h100v200h100v100h100zM600 200h-100v200h-100v-200h-100v-100h300v100z" />
    <glyph glyph-name="uni25B4" unicode="&#x25b4;" 
d="M600 300h100v-200h-500v200h100v200h100v100h100v-100h100v-200z" />
    <glyph glyph-name="uni25B5" unicode="&#x25b5;" 
d="M600 300h100v-200h-500v200h100v200h100v100h100v-100h100v-200zM500 300h-100v-100h100v100z" />
    <glyph glyph-name="uni25B6" unicode="&#x25b6;" 
d="M500 100h-200v-100h-200v700h200v-100h200v-100h200v-100h100v-100h-100v-100h-200v-100z" />
    <glyph glyph-name="uni25B7" unicode="&#x25b7;" 
d="M500 100h-200v-100h-200v700h200v-100h200v-100h200v-100h100v-100h-100v-100h-200v-100zM300 300h200v100h-200v100h-100v-300h100v100z" />
    <glyph glyph-name="uni25B8" unicode="&#x25b8;" 
d="M600 300v-100h-200v-100h-200v500h200v-100h200v-100h100v-100h-100z" />
    <glyph glyph-name="uni25B9" unicode="&#x25b9;" 
d="M600 300v-100h-200v-100h-200v500h200v-100h200v-100h100v-100h-100zM300 300h100v100h-100v-100z" />
    <glyph glyph-name="triagrt" unicode="&#x25ba;" 
d="M600 300v-100h-300v-100h-200v500h200v-100h300v-100h200v-100h-200z" />
    <glyph glyph-name="uni25BB" unicode="&#x25bb;" 
d="M600 300v-100h-200v-100h-300v500h300v-100h200v-100h200v-100h-200zM400 300v100h-200v-100h200z" />
    <glyph glyph-name="triagdn" unicode="&#x25bc;" 
d="M500 100v-100h-100v100h-100v200h-100v200h-100v200h700v-200h-100v-200h-100v-200h-100z" />
    <glyph glyph-name="uni25BD" unicode="&#x25bd;" 
d="M500 100v-100h-100v100h-100v200h-100v200h-100v200h700v-200h-100v-200h-100v-200h-100zM600 500v100h-300v-100h100v-200h100v200h100z" />
    <glyph glyph-name="uni25BE" unicode="&#x25be;" 
d="M500 100h-100v100h-100v200h-100v200h500v-200h-100v-200h-100v-100z" />
    <glyph glyph-name="uni25BF" unicode="&#x25bf;" 
d="M500 100h-100v100h-100v200h-100v200h500v-200h-100v-200h-100v-100zM400 500v-100h100v100h-100z" />
    <glyph glyph-name="uni25C0" unicode="&#x25c0;" 
d="M400 100v100h-200v100h-100v100h100v100h200v100h200v100h200v-700h-200v100h-200z" />
    <glyph glyph-name="uni25C1" unicode="&#x25c1;" 
d="M600 300v-100h100v300h-100v-100h-200v-100h200zM400 100v100h-200v100h-100v100h100v100h200v100h200v100h200v-700h-200v100h-200z" />
    <glyph glyph-name="uni25C2" unicode="&#x25c2;" 
d="M500 100v100h-200v100h-100v100h100v100h200v100h200v-500h-200z" />
    <glyph glyph-name="uni25C3" unicode="&#x25c3;" 
d="M500 100v100h-200v100h-100v100h100v100h200v100h200v-500h-200zM600 300v100h-100v-100h100z" />
    <glyph glyph-name="triaglf" unicode="&#x25c4;" 
d="M600 100v100h-300v100h-200v100h200v100h300v100h200v-500h-200z" />
    <glyph glyph-name="uni25C5" unicode="&#x25c5;" 
d="M500 100v100h-200v100h-200v100h200v100h200v100h300v-500h-300zM700 400h-200v-100h200v100z" />
    <glyph glyph-name="uni25C6" unicode="&#x25c6;" 
d="M500 100v-100h-100v100h-100v100h-100v100h-100v100h100v100h100v100h100v100h100v-100h100v-100h100v-100h100v-100h-100v-100h-100v-100h-100z" />
    <glyph glyph-name="uni25C7" unicode="&#x25c7;" 
d="M500 100v-100h-100v100h-100v100h-100v100h-100v100h100v100h100v100h100v100h100v-100h100v-100h100v-100h100v-100h-100v-100h-100v-100h-100zM600 300v100h-100v100h-100v-100h-100v-100h100v-100h100v100h100z" />
    <glyph glyph-name="uni25C8" unicode="&#x25c8;" 
d="M500 100v-100h-100v100h100zM700 400h100v-100h-100v100zM600 300h-100v-100h-100v100h-100v100h100v100h100v-100h100v-100zM600 500h-100v100h100v-100zM700 200h-100v100h100v-100zM400 700h100v-100h-100v100zM300 300v-100h-100v100h100zM300 500v100h100v-100h-100
zM600 100h-100v100h100v-100zM300 100v100h100v-100h-100zM200 400v-100h-100v100h100zM700 500v-100h-100v100h100zM300 400h-100v100h100v-100z" />
    <glyph glyph-name="uni25C9" unicode="&#x25c9;" 
d="M600 500h100v-400h-100v400zM200 0v100h400v-100h-400zM600 600v-100h-400v100h400zM100 100v400h100v-400h-100zM300 200v200h200v-200h-200z" />
    <glyph glyph-name="lozenge" unicode="&#x25ca;" 
d="M500 100v-100h-100v100h-100v100h-100v100h-100v100h100v100h100v100h100v100h100v-100h100v-100h100v-100h100v-100h-100v-100h-100v-100h-100zM600 300v100h-100v100h-100v-100h-100v-100h100v-100h100v100h100z" />
    <glyph glyph-name="circle" unicode="&#x25cb;" 
d="M600 500h100v-400h-100v-100h-400v100h-100v400h100v100h400v-100zM300 200h200v200h-200v-200z" />
    <glyph glyph-name="uni25CC" unicode="&#x25cc;" 
d="M300 300v-200h-200v200h200zM600 200v-200h-200v200h200zM700 500v-200h-200v200h200zM200 600h200v-200h-200v200z" />
    <glyph glyph-name="H18533" unicode="&#x25cf;" 
d="M600 100v-100h-400v100h-100v400h100v100h400v-100h100v-400h-100z" />
    <glyph glyph-name="uni25D0" unicode="&#x25d0;" 
d="M600 500h100v-400h-100v-100h-400v100h-100v400h100v100h400v-100zM400 400v-200h100v200h-100z" />
    <glyph glyph-name="uni25D1" unicode="&#x25d1;" 
d="M600 500h100v-400h-100v-100h-400v100h-100v400h100v100h400v-100zM300 200h100v200h-100v-200z" />
    <glyph glyph-name="uni25D2" unicode="&#x25d2;" 
d="M600 500h100v-400h-100v-100h-400v100h-100v400h100v100h400v-100zM300 300v-100h200v100h-200z" />
    <glyph glyph-name="uni25D3" unicode="&#x25d3;" 
d="M600 500h100v-400h-100v-100h-400v100h-100v400h100v100h400v-100zM300 300h200v100h-200v-100z" />
    <glyph glyph-name="uni25D4" unicode="&#x25d4;" 
d="M600 500h100v-400h-100v-100h-400v100h-100v400h100v100h400v-100zM300 200h200v100h-100v100h-100v-200z" />
    <glyph glyph-name="uni25D5" unicode="&#x25d5;" 
d="M600 500h100v-400h-100v-100h-400v100h-100v400h100v100h400v-100zM300 300h100v100h-100v-100z" />
    <glyph glyph-name="uni25D6" unicode="&#x25d6;" 
d="M200 600h200v-600h-200v100h-100v400h100v100z" />
    <glyph glyph-name="uni25D7" unicode="&#x25d7;" 
d="M600 100v-100h-200v600h200v-100h100v-400h-100z" />
    <glyph glyph-name="invbullet" unicode="&#x25d8;" 
d="M0 -100v800h800v-800h-800zM500 100v100h100v200h-100v100h-200v-100h-100v-200h100v-100h200z" />
    <glyph glyph-name="invcircle" unicode="&#x25d9;" 
d="M0 -100v800h800v-800h-800zM600 500v100h-400v-100h-100v-400h100v-100h400v100h100v400h-100zM300 200v200h200v-200h-200z" />
    <glyph glyph-name="uni25DA" unicode="&#x25da;" 
d="M600 500v100h-400v-100h-100v-200h-100v400h800v-400h-100v200h-100zM300 300v100h200v-100h-200z" />
    <glyph glyph-name="uni25DB" unicode="&#x25db;" 
d="M0 -100v400h100v-200h100v-100h400v100h100v200h100v-400h-800zM300 300h200v-100h-200v100z" />
    <glyph glyph-name="uni25DC" unicode="&#x25dc;" 
d="M300 300h-200v200h100v100h200v-200h-100v-100z" />
    <glyph glyph-name="uni25DD" unicode="&#x25dd;" 
d="M500 300v100h-100v200h200v-100h100v-200h-200z" />
    <glyph glyph-name="uni25DE" unicode="&#x25de;" 
d="M500 300h200v-200h-100v-100h-200v200h100v100z" />
    <glyph glyph-name="uni25DF" unicode="&#x25df;" 
d="M300 300v-100h100v-200h-200v100h-100v200h200z" />
    <glyph glyph-name="uni25E0" unicode="&#x25e0;" 
d="M500 300v100h-200v-100h-200v200h100v100h400v-100h100v-200h-200z" />
    <glyph glyph-name="uni25E1" unicode="&#x25e1;" 
d="M500 300h200v-200h-100v-100h-400v100h-100v200h200v-100h200v100z" />
    <glyph glyph-name="uni25E2" unicode="&#x25e2;" 
d="M0 0h100v100h100v100h100v100h100v100h100v100h100v100h100v100h100v-800h-800v100z" />
    <glyph glyph-name="uni25E3" unicode="&#x25e3;" 
d="M0 -100v800h100v-100h100v-100h100v-100h100v-100h100v-100h100v-100h100v-100h100v-100h-800z" />
    <glyph glyph-name="uni25E4" unicode="&#x25e4;" 
d="M0 -100v800h800v-100h-100v-100h-100v-100h-100v-100h-100v-100h-100v-100h-100v-100h-100v-100h-100z" />
    <glyph glyph-name="uni25E5" unicode="&#x25e5;" 
d="M500 100v100h-100v100h-100v100h-100v100h-100v100h-100v100h800v-800h-100v100h-100v100h-100z" />
    <glyph glyph-name="openbullet" unicode="&#x25e6;" 
d="M600 500h100v-400h-100v-100h-400v100h-100v400h100v100h400v-100zM300 200h200v200h-200v-200z" />
    <glyph glyph-name="uni25E7" unicode="&#x25e7;" 
d="M700 0h-600v600h600v-600zM400 400v-200h100v200h-100z" />
    <glyph glyph-name="uni25E8" unicode="&#x25e8;" 
d="M700 0h-600v600h600v-600zM400 400h-100v-200h100v200z" />
    <glyph glyph-name="uni25E9" unicode="&#x25e9;" 
d="M700 0h-600v600h600v-600zM400 300h-100v-100h200v200h-100v-100z" />
    <glyph glyph-name="uni25EA" unicode="&#x25ea;" 
d="M500 300v100h-200v-200h100v100h100zM700 0h-600v600h600v-600z" />
    <glyph glyph-name="uni25EB" unicode="&#x25eb;" 
d="M500 100h100v400h-100v-400zM700 0h-600v600h600v-600zM300 100v400h-100v-400h100z" />
    <glyph glyph-name="uni25EC" unicode="&#x25ec;" 
d="M500 100h100v100h-100v-100zM700 400v-200h100v-200h-700v200h100v200h100v-100h100v100h100v-100h100v100h100zM400 700h100v-100h100v-200h-100v100h-100v-100h-100v200h100v100zM300 100h100v100h-100v-100z" />
    <glyph glyph-name="uni25ED" unicode="&#x25ed;" 
d="M700 400v-200h100v-200h-700v200h100v200h100v200h100v100h100v-100h100v-200h100zM400 100h200v100h-100v200h-100v-300z" />
    <glyph glyph-name="uni25EE" unicode="&#x25ee;" 
d="M500 100v300h-100v-200h-100v-100h200zM500 700v-100h100v-200h100v-200h100v-200h-700v200h100v200h100v200h100v100h100z" />
    <glyph glyph-name="uni25EF" unicode="&#x25ef;" 
d="M600 500h100v-400h-100v-100h-400v100h-100v400h100v100h400v-100zM300 200h200v200h-200v-200z" />
    <glyph glyph-name="uni25F0" unicode="&#x25f0;" 
d="M600 500h-100v-300h-300v-100h400v400zM100 0v600h600v-600h-600zM400 500h-200v-200h200v200z" />
    <glyph glyph-name="uni25F1" unicode="&#x25f1;" 
d="M500 100h100v400h-400v-100h300v-300zM400 100v200h-200v-200h200zM100 0v600h600v-600h-600z" />
    <glyph glyph-name="uni25F2" unicode="&#x25f2;" 
d="M600 300h-200v-200h200v200zM600 500h-400v-400h100v300h300v100zM100 0v600h600v-600h-600z" />
    <glyph glyph-name="uni25F3" unicode="&#x25f3;" 
d="M600 300v200h-200v-200h200zM100 0v600h600v-600h-600zM300 500h-100v-400h400v100h-300v300z" />
    <glyph glyph-name="uni25F4" unicode="&#x25f4;" 
d="M600 500h-100v-300h-300v-100h-100v400h100v-200h200v200h-200v100h400v-100zM200 0v100h400v-100h-400zM700 500v-400h-100v400h100z" />
    <glyph glyph-name="uni25F5" unicode="&#x25f5;" 
d="M500 100h100v-100h-400v100h200v200h-200v-200h-100v400h100v-100h300v-300zM600 500h100v-400h-100v400zM600 600v-100h-400v100h400z" />
    <glyph glyph-name="uni25F6" unicode="&#x25f6;" 
d="M600 300h-200v-200h200v-100h-400v100h100v300h300v100h100v-400h-100v200zM600 500h-400v100h400v-100zM100 100v400h100v-400h-100z" />
    <glyph glyph-name="uni25F7" unicode="&#x25f7;" 
d="M600 300v200h100v-400h-100v100h-300v300h-100v100h400v-100h-200v-200h200zM200 0v100h400v-100h-400zM100 100v400h100v-400h-100z" />
    <glyph glyph-name="spade" unicode="&#x2660;" 
d="M500 700v-100h100v-100h100v-100h100v-200h-200v-100h100v-100h-500v100h100v100h-200v200h100v100h100v100h100v100h100z" />
    <glyph glyph-name="uni2661" unicode="&#x2661;" 
d="M500 100v-100h-100v100h-100v100h-100v100h-100v300h100v100h200v-100h100v100h200v-100h100v-300h-100v-100h-100v-100h-100zM600 300v200h-100v-100h-100v100h-100v-200h100v-100h100v100h100z" />
    <glyph glyph-name="uni2662" unicode="&#x2662;" 
d="M500 100v-100h-100v100h-100v100h-100v100h-100v100h100v100h100v100h100v100h100v-100h100v-100h100v-100h100v-100h-100v-100h-100v-100h-100zM600 300v100h-100v100h-100v-100h-100v-100h100v-100h100v100h100z" />
    <glyph glyph-name="club" unicode="&#x2663;" 
d="M500 100h100v-100h-400v100h100v200h200v-200zM500 700v-200h-200v200h200zM300 300h-200v200h200v-200zM700 500v-200h-200v200h200z" />
    <glyph glyph-name="uni2664" unicode="&#x2664;" 
d="M700 400h100v-200h-200v-100h100v-100h-500v100h100v100h-200v200h100v100h100v100h100v100h100v-100h100v-100h100v-100zM600 300v100h-100v100h-100v-100h-100v-100h100v-100h100v100h100z" />
    <glyph glyph-name="heart" unicode="&#x2665;" 
d="M500 100v-100h-100v100h-100v100h-100v100h-100v300h100v100h200v-100h100v100h200v-100h100v-300h-100v-100h-100v-100h-100z" />
    <glyph glyph-name="diamond" unicode="&#x2666;" 
d="M500 100v-100h-100v100h-100v100h-100v100h-100v100h100v100h100v100h100v100h100v-100h100v-100h100v-100h100v-100h-100v-100h-100v-100h-100z" />
    <glyph glyph-name="uni2667" unicode="&#x2667;" 
d="M500 100h100v-100h-400v100h100v100h200v-100zM500 700v-100h-200v100h200zM600 300v200h100v-200h-100zM300 300v200h200v-200h-200zM100 500h100v-200h-100v200z" />
    <glyph glyph-name="uni2713" unicode="&#x2713;" 
d="M700 400h-100v-100h-100v-100h-100v-100h-100v-100h-200v400h200v-100h100v100h100v100h100v100h100v100h100v-200h-100v-100z" />
    <glyph glyph-name="uniE000" unicode="&#xe000;" 
d="M700 600v-300h-300v200h100v100h-200v-500h300v-100h-400v100h-100v500h100v100h400v-100h100zM700 200v-100h-100v100h100z" />
    <glyph glyph-name="uniE001" unicode="&#xe001;" 
d="M500 700v-100h100v-100h100v-500h-200v300h-200v-300h-200v500h100v100h100v100h200zM300 500v-100h200v100h-200z" />
    <glyph glyph-name="uniE002" unicode="&#xe002;" 
d="M500 100v200h-200v-200h200zM700 400h-100v-100h100v-200h-100v-100h-500v700h500v-100h100v-200zM300 600v-200h200v200h-200z" />
    <glyph glyph-name="uniE003" unicode="&#xe003;" 
d="M500 100v100h200v-100h-100v-100h-400v100h-100v500h100v100h400v-100h100v-100h-200v100h-200v-500h200z" />
    <glyph glyph-name="uniE004" unicode="&#xe004;" 
d="M500 100v-100h-400v700h400v-100h100v-100h100v-300h-100v-100h-100zM400 100v100h100v300h-100v100h-100v-500h100z" />
    <glyph glyph-name="uniE005" unicode="&#xe005;" 
d="M500 300h-200v-200h400v-100h-600v700h600v-100h-400v-200h200v-100z" />
    <glyph glyph-name="uniE006" unicode="&#xe006;" 
d="M500 300h-200v-300h-200v700h600v-100h-400v-200h200v-100z" />
    <glyph glyph-name="uniE007" unicode="&#xe007;" 
d="M500 100v200h-100v100h300v-300h-100v-100h-400v100h-100v500h100v100h400v-100h100v-100h-200v100h-200v-500h200z" />
    <glyph glyph-name="uniE008" unicode="&#xe008;" 
d="M500 300h-200v-300h-200v700h200v-300h200v300h200v-700h-200v300z" />
    <glyph glyph-name="uniE009" unicode="&#xe009;" 
d="M500 100h100v-100h-400v100h100v500h-100v100h400v-100h-100v-500z" />
    <glyph glyph-name="uniE00A" unicode="&#xe00a;" 
d="M500 100v-100h-300v100h-100v100h200v-100h100v500h-100v100h400v-100h-100v-500h-100z" />
    <glyph glyph-name="uniE00B" unicode="&#xe00b;" 
d="M500 100h-100v100h-100v-200h-200v700h200v-200h100v100h100v100h200v-100h-100v-100h-100v-100h-100v-100h100v-100h100v-100h100v-100h-200v100z" />
    <glyph glyph-name="uniE00C" unicode="&#xe00c;" 
d="M700 0h-600v700h200v-600h400v-100z" />
    <glyph glyph-name="uniE00D" unicode="&#xe00d;" 
d="M100 0v700h200v-100h100v-100h100v100h100v100h200v-700h-200v400h-100v-100h-100v100h-100v-400h-200z" />
    <glyph glyph-name="uniE00E" unicode="&#xe00e;" 
d="M500 700h200v-700h-200v200h-100v100h-100v-300h-200v700h200v-100h100v-100h100v200z" />
    <glyph glyph-name="uniE00F" unicode="&#xe00f;" 
d="M500 100v500h-200v-500h200zM700 600v-500h-100v-100h-400v100h-100v500h100v100h400v-100h100z" />
    <glyph glyph-name="uniE010" unicode="&#xe010;" 
d="M600 300h-300v-300h-200v700h500v-100h100v-200h-100v-100zM300 600v-200h200v200h-200z" />
    <glyph glyph-name="uniE011" unicode="&#xe011;" 
d="M400 100h-200v100h-100v400h100v100h400v-100h100v-400h-100v-100h100v-100h-300v100zM300 200h200v400h-200v-400z" />
    <glyph glyph-name="uniE012" unicode="&#xe012;" 
d="M500 100h-100v100h-100v-200h-200v700h500v-100h100v-200h-100v-100h-100v-100h100v-100h100v-100h-200v100zM300 600v-200h200v200h-200z" />
    <glyph glyph-name="uniE013" unicode="&#xe013;" 
d="M500 100v200h-300v100h-100v200h100v100h400v-100h100v-100h-200v100h-200v-200h300v-100h100v-200h-100v-100h-400v100h-100v100h200v-100h200z" />
    <glyph glyph-name="uniE014" unicode="&#xe014;" 
d="M100 600v100h600v-100h-200v-600h-200v600h-200z" />
    <glyph glyph-name="uniE015" unicode="&#xe015;" 
d="M500 100v600h200v-600h-100v-100h-400v100h-100v600h200v-600h200z" />
    <glyph glyph-name="uniE016" unicode="&#xe016;" 
d="M500 100v-100h-200v100h-100v100h-100v500h200v-500h200v500h200v-500h-100v-100h-100z" />
    <glyph glyph-name="uniE017" unicode="&#xe017;" 
d="M500 100v100h-100v-100h-100v-100h-200v700h200v-400h100v100h100v-100h100v400h200v-700h-200v100h-100z" />
    <glyph glyph-name="uniE018" unicode="&#xe018;" 
d="M600 300v-100h100v-200h-200v200h-200v-200h-200v200h100v100h100v100h-100v100h-100v200h200v-200h200v200h200v-200h-100v-100h-100v-100h100z" />
    <glyph glyph-name="uniE019" unicode="&#xe019;" 
d="M600 300h-100v-300h-200v300h-100v100h-100v300h200v-300h200v300h200v-300h-100v-100z" />
    <glyph glyph-name="uniE01A" unicode="&#xe01a;" 
d="M600 500v-100h-100v-100h-100v-100h-100v-100h400v-100h-600v200h100v100h100v100h100v100h100v100h-400v100h600v-200h-100z" />
    <glyph glyph-name="uniE01B" unicode="&#xe01b;" 
d="M600 700v-100h-200v-500h200v-100h-400v700h400z" />
    <glyph glyph-name="uniE01C" unicode="&#xe01c;" 
d="M0 0v100h100v100h100v100h-100v100h100v100h100v100h100v-200h200v-100h-200v-100h-100v-100h300v-100h-600zM600 500v100h100v-100h-100zM400 700h200v-100h-200v100zM700 200v-100h-100v100h100z" />
    <glyph glyph-name="uniE01D" unicode="&#xe01d;" 
d="M600 700v-700h-400v100h200v500h-200v100h400z" />
    <glyph glyph-name="uniE01E" unicode="&#xe01e;" 
d="M700 400v-100h-200v-400h-200v400h-200v100h100v100h100v100h200v-100h100v-100h100z" />
    <glyph glyph-name="uniE01F" unicode="&#xe01f;" 
d="M800 200h-400v-200h-100v100h-100v100h-100v200h100v100h100v100h100v-200h400v-200z" />
    <glyph glyph-name="uniE020" unicode="&#xe020;" 
 />
    <glyph glyph-name="uniE021" unicode="&#xe021;" 
d="M500 100v-100h-200v100h200zM500 300h-200v400h200v-400z" />
    <glyph glyph-name="uniE022" unicode="&#xe022;" 
d="M500 700h200v-300h-200v300zM100 400v300h200v-300h-200z" />
    <glyph glyph-name="uniE023" unicode="&#xe023;" 
d="M700 400v-100h100v-100h-100v-200h-200v200h-200v-200h-200v200h-100v100h100v100h-100v100h100v200h200v-200h200v200h200v-200h100v-100h-100zM300 300h200v100h-200v-100z" />
    <glyph glyph-name="uniE024" unicode="&#xe024;" 
d="M500 100v-100h-200v100h-200v100h400v100h-300v100h-100v100h100v100h100v100h200v-100h200v-100h-400v-100h300v-100h100v-100h-100v-100h-100z" />
    <glyph glyph-name="uniE025" unicode="&#xe025;" 
d="M600 500v-100h-100v-100h-100v-100h-100v-100h-100v-100h-100v200h100v100h100v100h100v100h100v100h100v100h100v-200h-100zM700 200v-200h-200v200h200zM300 500h-200v200h200v-200z" />
    <glyph glyph-name="uniE026" unicode="&#xe026;" 
d="M500 100v200h300v-100h-100v-100h100v-100h-600v100h-100v200h100v200h-100v100h100v100h400v-100h100v-100h-100v-100h-100v-100h-200v-200h200zM300 500h200v100h-200v-100z" />
    <glyph glyph-name="uniE027" unicode="&#xe027;" 
d="M500 700h200v-100h-100v-100h-100v-100h-200v100h100v100h100v100z" />
    <glyph glyph-name="uniE028" unicode="&#xe028;" 
d="M500 100h100v-100h-200v100h-100v100h-100v300h100v100h100v100h200v-100h-100v-100h-100v-300h100v-100z" />
    <glyph glyph-name="uniE029" unicode="&#xe029;" 
d="M500 100h-100v-100h-200v100h100v100h100v300h-100v100h-100v100h200v-100h100v-100h100v-300h-100v-100z" />
    <glyph glyph-name="uniE02A" unicode="&#xe02a;" 
d="M500 100v100h-200v-100h-200v100h100v100h-200v100h200v100h-100v100h200v-100h200v100h200v-100h-100v-100h200v-100h-200v-100h100v-100h-200z" />
    <glyph glyph-name="uniE02B" unicode="&#xe02b;" 
d="M500 100h-200v200h-200v100h200v200h200v-200h200v-100h-200v-200z" />
    <glyph glyph-name="uniE02C" unicode="&#xe02c;" 
d="M200 -100v100h100v200h200v-200h-100v-100h-200z" />
    <glyph glyph-name="uniE02D" unicode="&#xe02d;" 
d="M700 400v-100h-600v100h600z" />
    <glyph glyph-name="uniE02E" unicode="&#xe02e;" 
d="M500 0h-200v200h200v-200z" />
    <glyph glyph-name="uniE02F" unicode="&#xe02f;" 
d="M700 400h-100v-100h-100v-100h-100v-100h-100v-100h-200v100h100v100h100v100h100v100h100v100h100v100h200v-100h-100v-100z" />
    <glyph glyph-name="uniE030" unicode="&#xe030;" 
d="M500 100v300h-100v100h100v100h-200v-200h100v-100h-100v-200h200zM700 600v-500h-100v-100h-400v100h-100v500h100v100h400v-100h100z" />
    <glyph glyph-name="uniE031" unicode="&#xe031;" 
d="M500 100h200v-100h-600v100h200v300h-100v100h100v200h200v-600z" />
    <glyph glyph-name="uniE032" unicode="&#xe032;" 
d="M600 300h-200v100h100v200h-200v-100h-200v100h100v100h400v-100h100v-200h-100v-100zM700 0h-600v200h100v100h200v-100h-100v-100h400v-100z" />
    <glyph glyph-name="uniE033" unicode="&#xe033;" 
d="M500 100v200h-200v100h200v200h-200v-100h-200v100h100v100h400v-100h100v-200h-100v-100h100v-200h-100v-100h-400v100h-100v100h200v-100h200z" />
    <glyph glyph-name="uniE034" unicode="&#xe034;" 
d="M500 700h200v-400h100v-100h-100v-200h-200v200h-400v200h200v-100h200v100h-200v100h100v100h100v100z" />
    <glyph glyph-name="uniE035" unicode="&#xe035;" 
d="M500 100v300h-400v300h600v-100h-400v-100h300v-100h100v-300h-100v-100h-400v100h-100v100h200v-100h200z" />
    <glyph glyph-name="uniE036" unicode="&#xe036;" 
d="M500 100v200h-200v-200h200zM600 300h100v-200h-100v-100h-400v100h-100v500h100v100h400v-100h100v-100h-200v100h-200v-200h300v-100z" />
    <glyph glyph-name="uniE037" unicode="&#xe037;" 
d="M600 500v-100h-100v-400h-200v400h100v100h100v100h-200v-100h-200v200h600v-200h-100z" />
    <glyph glyph-name="uniE038" unicode="&#xe038;" 
d="M500 100v200h-200v-200h200zM700 400h-100v-100h100v-200h-100v-100h-400v100h-100v200h100v100h-100v200h100v100h400v-100h100v-200zM300 600v-200h200v200h-200z" />
    <glyph glyph-name="uniE039" unicode="&#xe039;" 
d="M500 100v200h-300v100h-100v200h100v100h400v-100h100v-500h-100v-100h-400v100h-100v100h200v-100h200zM300 600v-200h200v200h-200z" />
    <glyph glyph-name="uniE03A" unicode="&#xe03a;" 
d="M500 100h-200v100h200v-100zM500 500v-100h-200v100h200z" />
    <glyph glyph-name="uniE03B" unicode="&#xe03b;" 
d="M500 500v-100h-200v100h200zM200 0h100v200h200v-200h-100v-100h-200v100z" />
    <glyph glyph-name="uniE03C" unicode="&#xe03c;" 
d="M500 100h200v-100h-300v100h-100v100h-100v100h-100v100h100v100h100v100h100v100h300v-100h-200v-100h-100v-100h-100v-100h100v-100h100v-100z" />
    <glyph glyph-name="uniE03D" unicode="&#xe03d;" 
d="M700 400h-600v100h600v-100zM700 200h-600v100h600v-100z" />
    <glyph glyph-name="uniE03E" unicode="&#xe03e;" 
d="M500 100h-100v-100h-300v100h200v100h100v100h100v100h-100v100h-100v100h-200v100h300v-100h100v-100h100v-100h100v-100h-100v-100h-100v-100z" />
    <glyph glyph-name="uniE03F" unicode="&#xe03f;" 
d="M500 100v-100h-200v100h200zM700 400h-100v-100h-100v-100h-200v100h100v100h100v200h-200v-100h-200v100h100v100h400v-100h100v-200z" />
    <glyph glyph-name="uniE040" unicode="&#xe040;" 
d="M0 200v200h800v-200h-800z" />
    <glyph glyph-name="uniE041" unicode="&#xe041;" 
d="M500 700v-100h100v-100h100v-100h100v-200h-200v-100h100v-100h-500v100h100v100h-200v200h100v100h100v100h100v100h100z" />
    <glyph glyph-name="uniE042" unicode="&#xe042;" 
d="M500 700v-800h-200v800h200z" />
    <glyph glyph-name="uniE043" unicode="&#xe043;" 
d="M0 200v200h800v-200h-800z" />
    <glyph glyph-name="uniE044" unicode="&#xe044;" 
d="M0 300v200h800v-200h-800z" />
    <glyph glyph-name="uniE045" unicode="&#xe045;" 
d="M0 600h800v-200h-800v200z" />
    <glyph glyph-name="uniE046" unicode="&#xe046;" 
d="M0 100v200h800v-200h-800z" />
    <glyph glyph-name="uniE047" unicode="&#xe047;" 
d="M400 700v-800h-200v800h200z" />
    <glyph glyph-name="uniE048" unicode="&#xe048;" 
d="M600 700v-800h-200v800h200z" />
    <glyph glyph-name="uniE049" unicode="&#xe049;" 
d="M0 200v200h300v-100h100v-100h100v-300h-200v200h-100v100h-200z" />
    <glyph glyph-name="uniE04A" unicode="&#xe04a;" 
d="M500 300h-100v100h-100v300h200v-200h100v-100h200v-200h-300v100z" />
    <glyph glyph-name="uniE04B" unicode="&#xe04b;" 
d="M0 200v200h200v100h100v200h200v-300h-100v-100h-100v-100h-300z" />
    <glyph glyph-name="uniE04C" unicode="&#xe04c;" 
d="M0 -100v800h200v-600h600v-200h-800z" />
    <glyph glyph-name="uniE04D" unicode="&#xe04d;" 
d="M500 100h-100v100h-100v100h-100v100h-100v100h-100v200h200v-100h100v-100h100v-100h100v-100h100v-100h100v-100h100v-200h-200v100h-100v100z" />
    <glyph glyph-name="uniE04E" unicode="&#xe04e;" 
d="M700 400h-100v-100h-100v-100h-100v-100h-100v-100h-100v-100h-200v200h100v100h100v100h100v100h100v100h100v100h100v100h200v-200h-100v-100z" />
    <glyph glyph-name="uniE04F" unicode="&#xe04f;" 
d="M0 -100v800h800v-200h-600v-600h-200z" />
    <glyph glyph-name="uniE050" unicode="&#xe050;" 
d="M600 500h-600v200h800v-800h-200v600z" />
    <glyph glyph-name="uniE051" unicode="&#xe051;" 
d="M600 100v-100h-400v100h-100v400h100v100h400v-100h100v-400h-100z" />
    <glyph glyph-name="uniE052" unicode="&#xe052;" 
d="M0 0v200h800v-200h-800z" />
    <glyph glyph-name="uniE053" unicode="&#xe053;" 
d="M500 100v-100h-100v100h-100v100h-100v100h-100v300h100v100h200v-100h100v100h200v-100h100v-300h-100v-100h-100v-100h-100z" />
    <glyph glyph-name="uniE054" unicode="&#xe054;" 
d="M100 -100v800h200v-800h-200z" />
    <glyph glyph-name="uniE055" unicode="&#xe055;" 
d="M500 100v-200h-200v300h100v100h100v100h300v-200h-200v-100h-100z" />
    <glyph glyph-name="uniE056" unicode="&#xe056;" 
d="M500 100h-200v-100h-100v-100h-200v200h100v100h100v200h-100v100h-100v200h200v-100h100v-100h200v100h100v100h200v-200h-100v-100h-100v-200h100v-100h100v-200h-200v100h-100v100z" />
    <glyph glyph-name="uniE057" unicode="&#xe057;" 
d="M600 500h100v-400h-100v-100h-400v100h-100v400h100v100h400v-100zM300 200h200v200h-200v-200z" />
    <glyph glyph-name="uniE058" unicode="&#xe058;" 
d="M500 100h100v-100h-400v100h100v200h200v-200zM500 700v-200h-200v200h200zM300 300h-200v200h200v-200zM700 500v-200h-200v200h200z" />
    <glyph glyph-name="uniE059" unicode="&#xe059;" 
d="M500 700h200v-800h-200v800z" />
    <glyph glyph-name="uniE05A" unicode="&#xe05a;" 
d="M500 100v-100h-100v100h-100v100h-100v100h-100v100h100v100h100v100h100v100h100v-100h100v-100h100v-100h100v-100h-100v-100h-100v-100h-100z" />
    <glyph glyph-name="uniE05B" unicode="&#xe05b;" 
d="M0 200v200h300v300h200v-300h300v-200h-300v-300h-200v300h-300z" />
    <glyph glyph-name="uniE05C" unicode="&#xe05c;" 
d="M400 100v-200h-200v200h200zM0 100v200h200v-200h-200zM0 700h200v-200h-200v200zM400 500v-200h-200v200h200z" />
    <glyph glyph-name="uniE05D" unicode="&#xe05d;" 
d="M500 700v-800h-200v800h200z" />
    <glyph glyph-name="uniE05E" unicode="&#xe05e;" 
d="M700 400v-400h-200v300h-100v-300h-200v200h-100v100h100v100h400v100h200v-100h-100z" />
    <glyph glyph-name="uniE05F" unicode="&#xe05f;" 
d="M500 100v100h-100v100h-100v100h-100v100h-100v100h-100v100h800v-800h-100v100h-100v100h-100z" />
    <glyph glyph-name="uniE060" unicode="&#xe060;" 
 />
    <glyph glyph-name="uniE061" unicode="&#xe061;" 
d="M0 -100v800h400v-800h-400z" />
    <glyph glyph-name="uniE062" unicode="&#xe062;" 
d="M0 -100v400h800v-400h-800z" />
    <glyph glyph-name="uniE063" unicode="&#xe063;" 
d="M0 600v100h800v-100h-800z" />
    <glyph glyph-name="uniE064" unicode="&#xe064;" 
d="M0 0h800v-100h-800v100z" />
    <glyph glyph-name="uniE065" unicode="&#xe065;" 
d="M0 -100v800h200v-800h-200z" />
    <glyph glyph-name="uniE066" unicode="&#xe066;" 
d="M600 300v-200h-200v200h200zM400 100v-200h-200v200h200zM600 500h-200v200h200v-200zM0 100v200h200v-200h-200zM0 700h200v-200h-200v200zM800 300h-200v200h200v-200zM400 500v-200h-200v200h200zM600 100h200v-200h-200v200z" />
    <glyph glyph-name="uniE067" unicode="&#xe067;" 
d="M600 700h200v-800h-200v800z" />
    <glyph glyph-name="uniE068" unicode="&#xe068;" 
d="M600 300v-200h-200v200h200zM400 100v-200h-200v200h200zM0 100v200h200v-200h-200zM600 100h200v-200h-200v200z" />
    <glyph glyph-name="uniE069" unicode="&#xe069;" 
d="M0 -100v800h800v-100h-100v-100h-100v-100h-100v-100h-100v-100h-100v-100h-100v-100h-100v-100h-100z" />
    <glyph glyph-name="uniE06A" unicode="&#xe06a;" 
d="M600 700h200v-800h-200v800z" />
    <glyph glyph-name="uniE06B" unicode="&#xe06b;" 
d="M500 700v-300h300v-200h-300v-300h-200v800h200z" />
    <glyph glyph-name="uniE06C" unicode="&#xe06c;" 
d="M400 300h400v-400h-400v400z" />
    <glyph glyph-name="uniE06D" unicode="&#xe06d;" 
d="M500 700v-300h300v-200h-500v500h200z" />
    <glyph glyph-name="uniE06E" unicode="&#xe06e;" 
d="M0 200v200h500v-500h-200v300h-300z" />
    <glyph glyph-name="uniE06F" unicode="&#xe06f;" 
d="M0 -100v200h800v-200h-800z" />
    <glyph glyph-name="uniE070" unicode="&#xe070;" 
d="M800 200h-300v-300h-200v500h500v-200z" />
    <glyph glyph-name="uniE071" unicode="&#xe071;" 
d="M0 200v200h300v300h200v-300h300v-200h-800z" />
    <glyph glyph-name="uniE072" unicode="&#xe072;" 
d="M0 200v200h800v-200h-300v-300h-200v300h-300z" />
    <glyph glyph-name="uniE073" unicode="&#xe073;" 
d="M0 200v200h300v300h200v-800h-200v300h-300z" />
    <glyph glyph-name="uniE074" unicode="&#xe074;" 
d="M0 -100v800h200v-800h-200z" />
    <glyph glyph-name="uniE075" unicode="&#xe075;" 
d="M0 -100v800h300v-800h-300z" />
    <glyph glyph-name="uniE076" unicode="&#xe076;" 
d="M500 700h300v-800h-300v800z" />
    <glyph glyph-name="uniE077" unicode="&#xe077;" 
d="M0 700h800v-200h-800v200z" />
    <glyph glyph-name="uniE078" unicode="&#xe078;" 
d="M0 400v300h800v-300h-800z" />
    <glyph glyph-name="uniE079" unicode="&#xe079;" 
d="M0 -100v300h800v-300h-800z" />
    <glyph glyph-name="uniE07A" unicode="&#xe07a;" 
d="M0 -100v200h600v600h200v-800h-800z" />
    <glyph glyph-name="uniE07B" unicode="&#xe07b;" 
d="M0 -100v400h400v-400h-400z" />
    <glyph glyph-name="uniE07C" unicode="&#xe07c;" 
d="M400 300v400h400v-400h-400z" />
    <glyph glyph-name="uniE07D" unicode="&#xe07d;" 
d="M0 200v200h300v300h200v-500h-500z" />
    <glyph glyph-name="uniE07E" unicode="&#xe07e;" 
d="M400 300h-400v400h400v-400z" />
    <glyph glyph-name="uniE07F" unicode="&#xe07f;" 
d="M400 300h-400v400h400v-400zM800 -100h-400v400h400v-400z" />
    <glyph glyph-name="uniE080" unicode="&#xe080;" 
d="M500 100h-200v500h200v-100h-100v-200h300v300h-100v100h200v-800h-800v800h200v-100h-100v-500h100v-100h400v100h100v100h-200v-100z" />
    <glyph glyph-name="uniE081" unicode="&#xe081;" 
d="M0 -100v800h300v-100h-100v-100h-100v-500h200v300h200v-300h200v500h-100v100h-100v100h300v-800h-800zM300 500h200v-100h-200v100z" />
    <glyph glyph-name="uniE082" unicode="&#xe082;" 
d="M0 -100v800h100v-700h500v100h100v200h-100v100h100v200h-100v100h200v-800h-800zM500 100h-200v200h200v-200zM300 600h200v-200h-200v200z" />
    <glyph glyph-name="uniE083" unicode="&#xe083;" 
d="M0 -100v800h200v-100h-100v-500h100v-100h400v100h100v100h-200v-100h-200v500h200v-100h200v100h-100v100h200v-800h-800z" />
    <glyph glyph-name="uniE084" unicode="&#xe084;" 
d="M0 -100v800h100v-700h400v100h100v100h100v300h-100v100h-100v100h300v-800h-800zM400 100h-100v500h100v-100h100v-300h-100v-100z" />
    <glyph glyph-name="uniE085" unicode="&#xe085;" 
d="M0 -100v800h100v-700h600v100h-400v200h200v100h-200v200h400v100h100v-800h-800z" />
    <glyph glyph-name="uniE086" unicode="&#xe086;" 
d="M0 -100v800h100v-700h200v300h200v100h-200v200h400v100h100v-800h-800z" />
    <glyph glyph-name="uniE087" unicode="&#xe087;" 
d="M500 100h-200v500h200v-100h200v100h-100v100h200v-800h-800v800h200v-100h-100v-500h100v-100h400v100h100v300h-300v-100h100v-200z" />
    <glyph glyph-name="uniE088" unicode="&#xe088;" 
d="M0 -100v800h100v-700h200v300h200v-300h200v700h100v-800h-800zM500 700v-300h-200v300h200z" />
    <glyph glyph-name="uniE089" unicode="&#xe089;" 
d="M0 -100v800h200v-100h100v-500h-100v-100h400v100h-100v500h100v100h200v-800h-800z" />
    <glyph glyph-name="uniE08A" unicode="&#xe08a;" 
d="M0 -100v800h300v-100h100v-500h-100v100h-200v-100h100v-100h300v100h100v500h100v100h100v-800h-800z" />
    <glyph glyph-name="uniE08B" unicode="&#xe08b;" 
d="M500 100v-100h200v100h-100v100h-100v100h-100v100h100v100h100v100h100v100h100v-800h-800v800h100v-700h200v200h100v-100h100zM300 500v200h200v-100h-100v-100h-100z" />
    <glyph glyph-name="uniE08C" unicode="&#xe08c;" 
d="M0 -100v800h100v-700h600v100h-400v600h500v-800h-800z" />
    <glyph glyph-name="uniE08D" unicode="&#xe08d;" 
d="M0 -100v800h100v-700h200v400h100v-100h100v100h100v-400h200v-100h-800zM600 600h-100v-100h-100v100h-100v100h300v-100z" />
    <glyph glyph-name="uniE08E" unicode="&#xe08e;" 
d="M0 -100v800h100v-700h200v300h100v-100h100v-200h200v700h100v-800h-800zM500 700v-200h-100v100h-100v100h200z" />
    <glyph glyph-name="uniE08F" unicode="&#xe08f;" 
d="M0 -100v800h200v-100h-100v-500h100v-100h400v100h100v500h-100v100h200v-800h-800zM500 100h-200v500h200v-500z" />
    <glyph glyph-name="uniE090" unicode="&#xe090;" 
d="M0 -100v800h100v-700h200v300h300v100h100v200h-100v100h200v-800h-800zM300 600h200v-200h-200v200z" />
    <glyph glyph-name="uniE091" unicode="&#xe091;" 
d="M0 -100v800h200v-100h-100v-400h100v-100h200v-100h300v100h-100v100h100v400h-100v100h200v-800h-800zM300 200v400h200v-400h-200z" />
    <glyph glyph-name="uniE092" unicode="&#xe092;" 
d="M500 100v-100h200v100h-100v100h-100v100h100v100h100v200h-100v100h200v-800h-800v800h100v-700h200v200h100v-100h100zM300 600h200v-200h-200v200z" />
    <glyph glyph-name="uniE093" unicode="&#xe093;" 
d="M500 100h-200v100h-200v-100h100v-100h400v100h100v200h-100v100h-300v200h200v-100h200v100h-100v100h200v-800h-800v800h200v-100h-100v-200h100v-100h300v-200z" />
    <glyph glyph-name="uniE094" unicode="&#xe094;" 
d="M0 -100v800h100v-100h200v-600h200v600h200v100h100v-800h-800z" />
    <glyph glyph-name="uniE095" unicode="&#xe095;" 
d="M0 -100v800h100v-600h100v-100h400v100h100v600h100v-800h-800zM500 100h-200v600h200v-600z" />
    <glyph glyph-name="uniE096" unicode="&#xe096;" 
d="M0 -100v800h100v-500h100v-100h100v-100h200v100h100v100h100v500h100v-800h-800zM500 700v-500h-200v500h200z" />
    <glyph glyph-name="uniE097" unicode="&#xe097;" 
d="M0 -100v800h100v-700h200v100h100v100h100v-100h100v-100h200v-100h-800zM600 300h-100v100h-100v-100h-100v400h300v-400z" />
    <glyph glyph-name="uniE098" unicode="&#xe098;" 
d="M600 300h-100v100h100v100h100v200h100v-800h-800v800h100v-200h100v-100h100v-100h-100v-100h-100v-200h200v200h200v-200h200v200h-100v100zM300 500v200h200v-200h-200z" />
    <glyph glyph-name="uniE099" unicode="&#xe099;" 
d="M0 -100v800h100v-300h100v-100h100v-300h200v300h100v100h100v300h100v-800h-800zM500 700v-300h-200v300h200z" />
    <glyph glyph-name="uniE09A" unicode="&#xe09a;" 
d="M600 500h100v200h100v-800h-800v800h100v-100h400v-100h-100v-100h-100v-100h-100v-100h-100v-200h600v100h-400v100h100v100h100v100h100v100z" />
    <glyph glyph-name="uniE09B" unicode="&#xe09b;" 
d="M0 -100v800h200v-700h400v100h-200v500h200v100h200v-800h-800z" />
    <glyph glyph-name="uniE09C" unicode="&#xe09c;" 
d="M0 0h600v100h100v100h-100v-100h-300v100h100v100h200v100h-200v200h200v-100h100v100h-100v100h200v-800h-800v100zM400 700v-100h-100v-100h-100v-100h-100v-100h100v-100h-100v-100h-100v600h400z" />
    <glyph glyph-name="uniE09D" unicode="&#xe09d;" 
d="M0 -100v800h200v-100h200v-500h-200v-100h400v700h200v-800h-800z" />
    <glyph glyph-name="uniE09E" unicode="&#xe09e;" 
d="M0 -100v800h800v-800h-300v400h200v100h-100v100h-100v100h-200v-100h-100v-100h-100v-100h200v-400h-300z" />
    <glyph glyph-name="uniE09F" unicode="&#xe09f;" 
d="M0 -100v800h800v-300h-400v200h-100v-100h-100v-100h-100v-200h100v-100h100v-100h100v200h400v-300h-800z" />
    <glyph glyph-name="uniE0A0" unicode="&#xe0a0;" 
d="M0 -100v800h800v-800h-800z" />
    <glyph glyph-name="uniE0A1" unicode="&#xe0a1;" 
d="M500 300v400h300v-800h-800v800h300v-400h200zM500 100h-200v-100h200v100z" />
    <glyph glyph-name="uniE0A2" unicode="&#xe0a2;" 
d="M0 -100v800h100v-300h200v300h200v-300h200v300h100v-800h-800z" />
    <glyph glyph-name="uniE0A3" unicode="&#xe0a3;" 
d="M700 400h100v-100h-100v100zM700 200h100v-300h-800v300h100v-200h200v200h200v-200h200v200zM300 300v100h200v-100h-200zM300 500v200h200v-200h-200zM0 700h100v-200h-100v200zM0 400h100v-100h-100v100zM700 700h100v-200h-100v200z" />
    <glyph glyph-name="uniE0A4" unicode="&#xe0a4;" 
d="M500 100h100v100h100v100h-100v100h-300v100h400v100h-200v100h300v-800h-800v800h300v-100h-100v-100h-100v-100h100v-100h300v-100h-400v-100h200v-100h200v100z" />
    <glyph glyph-name="uniE0A5" unicode="&#xe0a5;" 
d="M600 500h100v200h100v-800h-800v800h100v-200h200v200h300v-100h-100v-100h-100v-100h-100v-100h-100v-100h-100v-200h100v100h100v100h100v100h100v100h100v100zM700 200h-200v-200h200v200z" />
    <glyph glyph-name="uniE0A6" unicode="&#xe0a6;" 
d="M500 100h-200v200h200v-200zM600 500h100v100h-100v100h200v-400h-300v100h100v100zM700 200h100v-100h-100v100zM200 0h600v-100h-800v800h200v-100h-100v-100h100v-200h-100v-200h100v-100zM300 500v100h200v-100h-200z" />
    <glyph glyph-name="uniE0A7" unicode="&#xe0a7;" 
d="M0 -100v800h500v-100h-100v-100h-100v-100h200v100h100v100h100v100h100v-800h-800z" />
    <glyph glyph-name="uniE0A8" unicode="&#xe0a8;" 
d="M0 -100v800h400v-100h-100v-100h-100v-300h100v-100h100v-100h200v100h-100v100h-100v300h100v100h100v100h200v-800h-800z" />
    <glyph glyph-name="uniE0A9" unicode="&#xe0a9;" 
d="M0 -100v800h200v-100h100v-100h100v-300h-100v-100h-100v-100h200v100h100v100h100v300h-100v100h-100v100h400v-800h-800z" />
    <glyph glyph-name="uniE0AA" unicode="&#xe0aa;" 
d="M500 100h200v100h-100v100h200v-400h-800v400h200v-100h-100v-100h200v100h200v-100zM600 500h100v100h-200v-100h-200v100h-200v-100h100v-100h-200v300h800v-300h-200v100z" />
    <glyph glyph-name="uniE0AB" unicode="&#xe0ab;" 
d="M0 -100v800h800v-800h-800zM500 100v200h200v100h-200v200h-200v-200h-200v-100h200v-200h200z" />
    <glyph glyph-name="uniE0AC" unicode="&#xe0ac;" 
d="M0 -100v800h800v-800h-400v100h100v200h-200v-200h-100v-100h-200z" />
    <glyph glyph-name="uniE0AD" unicode="&#xe0ad;" 
d="M0 -100v800h800v-800h-800zM700 400h-600v-100h600v100z" />
    <glyph glyph-name="uniE0AE" unicode="&#xe0ae;" 
d="M0 -100v800h800v-800h-800zM500 0v200h-200v-200h200z" />
    <glyph glyph-name="uniE0AF" unicode="&#xe0af;" 
d="M700 400v100h100v-600h-800v800h800v-100h-200v-100h-100v-100h-100v-100h-100v-100h-100v-100h-100v-100h200v100h100v100h100v100h100v100h100z" />
    <glyph glyph-name="uniE0B0" unicode="&#xe0b0;" 
d="M500 100h-200v200h100v100h100v-300zM200 0h400v100h100v500h-100v100h200v-800h-800v800h200v-100h-100v-500h100v-100zM300 600h200v-100h-100v-100h-100v200z" />
    <glyph glyph-name="uniE0B1" unicode="&#xe0b1;" 
d="M0 -100v800h300v-200h-100v-100h100v-300h-200v-100h600v100h-200v600h300v-800h-800z" />
    <glyph glyph-name="uniE0B2" unicode="&#xe0b2;" 
d="M700 400v200h-100v100h200v-800h-800v800h200v-100h-100v-100h200v100h200v-200h-100v-100h-200v-100h-100v-200h600v100h-400v100h100v100h200v100h100z" />
    <glyph glyph-name="uniE0B3" unicode="&#xe0b3;" 
d="M500 100h-200v100h-200v-100h100v-100h400v100h100v200h-100v100h100v200h-100v100h200v-800h-800v800h200v-100h-100v-100h200v100h200v-200h-200v-100h200v-200z" />
    <glyph glyph-name="uniE0B4" unicode="&#xe0b4;" 
d="M0 -100v800h500v-100h-100v-100h-100v-100h-200v-200h400v-200h200v200h100v-300h-800zM300 300v100h200v-100h-200zM700 300v400h100v-400h-100z" />
    <glyph glyph-name="uniE0B5" unicode="&#xe0b5;" 
d="M0 -100v800h100v-300h400v-300h-200v100h-200v-100h100v-100h400v100h100v300h-100v100h-300v100h400v100h100v-800h-800z" />
    <glyph glyph-name="uniE0B6" unicode="&#xe0b6;" 
d="M500 100h-200v200h200v-200zM600 300v100h-300v200h200v-100h200v100h-100v100h200v-800h-800v800h200v-100h-100v-500h100v-100h400v100h100v200h-100z" />
    <glyph glyph-name="uniE0B7" unicode="&#xe0b7;" 
d="M0 -100v800h100v-200h200v100h200v-100h-100v-100h-100v-400h200v400h100v100h100v200h100v-800h-800z" />
    <glyph glyph-name="uniE0B8" unicode="&#xe0b8;" 
d="M500 100h-200v200h200v-200zM700 400v200h-100v100h200v-800h-800v800h200v-100h-100v-200h100v-100h-100v-200h100v-100h400v100h100v200h-100v100h100zM300 600h200v-200h-200v200z" />
    <glyph glyph-name="uniE0B9" unicode="&#xe0b9;" 
d="M500 100h-200v100h-200v-100h100v-100h400v100h100v500h-100v100h200v-800h-800v800h200v-100h-100v-200h100v-100h300v-200zM300 600h200v-200h-200v200z" />
    <glyph glyph-name="uniE0BA" unicode="&#xe0ba;" 
d="M0 -100v800h800v-800h-800zM500 100v100h-200v-100h200zM500 500h-200v-100h200v100z" />
    <glyph glyph-name="uniE0BB" unicode="&#xe0bb;" 
d="M0 -100v800h800v-800h-400v100h100v200h-200v-200h-100v-100h-200zM300 500v-100h200v100h-200z" />
    <glyph glyph-name="uniE0BC" unicode="&#xe0bc;" 
d="M500 100v100h-100v100h-100v100h100v100h100v100h200v100h100v-800h-800v800h400v-100h-100v-100h-100v-100h-100v-100h100v-100h100v-100h100v-100h300v100h-200z" />
    <glyph glyph-name="uniE0BD" unicode="&#xe0bd;" 
d="M0 -100v800h800v-800h-800zM700 400v100h-600v-100h600zM100 200h600v100h-600v-100z" />
    <glyph glyph-name="uniE0BE" unicode="&#xe0be;" 
d="M500 100v100h100v100h100v100h-100v100h-100v100h-100v100h400v-800h-800v800h100v-100h200v-100h100v-100h100v-100h-100v-100h-100v-100h-200v-100h300v100h100z" />
    <glyph glyph-name="uniE0BF" unicode="&#xe0bf;" 
d="M500 100h-200v-100h200v100zM700 400v200h-100v100h200v-800h-800v800h200v-100h-100v-100h200v100h200v-200h-100v-100h-100v-100h200v100h100v100h100z" />
    <glyph glyph-name="uniE0C0" unicode="&#xe0c0;" 
d="M0 -100v300h800v-300h-800zM0 400v300h800v-300h-800z" />
    <glyph glyph-name="uniE0C1" unicode="&#xe0c1;" 
d="M700 400v100h-100v100h-100v100h300v-300h-100zM400 700v-100h-100v-100h-100v-100h-100v-200h200v-100h-100v-100h500v100h-100v100h200v-300h-800v800h400z" />
    <glyph glyph-name="uniE0C2" unicode="&#xe0c2;" 
d="M0 -100v800h300v-800h-300zM500 700h300v-800h-300v800z" />
    <glyph glyph-name="uniE0C3" unicode="&#xe0c3;" 
d="M0 -100v300h800v-300h-800zM0 400v300h800v-300h-800z" />
    <glyph glyph-name="uniE0C4" unicode="&#xe0c4;" 
d="M0 -100v400h800v-400h-800zM0 700h800v-200h-800v200z" />
    <glyph glyph-name="uniE0C5" unicode="&#xe0c5;" 
d="M0 -100v500h800v-500h-800zM0 600v100h800v-100h-800z" />
    <glyph glyph-name="uniE0C6" unicode="&#xe0c6;" 
d="M0 -100v200h800v-200h-800zM0 300v400h800v-400h-800z" />
    <glyph glyph-name="uniE0C7" unicode="&#xe0c7;" 
d="M0 -100v800h200v-800h-200zM400 700h400v-800h-400v800z" />
    <glyph glyph-name="uniE0C8" unicode="&#xe0c8;" 
d="M0 -100v800h400v-800h-400zM600 700h200v-800h-200v800z" />
    <glyph glyph-name="uniE0C9" unicode="&#xe0c9;" 
d="M0 -100v300h200v-100h100v-200h-300zM300 300v100h-300v300h800v-800h-300v300h-100v100h-100z" />
    <glyph glyph-name="uniE0CA" unicode="&#xe0ca;" 
d="M0 -100v800h300v-300h100v-100h100v-100h300v-300h-800zM500 700h300v-300h-200v100h-100v200z" />
    <glyph glyph-name="uniE0CB" unicode="&#xe0cb;" 
d="M0 -100v300h300v100h100v100h100v300h300v-800h-800zM300 500h-100v-100h-200v300h300v-200z" />
    <glyph glyph-name="uniE0CC" unicode="&#xe0cc;" 
d="M200 700h600v-600h-600v600z" />
    <glyph glyph-name="uniE0CD" unicode="&#xe0cd;" 
d="M500 100v-100h100v-100h-600v600h100v-100h100v-100h100v-100h100v-100h100zM600 300h-100v100h-100v100h-100v100h-100v100h600v-600h-100v100h-100v100z" />
    <glyph glyph-name="uniE0CE" unicode="&#xe0ce;" 
d="M700 400v100h100v-600h-600v100h100v100h100v100h100v100h100v100h100zM300 300h-100v-100h-100v-100h-100v600h600v-100h-100v-100h-100v-100h-100v-100z" />
    <glyph glyph-name="uniE0CF" unicode="&#xe0cf;" 
d="M800 -100h-600v600h600v-600z" />
    <glyph glyph-name="uniE0D0" unicode="&#xe0d0;" 
d="M0 -100v600h600v-600h-600z" />
    <glyph glyph-name="uniE0D1" unicode="&#xe0d1;" 
d="M0 -100v800h800v-800h-800zM600 500v100h-400v-100h-100v-400h100v-100h400v100h100v400h-100z" />
    <glyph glyph-name="uniE0D2" unicode="&#xe0d2;" 
d="M0 0h800v-100h-800v100zM0 200v500h800v-500h-800z" />
    <glyph glyph-name="uniE0D3" unicode="&#xe0d3;" 
d="M500 100h100v100h100v100h100v-400h-800v800h200v-100h-100v-300h100v-100h100v-100h100v-100h100v100zM400 700h100v-100h-100v100zM700 700h100v-100h-100v100z" />
    <glyph glyph-name="uniE0D4" unicode="&#xe0d4;" 
d="M0 -100v800h100v-800h-100zM800 -100h-500v800h500v-800z" />
    <glyph glyph-name="uniE0D5" unicode="&#xe0d5;" 
d="M0 -100v800h800v-300h-300v-100h-100v-100h-100v-300h-300zM500 100h100v100h200v-300h-300v200z" />
    <glyph glyph-name="uniE0D6" unicode="&#xe0d6;" 
d="M500 100v-100h100v-100h-400v100h100v100h200zM700 400v100h100v-400h-100v100h-100v200h100zM300 500v100h-100v100h400v-100h-100v-100h-200zM100 100h-100v400h100v-100h100v-200h-100v-100z" />
    <glyph glyph-name="uniE0D7" unicode="&#xe0d7;" 
d="M0 -100v800h800v-800h-800zM600 500v100h-400v-100h-100v-400h100v-100h400v100h100v400h-100zM300 200v200h200v-200h-200z" />
    <glyph glyph-name="uniE0D8" unicode="&#xe0d8;" 
d="M0 -100v800h300v-200h-200v-200h200v-200h-100v-100h400v100h-100v200h200v200h-200v200h300v-800h-800zM300 300v200h200v-200h-200z" />
    <glyph glyph-name="uniE0D9" unicode="&#xe0d9;" 
d="M0 -100v800h500v-800h-500zM700 -100v800h100v-800h-100z" />
    <glyph glyph-name="uniE0DA" unicode="&#xe0da;" 
d="M500 100h100v100h100v100h100v-400h-800v800h400v-100h-100v-100h-100v-100h-100v-100h100v-100h100v-100h100v-100h100v100zM700 400v100h-100v100h-100v100h300v-300h-100z" />
    <glyph glyph-name="uniE0DB" unicode="&#xe0db;" 
d="M0 -100v300h300v-300h-300zM500 700h300v-300h-300v300zM800 200v-300h-300v300h300zM0 700h300v-300h-300v300z" />
    <glyph glyph-name="uniE0DC" unicode="&#xe0dc;" 
d="M0 -100v200h200v-200h-200zM400 100h-200v200h200v200h-200v200h600v-800h-400v200zM0 300v200h200v-200h-200z" />
    <glyph glyph-name="uniE0DD" unicode="&#xe0dd;" 
d="M0 -100v800h300v-800h-300zM500 700h300v-800h-300v800z" />
    <glyph glyph-name="uniE0DE" unicode="&#xe0de;" 
d="M0 -100v800h800v-200h-200v-100h-400v-100h-100v-100h100v-200h200v300h100v-300h200v400h100v-500h-800z" />
    <glyph glyph-name="uniE0DF" unicode="&#xe0df;" 
d="M500 100h100v-100h100v-100h-700v700h100v-100h100v-100h100v-100h100v-100h100v-100z" />
    <glyph glyph-name="uniE0E0" unicode="&#xe0e0;" 
d="M0 -100v800h800v-800h-800z" />
    <glyph glyph-name="uniE0E1" unicode="&#xe0e1;" 
d="M400 700h400v-800h-400v800z" />
    <glyph glyph-name="uniE0E2" unicode="&#xe0e2;" 
d="M0 300v400h800v-400h-800z" />
    <glyph glyph-name="uniE0E3" unicode="&#xe0e3;" 
d="M0 -100v700h800v-700h-800z" />
    <glyph glyph-name="uniE0E4" unicode="&#xe0e4;" 
d="M0 0v700h800v-700h-800z" />
    <glyph glyph-name="uniE0E5" unicode="&#xe0e5;" 
d="M800 -100h-600v800h600v-800z" />
    <glyph glyph-name="uniE0E6" unicode="&#xe0e6;" 
d="M0 -100v200h200v-200h-200zM600 300h-200v200h200v-200zM400 100h200v-200h-200v200zM600 500v200h200v-200h-200zM400 700v-200h-200v200h200zM800 300v-200h-200v200h200zM200 100v200h200v-200h-200zM0 300v200h200v-200h-200z" />
    <glyph glyph-name="uniE0E7" unicode="&#xe0e7;" 
d="M0 -100v800h600v-800h-600z" />
    <glyph glyph-name="uniE0E8" unicode="&#xe0e8;" 
d="M0 -100v200h200v-200h-200zM600 300h-200v-200h-200v200h-200v400h800v-600h-200v200zM400 100h200v-200h-200v200z" />
    <glyph glyph-name="uniE0E9" unicode="&#xe0e9;" 
d="M100 -100v100h100v100h100v100h100v100h100v100h100v100h100v100h100v-700h-700z" />
    <glyph glyph-name="uniE0EA" unicode="&#xe0ea;" 
d="M0 -100v800h600v-800h-600z" />
    <glyph glyph-name="uniE0EB" unicode="&#xe0eb;" 
d="M0 -100v800h300v-800h-300zM500 700h300v-300h-300v300zM800 -100h-300v300h300v-300z" />
    <glyph glyph-name="uniE0EC" unicode="&#xe0ec;" 
d="M0 -100v800h800v-400h-400v-400h-400z" />
    <glyph glyph-name="uniE0ED" unicode="&#xe0ed;" 
d="M0 -100v800h300v-500h500v-300h-800zM500 700h300v-300h-300v300z" />
    <glyph glyph-name="uniE0EE" unicode="&#xe0ee;" 
d="M0 -100v300h300v-300h-300zM0 400v300h800v-800h-300v500h-500z" />
    <glyph glyph-name="uniE0EF" unicode="&#xe0ef;" 
d="M0 100v600h800v-600h-800z" />
    <glyph glyph-name="uniE0F0" unicode="&#xe0f0;" 
d="M0 -100v800h800v-300h-500v-500h-300zM800 -100h-300v300h300v-300z" />
    <glyph glyph-name="uniE0F1" unicode="&#xe0f1;" 
d="M0 -100v300h800v-300h-800zM500 700h300v-300h-300v300zM0 400v300h300v-300h-300z" />
    <glyph glyph-name="uniE0F2" unicode="&#xe0f2;" 
d="M0 -100v300h300v-300h-300zM0 400v300h800v-300h-800zM800 -100h-300v300h300v-300z" />
    <glyph glyph-name="uniE0F3" unicode="&#xe0f3;" 
d="M0 -100v300h300v-300h-300zM500 700h300v-800h-300v800zM0 400v300h300v-300h-300z" />
    <glyph glyph-name="uniE0F4" unicode="&#xe0f4;" 
d="M800 -100h-600v800h600v-800z" />
    <glyph glyph-name="uniE0F5" unicode="&#xe0f5;" 
d="M800 -100h-500v800h500v-800z" />
    <glyph glyph-name="uniE0F6" unicode="&#xe0f6;" 
d="M0 -100v800h500v-800h-500z" />
    <glyph glyph-name="uniE0F7" unicode="&#xe0f7;" 
d="M0 -100v600h800v-600h-800z" />
    <glyph glyph-name="uniE0F8" unicode="&#xe0f8;" 
d="M0 -100v500h800v-500h-800z" />
    <glyph glyph-name="uniE0F9" unicode="&#xe0f9;" 
d="M0 200v500h800v-500h-800z" />
    <glyph glyph-name="uniE0FA" unicode="&#xe0fa;" 
d="M600 700v-600h-600v600h600z" />
    <glyph glyph-name="uniE0FB" unicode="&#xe0fb;" 
d="M400 300h-400v400h800v-800h-400v400z" />
    <glyph glyph-name="uniE0FC" unicode="&#xe0fc;" 
d="M0 -100v800h400v-400h400v-400h-800z" />
    <glyph glyph-name="uniE0FD" unicode="&#xe0fd;" 
d="M0 -100v300h500v500h300v-800h-800zM0 400v300h300v-300h-300z" />
    <glyph glyph-name="uniE0FE" unicode="&#xe0fe;" 
d="M0 -100v400h400v400h400v-800h-800z" />
    <glyph glyph-name="uniE0FF" unicode="&#xe0ff;" 
d="M0 -100v400h400v-400h-400zM400 300v400h400v-400h-400z" />
    <glyph glyph-name="uniE100" unicode="&#xe100;" 
d="M700 600v-300h-300v200h100v100h-200v-500h300v-100h-400v100h-100v500h100v100h400v-100h100zM700 200v-100h-100v100h100z" />
    <glyph glyph-name="uniE101" unicode="&#xe101;" 
d="M500 100v100h-200v-100h200zM700 400v-400h-500v100h-100v100h100v100h300v100h-300v100h400v-100h100z" />
    <glyph glyph-name="uniE102" unicode="&#xe102;" 
d="M500 100v200h-200v-200h200zM600 300h100v-200h-100v-100h-500v600h200v-200h300v-100z" />
    <glyph glyph-name="uniE103" unicode="&#xe103;" 
d="M600 100v-100h-400v100h-100v300h100v100h400v-100h-300v-300h300z" />
    <glyph glyph-name="uniE104" unicode="&#xe104;" 
d="M500 100v200h-200v-200h200zM700 600v-600h-500v100h-100v200h100v100h300v200h200z" />
    <glyph glyph-name="uniE105" unicode="&#xe105;" 
d="M700 400v-200h-400v-100h300v-100h-400v100h-100v300h100v100h400v-100h100zM300 300h200v100h-200v-100z" />
    <glyph glyph-name="uniE106" unicode="&#xe106;" 
d="M700 400v-100h-200v-300h-200v300h-100v100h100v100h100v100h300v-100h-200v-100h200z" />
    <glyph glyph-name="uniE107" unicode="&#xe107;" 
d="M500 100h-300v100h-100v200h100v100h500v-500h-100v-100h-500v100h400v100zM300 200h200v200h-200v-200z" />
    <glyph glyph-name="uniE108" unicode="&#xe108;" 
d="M500 300h-200v-300h-200v600h200v-200h300v-100h100v-300h-200v300z" />
    <glyph glyph-name="uniE109" unicode="&#xe109;" 
d="M500 100h100v-100h-400v100h100v200h-100v100h300v-300zM300 500v100h200v-100h-200z" />
    <glyph glyph-name="uniE10A" unicode="&#xe10a;" 
d="M700 400v-400h-100v-100h-400v100h300v400h200zM500 500v100h200v-100h-200z" />
    <glyph glyph-name="uniE10B" unicode="&#xe10b;" 
d="M500 100h-100v100h-100v-200h-200v600h200v-300h100v100h200v-100h-100v-100h100v-100h100v-100h-200v100z" />
    <glyph glyph-name="uniE10C" unicode="&#xe10c;" 
d="M500 100h100v-100h-400v100h100v400h-100v100h300v-500z" />
    <glyph glyph-name="uniE10D" unicode="&#xe10d;" 
d="M500 100h-100v100h-100v-200h-200v500h200v-100h200v100h200v-100h100v-400h-200v200h-100v-100z" />
    <glyph glyph-name="uniE10E" unicode="&#xe10e;" 
d="M700 400v-400h-200v400h-200v-400h-200v500h500v-100h100z" />
    <glyph glyph-name="uniE10F" unicode="&#xe10f;" 
d="M500 100v300h-200v-300h200zM700 400v-300h-100v-100h-400v100h-100v300h100v100h400v-100h100z" />
    <glyph glyph-name="uniE110" unicode="&#xe110;" 
d="M700 400v-200h-100v-100h-300v-200h-200v600h500v-100h100zM300 200h200v200h-200v-200z" />
    <glyph glyph-name="uniE111" unicode="&#xe111;" 
d="M500 100h-300v100h-100v200h100v100h500v-600h-200v200zM300 200h200v200h-200v-200z" />
    <glyph glyph-name="uniE112" unicode="&#xe112;" 
d="M500 300v100h-200v-400h-200v500h500v-100h100v-100h-200z" />
    <glyph glyph-name="uniE113" unicode="&#xe113;" 
d="M500 100v100h-300v100h-100v100h100v100h500v-100h-400v-100h300v-100h100v-100h-100v-100h-500v100h400z" />
    <glyph glyph-name="uniE114" unicode="&#xe114;" 
d="M500 100h200v-100h-300v100h-100v300h-200v100h200v100h200v-100h200v-100h-200v-300z" />
    <glyph glyph-name="uniE115" unicode="&#xe115;" 
d="M500 100v400h200v-500h-500v100h-100v400h200v-400h200z" />
    <glyph glyph-name="uniE116" unicode="&#xe116;" 
d="M500 100v-100h-200v100h-100v100h-100v300h200v-300h200v300h200v-300h-100v-100h-100z" />
    <glyph glyph-name="uniE117" unicode="&#xe117;" 
d="M500 100h-100v-100h-200v200h-100v300h200v-200h100v100h100v-100h100v200h200v-300h-100v-200h-200v100z" />
    <glyph glyph-name="uniE118" unicode="&#xe118;" 
d="M500 100h-200v-100h-200v100h100v100h100v100h-100v100h-100v100h200v-100h200v100h200v-100h-100v-100h-100v-100h100v-100h100v-100h-200v100z" />
    <glyph glyph-name="uniE119" unicode="&#xe119;" 
d="M100 -100v100h300v100h-200v100h-100v300h200v-300h200v300h200v-400h-100v-100h-100v-100h-400z" />
    <glyph glyph-name="uniE11A" unicode="&#xe11a;" 
d="M700 400h-100v-100h-100v-100h-100v-100h300v-100h-600v100h100v100h100v100h100v100h-300v100h600v-100z" />
    <glyph glyph-name="uniE11B" unicode="&#xe11b;" 
d="M600 700v-100h-200v-500h200v-100h-400v700h400z" />
    <glyph glyph-name="uniE11C" unicode="&#xe11c;" 
d="M0 0v100h100v100h100v100h-100v100h100v100h100v100h100v-200h200v-100h-200v-100h-100v-100h300v-100h-600zM600 500v100h100v-100h-100zM400 700h200v-100h-200v100zM700 200v-100h-100v100h100z" />
    <glyph glyph-name="uniE11D" unicode="&#xe11d;" 
d="M600 700v-700h-400v100h200v500h-200v100h400z" />
    <glyph glyph-name="uniE11E" unicode="&#xe11e;" 
d="M700 400v-100h-200v-400h-200v400h-200v100h100v100h100v100h200v-100h100v-100h100z" />
    <glyph glyph-name="uniE11F" unicode="&#xe11f;" 
d="M800 200h-400v-200h-100v100h-100v100h-100v200h100v100h100v100h100v-200h400v-200z" />
    <glyph glyph-name="uniE120" unicode="&#xe120;" 
 />
    <glyph glyph-name="uniE121" unicode="&#xe121;" 
d="M500 100v-100h-200v100h200zM500 300h-200v400h200v-400z" />
    <glyph glyph-name="uniE122" unicode="&#xe122;" 
d="M500 700h200v-300h-200v300zM100 400v300h200v-300h-200z" />
    <glyph glyph-name="uniE123" unicode="&#xe123;" 
d="M700 400v-100h100v-100h-100v-200h-200v200h-200v-200h-200v200h-100v100h100v100h-100v100h100v200h200v-200h200v200h200v-200h100v-100h-100zM300 300h200v100h-200v-100z" />
    <glyph glyph-name="uniE124" unicode="&#xe124;" 
d="M500 100v-100h-200v100h-200v100h400v100h-300v100h-100v100h100v100h100v100h200v-100h200v-100h-400v-100h300v-100h100v-100h-100v-100h-100z" />
    <glyph glyph-name="uniE125" unicode="&#xe125;" 
d="M600 500v-100h-100v-100h-100v-100h-100v-100h-100v-100h-100v200h100v100h100v100h100v100h100v100h100v100h100v-200h-100zM700 200v-200h-200v200h200zM300 500h-200v200h200v-200z" />
    <glyph glyph-name="uniE126" unicode="&#xe126;" 
d="M500 100v200h300v-100h-100v-100h100v-100h-600v100h-100v200h100v200h-100v100h100v100h400v-100h100v-100h-100v-100h-100v-100h-200v-200h200zM300 500h200v100h-200v-100z" />
    <glyph glyph-name="uniE127" unicode="&#xe127;" 
d="M500 700h200v-100h-100v-100h-100v-100h-200v100h100v100h100v100z" />
    <glyph glyph-name="uniE128" unicode="&#xe128;" 
d="M500 100h100v-100h-200v100h-100v100h-100v300h100v100h100v100h200v-100h-100v-100h-100v-300h100v-100z" />
    <glyph glyph-name="uniE129" unicode="&#xe129;" 
d="M500 100h-100v-100h-200v100h100v100h100v300h-100v100h-100v100h200v-100h100v-100h100v-300h-100v-100z" />
    <glyph glyph-name="uniE12A" unicode="&#xe12a;" 
d="M500 100v100h-200v-100h-200v100h100v100h-200v100h200v100h-100v100h200v-100h200v100h200v-100h-100v-100h200v-100h-200v-100h100v-100h-200z" />
    <glyph glyph-name="uniE12B" unicode="&#xe12b;" 
d="M500 100h-200v200h-200v100h200v200h200v-200h200v-100h-200v-200z" />
    <glyph glyph-name="uniE12C" unicode="&#xe12c;" 
d="M200 -100v100h100v200h200v-200h-100v-100h-200z" />
    <glyph glyph-name="uniE12D" unicode="&#xe12d;" 
d="M700 400v-100h-600v100h600z" />
    <glyph glyph-name="uniE12E" unicode="&#xe12e;" 
d="M500 0h-200v200h200v-200z" />
    <glyph glyph-name="uniE12F" unicode="&#xe12f;" 
d="M700 400h-100v-100h-100v-100h-100v-100h-100v-100h-200v100h100v100h100v100h100v100h100v100h100v100h200v-100h-100v-100z" />
    <glyph glyph-name="uniE130" unicode="&#xe130;" 
d="M500 100v300h-100v100h100v100h-200v-200h100v-100h-100v-200h200zM700 600v-500h-100v-100h-400v100h-100v500h100v100h400v-100h100z" />
    <glyph glyph-name="uniE131" unicode="&#xe131;" 
d="M500 100h200v-100h-600v100h200v300h-100v100h100v200h200v-600z" />
    <glyph glyph-name="uniE132" unicode="&#xe132;" 
d="M600 300h-200v100h100v200h-200v-100h-200v100h100v100h400v-100h100v-200h-100v-100zM700 0h-600v200h100v100h200v-100h-100v-100h400v-100z" />
    <glyph glyph-name="uniE133" unicode="&#xe133;" 
d="M500 100v200h-200v100h200v200h-200v-100h-200v100h100v100h400v-100h100v-200h-100v-100h100v-200h-100v-100h-400v100h-100v100h200v-100h200z" />
    <glyph glyph-name="uniE134" unicode="&#xe134;" 
d="M500 700h200v-400h100v-100h-100v-200h-200v200h-400v200h200v-100h200v100h-200v100h100v100h100v100z" />
    <glyph glyph-name="uniE135" unicode="&#xe135;" 
d="M500 100v300h-400v300h600v-100h-400v-100h300v-100h100v-300h-100v-100h-400v100h-100v100h200v-100h200z" />
    <glyph glyph-name="uniE136" unicode="&#xe136;" 
d="M500 100v200h-200v-200h200zM600 300h100v-200h-100v-100h-400v100h-100v500h100v100h400v-100h100v-100h-200v100h-200v-200h300v-100z" />
    <glyph glyph-name="uniE137" unicode="&#xe137;" 
d="M600 500v-100h-100v-400h-200v400h100v100h100v100h-200v-100h-200v200h600v-200h-100z" />
    <glyph glyph-name="uniE138" unicode="&#xe138;" 
d="M500 100v200h-200v-200h200zM700 400h-100v-100h100v-200h-100v-100h-400v100h-100v200h100v100h-100v200h100v100h400v-100h100v-200zM300 600v-200h200v200h-200z" />
    <glyph glyph-name="uniE139" unicode="&#xe139;" 
d="M500 100v200h-300v100h-100v200h100v100h400v-100h100v-500h-100v-100h-400v100h-100v100h200v-100h200zM300 600v-200h200v200h-200z" />
    <glyph glyph-name="uniE13A" unicode="&#xe13a;" 
d="M500 100h-200v100h200v-100zM500 500v-100h-200v100h200z" />
    <glyph glyph-name="uniE13B" unicode="&#xe13b;" 
d="M500 500v-100h-200v100h200zM200 0h100v200h200v-200h-100v-100h-200v100z" />
    <glyph glyph-name="uniE13C" unicode="&#xe13c;" 
d="M500 100h200v-100h-300v100h-100v100h-100v100h-100v100h100v100h100v100h100v100h300v-100h-200v-100h-100v-100h-100v-100h100v-100h100v-100z" />
    <glyph glyph-name="uniE13D" unicode="&#xe13d;" 
d="M700 400h-600v100h600v-100zM700 200h-600v100h600v-100z" />
    <glyph glyph-name="uniE13E" unicode="&#xe13e;" 
d="M500 100h-100v-100h-300v100h200v100h100v100h100v100h-100v100h-100v100h-200v100h300v-100h100v-100h100v-100h100v-100h-100v-100h-100v-100z" />
    <glyph glyph-name="uniE13F" unicode="&#xe13f;" 
d="M500 100v-100h-200v100h200zM700 400h-100v-100h-100v-100h-200v100h100v100h100v200h-200v-100h-200v100h100v100h400v-100h100v-200z" />
    <glyph glyph-name="uniE140" unicode="&#xe140;" 
d="M0 200v200h800v-200h-800z" />
    <glyph glyph-name="uniE141" unicode="&#xe141;" 
d="M500 700v-100h100v-100h100v-500h-200v300h-200v-300h-200v500h100v100h100v100h200zM300 500v-100h200v100h-200z" />
    <glyph glyph-name="uniE142" unicode="&#xe142;" 
d="M500 100v200h-200v-200h200zM700 400h-100v-100h100v-200h-100v-100h-500v700h500v-100h100v-200zM300 600v-200h200v200h-200z" />
    <glyph glyph-name="uniE143" unicode="&#xe143;" 
d="M500 100v100h200v-100h-100v-100h-400v100h-100v500h100v100h400v-100h100v-100h-200v100h-200v-500h200z" />
    <glyph glyph-name="uniE144" unicode="&#xe144;" 
d="M500 100v-100h-400v700h400v-100h100v-100h100v-300h-100v-100h-100zM400 100v100h100v300h-100v100h-100v-500h100z" />
    <glyph glyph-name="uniE145" unicode="&#xe145;" 
d="M500 300h-200v-200h400v-100h-600v700h600v-100h-400v-200h200v-100z" />
    <glyph glyph-name="uniE146" unicode="&#xe146;" 
d="M500 300h-200v-300h-200v700h600v-100h-400v-200h200v-100z" />
    <glyph glyph-name="uniE147" unicode="&#xe147;" 
d="M500 100v200h-100v100h300v-300h-100v-100h-400v100h-100v500h100v100h400v-100h100v-100h-200v100h-200v-500h200z" />
    <glyph glyph-name="uniE148" unicode="&#xe148;" 
d="M500 300h-200v-300h-200v700h200v-300h200v300h200v-700h-200v300z" />
    <glyph glyph-name="uniE149" unicode="&#xe149;" 
d="M500 100h100v-100h-400v100h100v500h-100v100h400v-100h-100v-500z" />
    <glyph glyph-name="uniE14A" unicode="&#xe14a;" 
d="M500 100v-100h-300v100h-100v100h200v-100h100v500h-100v100h400v-100h-100v-500h-100z" />
    <glyph glyph-name="uniE14B" unicode="&#xe14b;" 
d="M500 100h-100v100h-100v-200h-200v700h200v-200h100v100h100v100h200v-100h-100v-100h-100v-100h-100v-100h100v-100h100v-100h100v-100h-200v100z" />
    <glyph glyph-name="uniE14C" unicode="&#xe14c;" 
d="M700 0h-600v700h200v-600h400v-100z" />
    <glyph glyph-name="uniE14D" unicode="&#xe14d;" 
d="M100 0v700h200v-100h100v-100h100v100h100v100h200v-700h-200v400h-100v-100h-100v100h-100v-400h-200z" />
    <glyph glyph-name="uniE14E" unicode="&#xe14e;" 
d="M500 700h200v-700h-200v200h-100v100h-100v-300h-200v700h200v-100h100v-100h100v200z" />
    <glyph glyph-name="uniE14F" unicode="&#xe14f;" 
d="M500 100v500h-200v-500h200zM700 600v-500h-100v-100h-400v100h-100v500h100v100h400v-100h100z" />
    <glyph glyph-name="uniE150" unicode="&#xe150;" 
d="M600 300h-300v-300h-200v700h500v-100h100v-200h-100v-100zM300 600v-200h200v200h-200z" />
    <glyph glyph-name="uniE151" unicode="&#xe151;" 
d="M400 100h-200v100h-100v400h100v100h400v-100h100v-400h-100v-100h100v-100h-300v100zM300 200h200v400h-200v-400z" />
    <glyph glyph-name="uniE152" unicode="&#xe152;" 
d="M500 100h-100v100h-100v-200h-200v700h500v-100h100v-200h-100v-100h-100v-100h100v-100h100v-100h-200v100zM300 600v-200h200v200h-200z" />
    <glyph glyph-name="uniE153" unicode="&#xe153;" 
d="M500 100v200h-300v100h-100v200h100v100h400v-100h100v-100h-200v100h-200v-200h300v-100h100v-200h-100v-100h-400v100h-100v100h200v-100h200z" />
    <glyph glyph-name="uniE154" unicode="&#xe154;" 
d="M100 600v100h600v-100h-200v-600h-200v600h-200z" />
    <glyph glyph-name="uniE155" unicode="&#xe155;" 
d="M500 100v600h200v-600h-100v-100h-400v100h-100v600h200v-600h200z" />
    <glyph glyph-name="uniE156" unicode="&#xe156;" 
d="M500 100v-100h-200v100h-100v100h-100v500h200v-500h200v500h200v-500h-100v-100h-100z" />
    <glyph glyph-name="uniE157" unicode="&#xe157;" 
d="M500 100v100h-100v-100h-100v-100h-200v700h200v-400h100v100h100v-100h100v400h200v-700h-200v100h-100z" />
    <glyph glyph-name="uniE158" unicode="&#xe158;" 
d="M600 300v-100h100v-200h-200v200h-200v-200h-200v200h100v100h100v100h-100v100h-100v200h200v-200h200v200h200v-200h-100v-100h-100v-100h100z" />
    <glyph glyph-name="uniE159" unicode="&#xe159;" 
d="M600 300h-100v-300h-200v300h-100v100h-100v300h200v-300h200v300h200v-300h-100v-100z" />
    <glyph glyph-name="uniE15A" unicode="&#xe15a;" 
d="M600 500v-100h-100v-100h-100v-100h-100v-100h400v-100h-600v200h100v100h100v100h100v100h100v100h-400v100h600v-200h-100z" />
    <glyph glyph-name="uniE15B" unicode="&#xe15b;" 
d="M0 200v200h300v300h200v-300h300v-200h-300v-300h-200v300h-300z" />
    <glyph glyph-name="uniE15C" unicode="&#xe15c;" 
d="M400 100v-200h-200v200h200zM0 100v200h200v-200h-200zM0 700h200v-200h-200v200zM400 500v-200h-200v200h200z" />
    <glyph glyph-name="uniE15D" unicode="&#xe15d;" 
d="M500 700v-800h-200v800h200z" />
    <glyph glyph-name="uniE15E" unicode="&#xe15e;" 
d="M0 -100v200h200v-200h-200zM600 300h-200v200h200v-200zM400 100h200v-200h-200v200zM600 500v200h200v-200h-200zM400 700v-200h-200v200h200zM800 300v-200h-200v200h200zM200 100v200h200v-200h-200zM0 300v200h200v-200h-200z" />
    <glyph glyph-name="uniE15F" unicode="&#xe15f;" 
d="M0 0v200h100v-100h100v-100h100v-100h-200v100h-100zM600 300h-100v100h-100v100h-100v100h-100v100h200v-100h100v-100h100v-100h100v-100h100v-200h-100v100h-100v100zM600 600v100h200v-200h-100v100h-100zM400 0v100h-100v100h-100v100h-100v100h-100v200h100v-100
h100v-100h100v-100h100v-100h100v-100h100v-100h100v-100h-200v100h-100z" />
    <glyph glyph-name="uniE160" unicode="&#xe160;" 
 />
    <glyph glyph-name="uniE161" unicode="&#xe161;" 
d="M0 -100v800h400v-800h-400z" />
    <glyph glyph-name="uniE162" unicode="&#xe162;" 
d="M0 -100v400h800v-400h-800z" />
    <glyph glyph-name="uniE163" unicode="&#xe163;" 
d="M0 600v100h800v-100h-800z" />
    <glyph glyph-name="uniE164" unicode="&#xe164;" 
d="M0 0h800v-100h-800v100z" />
    <glyph glyph-name="uniE165" unicode="&#xe165;" 
d="M0 -100v800h200v-800h-200z" />
    <glyph glyph-name="uniE166" unicode="&#xe166;" 
d="M600 300v-200h-200v200h200zM400 100v-200h-200v200h200zM600 500h-200v200h200v-200zM0 100v200h200v-200h-200zM0 700h200v-200h-200v200zM800 300h-200v200h200v-200zM400 500v-200h-200v200h200zM600 100h200v-200h-200v200z" />
    <glyph glyph-name="uniE167" unicode="&#xe167;" 
d="M600 700h200v-800h-200v800z" />
    <glyph glyph-name="uniE168" unicode="&#xe168;" 
d="M600 300v-200h-200v200h200zM400 100v-200h-200v200h200zM0 100v200h200v-200h-200zM600 100h200v-200h-200v200z" />
    <glyph glyph-name="uniE169" unicode="&#xe169;" 
d="M700 400v-100h-100v-100h-100v-100h-100v-100h-100v-100h-200v100h100v100h100v100h100v100h100v100h100v100h100v100h100v-200h-100zM300 500v100h100v100h200v-100h-100v-100h-100v-100h-100v-100h-100v-100h-100v-100h-100v200h100v100h100v100h100zM200 700v-100
h-100v-100h-100v200h200zM700 0v-100h-200v100h100v100h100v100h100v-200h-100z" />
    <glyph glyph-name="uniE16A" unicode="&#xe16a;" 
d="M600 700h200v-800h-200v800z" />
    <glyph glyph-name="uniE16B" unicode="&#xe16b;" 
d="M500 700v-300h300v-200h-300v-300h-200v800h200z" />
    <glyph glyph-name="uniE16C" unicode="&#xe16c;" 
d="M400 300h400v-400h-400v400z" />
    <glyph glyph-name="uniE16D" unicode="&#xe16d;" 
d="M500 700v-300h300v-200h-500v500h200z" />
    <glyph glyph-name="uniE16E" unicode="&#xe16e;" 
d="M0 200v200h500v-500h-200v300h-300z" />
    <glyph glyph-name="uniE16F" unicode="&#xe16f;" 
d="M0 -100v200h800v-200h-800z" />
    <glyph glyph-name="uniE170" unicode="&#xe170;" 
d="M800 200h-300v-300h-200v500h500v-200z" />
    <glyph glyph-name="uniE171" unicode="&#xe171;" 
d="M0 200v200h300v300h200v-300h300v-200h-800z" />
    <glyph glyph-name="uniE172" unicode="&#xe172;" 
d="M0 200v200h800v-200h-300v-300h-200v300h-300z" />
    <glyph glyph-name="uniE173" unicode="&#xe173;" 
d="M0 200v200h300v300h200v-800h-200v300h-300z" />
    <glyph glyph-name="uniE174" unicode="&#xe174;" 
d="M0 -100v800h200v-800h-200z" />
    <glyph glyph-name="uniE175" unicode="&#xe175;" 
d="M0 -100v800h300v-800h-300z" />
    <glyph glyph-name="uniE176" unicode="&#xe176;" 
d="M500 700h300v-800h-300v800z" />
    <glyph glyph-name="uniE177" unicode="&#xe177;" 
d="M0 700h800v-200h-800v200z" />
    <glyph glyph-name="uniE178" unicode="&#xe178;" 
d="M0 400v300h800v-300h-800z" />
    <glyph glyph-name="uniE179" unicode="&#xe179;" 
d="M0 -100v300h800v-300h-800z" />
    <glyph glyph-name="uniE17A" unicode="&#xe17a;" 
d="M700 400h-100v-100h-100v-100h-100v-100h-100v-100h-200v400h200v-100h100v100h100v100h100v100h100v100h100v-200h-100v-100z" />
    <glyph glyph-name="uniE17B" unicode="&#xe17b;" 
d="M0 -100v400h400v-400h-400z" />
    <glyph glyph-name="uniE17C" unicode="&#xe17c;" 
d="M400 300v400h400v-400h-400z" />
    <glyph glyph-name="uniE17D" unicode="&#xe17d;" 
d="M0 200v200h300v300h200v-500h-500z" />
    <glyph glyph-name="uniE17E" unicode="&#xe17e;" 
d="M400 300h-400v400h400v-400z" />
    <glyph glyph-name="uniE17F" unicode="&#xe17f;" 
d="M400 300h-400v400h400v-400zM800 -100h-400v400h400v-400z" />
    <glyph glyph-name="uniE180" unicode="&#xe180;" 
d="M500 100h-200v500h200v-100h-100v-200h300v300h-100v100h200v-800h-800v800h200v-100h-100v-500h100v-100h400v100h100v100h-200v-100z" />
    <glyph glyph-name="uniE181" unicode="&#xe181;" 
d="M0 -100v800h800v-800h-800zM500 100h-200v100h200v-100zM700 400h-100v100h-400v-100h300v-100h-300v-100h-100v-100h100v-100h500v400z" />
    <glyph glyph-name="uniE182" unicode="&#xe182;" 
d="M0 -100v800h800v-800h-800zM500 100h-200v200h200v-200zM600 300v100h-300v200h-200v-600h500v100h100v200h-100z" />
    <glyph glyph-name="uniE183" unicode="&#xe183;" 
d="M0 -100v800h800v-800h-800zM600 500h-400v-100h-100v-300h100v-100h400v100h-300v300h300v100z" />
    <glyph glyph-name="uniE184" unicode="&#xe184;" 
d="M0 -100v800h800v-800h-800zM500 100h-200v200h200v-200zM700 600h-200v-200h-300v-100h-100v-200h100v-100h500v600z" />
    <glyph glyph-name="uniE185" unicode="&#xe185;" 
d="M0 -100v800h800v-800h-800zM700 400h-100v100h-400v-100h-100v-300h100v-100h400v100h-300v100h400v200zM300 300v100h200v-100h-200z" />
    <glyph glyph-name="uniE186" unicode="&#xe186;" 
d="M0 -100v800h800v-800h-800zM700 400h-200v100h200v100h-300v-100h-100v-100h-100v-100h100v-300h200v300h200v100z" />
    <glyph glyph-name="uniE187" unicode="&#xe187;" 
d="M0 -100v800h800v-800h-200v100h100v500h-500v-100h-100v-200h100v-100h300v-100h-400v-100h-100zM300 200v200h200v-200h-200z" />
    <glyph glyph-name="uniE188" unicode="&#xe188;" 
d="M0 -100v800h800v-800h-800zM600 300v100h-300v200h-200v-600h200v300h200v-300h200v300h-100z" />
    <glyph glyph-name="uniE189" unicode="&#xe189;" 
d="M0 -100v800h800v-800h-800zM500 100v300h-300v-100h100v-200h-100v-100h400v100h-100zM300 500h200v100h-200v-100z" />
    <glyph glyph-name="uniE18A" unicode="&#xe18a;" 
d="M0 -100v800h800v-800h-200v100h100v400h-200v-400h-300v-100h-200zM700 600h-200v-100h200v100z" />
    <glyph glyph-name="uniE18B" unicode="&#xe18b;" 
d="M0 -100v800h800v-800h-800zM500 100v-100h200v100h-100v100h-100v100h100v100h-200v-100h-100v300h-200v-600h200v200h100v-100h100z" />
    <glyph glyph-name="uniE18C" unicode="&#xe18c;" 
d="M0 -100v800h800v-800h-800zM500 100v500h-300v-100h100v-400h-100v-100h400v100h-100z" />
    <glyph glyph-name="uniE18D" unicode="&#xe18d;" 
d="M0 -100v800h800v-300h-100v100h-200v-100h-200v100h-200v-500h200v200h100v-100h100v100h100v-200h200v-100h-800z" />
    <glyph glyph-name="uniE18E" unicode="&#xe18e;" 
d="M0 -100v800h800v-800h-800zM700 400h-100v100h-500v-500h200v400h200v-400h200v400z" />
    <glyph glyph-name="uniE18F" unicode="&#xe18f;" 
d="M0 -100v800h800v-800h-800zM500 100h-200v300h200v-300zM700 400h-100v100h-400v-100h-100v-300h100v-100h400v100h100v300z" />
    <glyph glyph-name="uniE190" unicode="&#xe190;" 
d="M0 -100v800h800v-800h-500v200h300v100h100v200h-100v100h-500v-600h-100zM300 200v200h200v-200h-200z" />
    <glyph glyph-name="uniE191" unicode="&#xe191;" 
d="M0 -100v800h800v-800h-100v600h-500v-100h-100v-200h100v-100h300v-200h-500zM300 200v200h200v-200h-200z" />
    <glyph glyph-name="uniE192" unicode="&#xe192;" 
d="M0 -100v800h800v-800h-800zM700 400h-100v100h-500v-500h200v400h200v-100h200v100z" />
    <glyph glyph-name="uniE193" unicode="&#xe193;" 
d="M0 -100v800h800v-800h-800zM500 100h-400v-100h500v100h100v100h-100v100h-300v100h400v100h-500v-100h-100v-100h100v-100h300v-100z" />
    <glyph glyph-name="uniE194" unicode="&#xe194;" 
d="M0 -100v800h800v-800h-800zM500 100v300h200v100h-200v100h-200v-100h-200v-100h200v-300h100v-100h300v100h-200z" />
    <glyph glyph-name="uniE195" unicode="&#xe195;" 
d="M0 -100v800h800v-800h-800zM500 100h-200v400h-200v-400h100v-100h500v500h-200v-400z" />
    <glyph glyph-name="uniE196" unicode="&#xe196;" 
d="M0 -100v800h800v-800h-800zM500 100h100v100h100v300h-200v-300h-200v300h-200v-300h100v-100h100v-100h200v100z" />
    <glyph glyph-name="uniE197" unicode="&#xe197;" 
d="M0 -100v800h800v-200h-200v-200h-100v100h-100v-100h-100v200h-200v-300h100v-200h200v100h100v-100h200v200h100v-300h-800z" />
    <glyph glyph-name="uniE198" unicode="&#xe198;" 
d="M500 100v-100h200v100h-100v100h-100v100h100v100h100v100h-200v-100h-200v100h-200v-100h100v-100h100v-100h-100v-100h-100v-100h200v100h200zM0 700h800v-800h-800v800z" />
    <glyph glyph-name="uniE199" unicode="&#xe199;" 
d="M0 -100v800h800v-800h-300v100h100v100h100v400h-200v-300h-200v300h-200v-300h100v-100h200v-100h-300v-100h-100z" />
    <glyph glyph-name="uniE19A" unicode="&#xe19a;" 
d="M0 -100v800h800v-800h-800zM700 400v100h-600v-100h300v-100h-100v-100h-100v-100h-100v-100h600v100h-300v100h100v100h100v100h100z" />
    <glyph glyph-name="uniE19B" unicode="&#xe19b;" 
d="M0 -100v800h200v-700h400v100h-200v500h200v100h200v-800h-800z" />
    <glyph glyph-name="uniE19C" unicode="&#xe19c;" 
d="M0 0h600v100h100v100h-100v-100h-300v100h100v100h200v100h-200v200h200v-100h100v100h-100v100h200v-800h-800v100zM400 700v-100h-100v-100h-100v-100h-100v-100h100v-100h-100v-100h-100v600h400z" />
    <glyph glyph-name="uniE19D" unicode="&#xe19d;" 
d="M0 -100v800h200v-100h200v-500h-200v-100h400v700h200v-800h-800z" />
    <glyph glyph-name="uniE19E" unicode="&#xe19e;" 
d="M0 -100v800h800v-800h-300v400h200v100h-100v100h-100v100h-200v-100h-100v-100h-100v-100h200v-400h-300z" />
    <glyph glyph-name="uniE19F" unicode="&#xe19f;" 
d="M0 -100v800h800v-300h-400v200h-100v-100h-100v-100h-100v-200h100v-100h100v-100h100v200h400v-300h-800z" />
    <glyph glyph-name="uniE1A0" unicode="&#xe1a0;" 
d="M0 -100v800h800v-800h-800z" />
    <glyph glyph-name="uniE1A1" unicode="&#xe1a1;" 
d="M500 300v400h300v-800h-800v800h300v-400h200zM500 100h-200v-100h200v100z" />
    <glyph glyph-name="uniE1A2" unicode="&#xe1a2;" 
d="M0 -100v800h100v-300h200v300h200v-300h200v300h100v-800h-800z" />
    <glyph glyph-name="uniE1A3" unicode="&#xe1a3;" 
d="M700 400h100v-100h-100v100zM700 200h100v-300h-800v300h100v-200h200v200h200v-200h200v200zM300 300v100h200v-100h-200zM300 500v200h200v-200h-200zM0 700h100v-200h-100v200zM0 400h100v-100h-100v100zM700 700h100v-200h-100v200z" />
    <glyph glyph-name="uniE1A4" unicode="&#xe1a4;" 
d="M500 100h100v100h100v100h-100v100h-300v100h400v100h-200v100h300v-800h-800v800h300v-100h-100v-100h-100v-100h100v-100h300v-100h-400v-100h200v-100h200v100z" />
    <glyph glyph-name="uniE1A5" unicode="&#xe1a5;" 
d="M600 500h100v200h100v-800h-800v800h100v-200h200v200h300v-100h-100v-100h-100v-100h-100v-100h-100v-100h-100v-200h100v100h100v100h100v100h100v100h100v100zM700 200h-200v-200h200v200z" />
    <glyph glyph-name="uniE1A6" unicode="&#xe1a6;" 
d="M500 100h-200v200h200v-200zM600 500h100v100h-100v100h200v-400h-300v100h100v100zM700 200h100v-100h-100v100zM200 0h600v-100h-800v800h200v-100h-100v-100h100v-200h-100v-200h100v-100zM300 500v100h200v-100h-200z" />
    <glyph glyph-name="uniE1A7" unicode="&#xe1a7;" 
d="M0 -100v800h500v-100h-100v-100h-100v-100h200v100h100v100h100v100h100v-800h-800z" />
    <glyph glyph-name="uniE1A8" unicode="&#xe1a8;" 
d="M0 -100v800h400v-100h-100v-100h-100v-300h100v-100h100v-100h200v100h-100v100h-100v300h100v100h100v100h200v-800h-800z" />
    <glyph glyph-name="uniE1A9" unicode="&#xe1a9;" 
d="M0 -100v800h200v-100h100v-100h100v-300h-100v-100h-100v-100h200v100h100v100h100v300h-100v100h-100v100h400v-800h-800z" />
    <glyph glyph-name="uniE1AA" unicode="&#xe1aa;" 
d="M500 100h200v100h-100v100h200v-400h-800v400h200v-100h-100v-100h200v100h200v-100zM600 500h100v100h-200v-100h-200v100h-200v-100h100v-100h-200v300h800v-300h-200v100z" />
    <glyph glyph-name="uniE1AB" unicode="&#xe1ab;" 
d="M0 -100v800h800v-800h-800zM500 100v200h200v100h-200v200h-200v-200h-200v-100h200v-200h200z" />
    <glyph glyph-name="uniE1AC" unicode="&#xe1ac;" 
d="M0 -100v800h800v-800h-400v100h100v200h-200v-200h-100v-100h-200z" />
    <glyph glyph-name="uniE1AD" unicode="&#xe1ad;" 
d="M0 -100v800h800v-800h-800zM700 400h-600v-100h600v100z" />
    <glyph glyph-name="uniE1AE" unicode="&#xe1ae;" 
d="M0 -100v800h800v-800h-800zM500 0v200h-200v-200h200z" />
    <glyph glyph-name="uniE1AF" unicode="&#xe1af;" 
d="M700 400v100h100v-600h-800v800h800v-100h-200v-100h-100v-100h-100v-100h-100v-100h-100v-100h-100v-100h200v100h100v100h100v100h100v100h100z" />
    <glyph glyph-name="uniE1B0" unicode="&#xe1b0;" 
d="M500 100h-200v200h100v100h100v-300zM200 0h400v100h100v500h-100v100h200v-800h-800v800h200v-100h-100v-500h100v-100zM300 600h200v-100h-100v-100h-100v200z" />
    <glyph glyph-name="uniE1B1" unicode="&#xe1b1;" 
d="M0 -100v800h300v-200h-100v-100h100v-300h-200v-100h600v100h-200v600h300v-800h-800z" />
    <glyph glyph-name="uniE1B2" unicode="&#xe1b2;" 
d="M700 400v200h-100v100h200v-800h-800v800h200v-100h-100v-100h200v100h200v-200h-100v-100h-200v-100h-100v-200h600v100h-400v100h100v100h200v100h100z" />
    <glyph glyph-name="uniE1B3" unicode="&#xe1b3;" 
d="M500 100h-200v100h-200v-100h100v-100h400v100h100v200h-100v100h100v200h-100v100h200v-800h-800v800h200v-100h-100v-100h200v100h200v-200h-200v-100h200v-200z" />
    <glyph glyph-name="uniE1B4" unicode="&#xe1b4;" 
d="M0 -100v800h500v-100h-100v-100h-100v-100h-200v-200h400v-200h200v200h100v-300h-800zM300 300v100h200v-100h-200zM700 300v400h100v-400h-100z" />
    <glyph glyph-name="uniE1B5" unicode="&#xe1b5;" 
d="M0 -100v800h100v-300h400v-300h-200v100h-200v-100h100v-100h400v100h100v300h-100v100h-300v100h400v100h100v-800h-800z" />
    <glyph glyph-name="uniE1B6" unicode="&#xe1b6;" 
d="M500 100h-200v200h200v-200zM600 300v100h-300v200h200v-100h200v100h-100v100h200v-800h-800v800h200v-100h-100v-500h100v-100h400v100h100v200h-100z" />
    <glyph glyph-name="uniE1B7" unicode="&#xe1b7;" 
d="M0 -100v800h100v-200h200v100h200v-100h-100v-100h-100v-400h200v400h100v100h100v200h100v-800h-800z" />
    <glyph glyph-name="uniE1B8" unicode="&#xe1b8;" 
d="M500 100h-200v200h200v-200zM700 400v200h-100v100h200v-800h-800v800h200v-100h-100v-200h100v-100h-100v-200h100v-100h400v100h100v200h-100v100h100zM300 600h200v-200h-200v200z" />
    <glyph glyph-name="uniE1B9" unicode="&#xe1b9;" 
d="M500 100h-200v100h-200v-100h100v-100h400v100h100v500h-100v100h200v-800h-800v800h200v-100h-100v-200h100v-100h300v-200zM300 600h200v-200h-200v200z" />
    <glyph glyph-name="uniE1BA" unicode="&#xe1ba;" 
d="M0 -100v800h800v-800h-800zM500 100v100h-200v-100h200zM500 500h-200v-100h200v100z" />
    <glyph glyph-name="uniE1BB" unicode="&#xe1bb;" 
d="M0 -100v800h800v-800h-400v100h100v200h-200v-200h-100v-100h-200zM300 500v-100h200v100h-200z" />
    <glyph glyph-name="uniE1BC" unicode="&#xe1bc;" 
d="M500 100v100h-100v100h-100v100h100v100h100v100h200v100h100v-800h-800v800h400v-100h-100v-100h-100v-100h-100v-100h100v-100h100v-100h100v-100h300v100h-200z" />
    <glyph glyph-name="uniE1BD" unicode="&#xe1bd;" 
d="M0 -100v800h800v-800h-800zM700 400v100h-600v-100h600zM100 200h600v100h-600v-100z" />
    <glyph glyph-name="uniE1BE" unicode="&#xe1be;" 
d="M500 100v100h100v100h100v100h-100v100h-100v100h-100v100h400v-800h-800v800h100v-100h200v-100h100v-100h100v-100h-100v-100h-100v-100h-200v-100h300v100h100z" />
    <glyph glyph-name="uniE1BF" unicode="&#xe1bf;" 
d="M500 100h-200v-100h200v100zM700 400v200h-100v100h200v-800h-800v800h200v-100h-100v-100h200v100h200v-200h-100v-100h-100v-100h200v100h100v100h100z" />
    <glyph glyph-name="uniE1C0" unicode="&#xe1c0;" 
d="M0 -100v300h800v-300h-800zM0 400v300h800v-300h-800z" />
    <glyph glyph-name="uniE1C1" unicode="&#xe1c1;" 
d="M0 -100v800h300v-100h-100v-100h-100v-500h200v300h200v-300h200v500h-100v100h-100v100h300v-800h-800zM300 500h200v-100h-200v100z" />
    <glyph glyph-name="uniE1C2" unicode="&#xe1c2;" 
d="M0 -100v800h100v-700h500v100h100v200h-100v100h100v200h-100v100h200v-800h-800zM500 100h-200v200h200v-200zM300 600h200v-200h-200v200z" />
    <glyph glyph-name="uniE1C3" unicode="&#xe1c3;" 
d="M0 -100v800h200v-100h-100v-500h100v-100h400v100h100v100h-200v-100h-200v500h200v-100h200v100h-100v100h200v-800h-800z" />
    <glyph glyph-name="uniE1C4" unicode="&#xe1c4;" 
d="M0 -100v800h100v-700h400v100h100v100h100v300h-100v100h-100v100h300v-800h-800zM400 100h-100v500h100v-100h100v-300h-100v-100z" />
    <glyph glyph-name="uniE1C5" unicode="&#xe1c5;" 
d="M0 -100v800h100v-700h600v100h-400v200h200v100h-200v200h400v100h100v-800h-800z" />
    <glyph glyph-name="uniE1C6" unicode="&#xe1c6;" 
d="M0 -100v800h100v-700h200v300h200v100h-200v200h400v100h100v-800h-800z" />
    <glyph glyph-name="uniE1C7" unicode="&#xe1c7;" 
d="M500 100h-200v500h200v-100h200v100h-100v100h200v-800h-800v800h200v-100h-100v-500h100v-100h400v100h100v300h-300v-100h100v-200z" />
    <glyph glyph-name="uniE1C8" unicode="&#xe1c8;" 
d="M0 -100v800h100v-700h200v300h200v-300h200v700h100v-800h-800zM500 700v-300h-200v300h200z" />
    <glyph glyph-name="uniE1C9" unicode="&#xe1c9;" 
d="M0 -100v800h200v-100h100v-500h-100v-100h400v100h-100v500h100v100h200v-800h-800z" />
    <glyph glyph-name="uniE1CA" unicode="&#xe1ca;" 
d="M0 -100v800h300v-100h100v-500h-100v100h-200v-100h100v-100h300v100h100v500h100v100h100v-800h-800z" />
    <glyph glyph-name="uniE1CB" unicode="&#xe1cb;" 
d="M500 100v-100h200v100h-100v100h-100v100h-100v100h100v100h100v100h100v100h100v-800h-800v800h100v-700h200v200h100v-100h100zM300 500v200h200v-100h-100v-100h-100z" />
    <glyph glyph-name="uniE1CC" unicode="&#xe1cc;" 
d="M0 -100v800h100v-700h600v100h-400v600h500v-800h-800z" />
    <glyph glyph-name="uniE1CD" unicode="&#xe1cd;" 
d="M0 -100v800h100v-700h200v400h100v-100h100v100h100v-400h200v-100h-800zM600 600h-100v-100h-100v100h-100v100h300v-100z" />
    <glyph glyph-name="uniE1CE" unicode="&#xe1ce;" 
d="M0 -100v800h100v-700h200v300h100v-100h100v-200h200v700h100v-800h-800zM500 700v-200h-100v100h-100v100h200z" />
    <glyph glyph-name="uniE1CF" unicode="&#xe1cf;" 
d="M0 -100v800h200v-100h-100v-500h100v-100h400v100h100v500h-100v100h200v-800h-800zM500 100h-200v500h200v-500z" />
    <glyph glyph-name="uniE1D0" unicode="&#xe1d0;" 
d="M0 -100v800h100v-700h200v300h300v100h100v200h-100v100h200v-800h-800zM300 600h200v-200h-200v200z" />
    <glyph glyph-name="uniE1D1" unicode="&#xe1d1;" 
d="M0 -100v800h200v-100h-100v-400h100v-100h200v-100h300v100h-100v100h100v400h-100v100h200v-800h-800zM300 200v400h200v-400h-200z" />
    <glyph glyph-name="uniE1D2" unicode="&#xe1d2;" 
d="M500 100v-100h200v100h-100v100h-100v100h100v100h100v200h-100v100h200v-800h-800v800h100v-700h200v200h100v-100h100zM300 600h200v-200h-200v200z" />
    <glyph glyph-name="uniE1D3" unicode="&#xe1d3;" 
d="M500 100h-200v100h-200v-100h100v-100h400v100h100v200h-100v100h-300v200h200v-100h200v100h-100v100h200v-800h-800v800h200v-100h-100v-200h100v-100h300v-200z" />
    <glyph glyph-name="uniE1D4" unicode="&#xe1d4;" 
d="M0 -100v800h100v-100h200v-600h200v600h200v100h100v-800h-800z" />
    <glyph glyph-name="uniE1D5" unicode="&#xe1d5;" 
d="M0 -100v800h100v-600h100v-100h400v100h100v600h100v-800h-800zM500 100h-200v600h200v-600z" />
    <glyph glyph-name="uniE1D6" unicode="&#xe1d6;" 
d="M0 -100v800h100v-500h100v-100h100v-100h200v100h100v100h100v500h100v-800h-800zM500 700v-500h-200v500h200z" />
    <glyph glyph-name="uniE1D7" unicode="&#xe1d7;" 
d="M0 -100v800h100v-700h200v100h100v100h100v-100h100v-100h200v-100h-800zM600 300h-100v100h-100v-100h-100v400h300v-400z" />
    <glyph glyph-name="uniE1D8" unicode="&#xe1d8;" 
d="M600 300h-100v100h100v100h100v200h100v-800h-800v800h100v-200h100v-100h100v-100h-100v-100h-100v-200h200v200h200v-200h200v200h-100v100zM300 500v200h200v-200h-200z" />
    <glyph glyph-name="uniE1D9" unicode="&#xe1d9;" 
d="M0 -100v800h100v-300h100v-100h100v-300h200v300h100v100h100v300h100v-800h-800zM500 700v-300h-200v300h200z" />
    <glyph glyph-name="uniE1DA" unicode="&#xe1da;" 
d="M600 500h100v200h100v-800h-800v800h100v-100h400v-100h-100v-100h-100v-100h-100v-100h-100v-200h600v100h-400v100h100v100h100v100h100v100z" />
    <glyph glyph-name="uniE1DB" unicode="&#xe1db;" 
d="M0 -100v300h300v-300h-300zM500 700h300v-300h-300v300zM800 200v-300h-300v300h300zM0 700h300v-300h-300v300z" />
    <glyph glyph-name="uniE1DC" unicode="&#xe1dc;" 
d="M0 -100v200h200v-200h-200zM400 100h-200v200h200v200h-200v200h600v-800h-400v200zM0 300v200h200v-200h-200z" />
    <glyph glyph-name="uniE1DD" unicode="&#xe1dd;" 
d="M0 -100v800h300v-800h-300zM500 700h300v-800h-300v800z" />
    <glyph glyph-name="uniE1DE" unicode="&#xe1de;" 
d="M600 300v-200h-200v200h200zM400 100v-200h-200v200h200zM600 500h-200v200h200v-200zM0 100v200h200v-200h-200zM0 700h200v-200h-200v200zM800 300h-200v200h200v-200zM400 500v-200h-200v200h200zM600 100h200v-200h-200v200z" />
    <glyph glyph-name="uniE1DF" unicode="&#xe1df;" 
d="M0 0h100v-100h-100v100zM700 400h-100v100h-100v100h-100v100h200v-100h100v-100h100v-200h-100v100zM600 300v-100h100v-100h100v-200h-100v100h-100v100h-100v100h-100v100h-100v100h-100v100h-100v100h-100v100h200v-100h100v-100h100v-100h100v-100h100zM400 0h100
v-100h-200v100h-100v100h-100v100h-100v200h100v-100h100v-100h100v-100h100v-100z" />
    <glyph glyph-name="uniE1E0" unicode="&#xe1e0;" 
d="M0 -100v800h800v-800h-800z" />
    <glyph glyph-name="uniE1E1" unicode="&#xe1e1;" 
d="M400 700h400v-800h-400v800z" />
    <glyph glyph-name="uniE1E2" unicode="&#xe1e2;" 
d="M0 300v400h800v-400h-800z" />
    <glyph glyph-name="uniE1E3" unicode="&#xe1e3;" 
d="M0 -100v700h800v-700h-800z" />
    <glyph glyph-name="uniE1E4" unicode="&#xe1e4;" 
d="M0 0v700h800v-700h-800z" />
    <glyph glyph-name="uniE1E5" unicode="&#xe1e5;" 
d="M800 -100h-600v800h600v-800z" />
    <glyph glyph-name="uniE1E6" unicode="&#xe1e6;" 
d="M0 -100v200h200v-200h-200zM600 300h-200v200h200v-200zM400 100h200v-200h-200v200zM600 500v200h200v-200h-200zM400 700v-200h-200v200h200zM800 300v-200h-200v200h200zM200 100v200h200v-200h-200zM0 300v200h200v-200h-200z" />
    <glyph glyph-name="uniE1E7" unicode="&#xe1e7;" 
d="M0 -100v800h600v-800h-600z" />
    <glyph glyph-name="uniE1E8" unicode="&#xe1e8;" 
d="M0 -100v200h200v-200h-200zM600 300h-200v-200h-200v200h-200v400h800v-600h-200v200zM400 100h200v-200h-200v200z" />
    <glyph glyph-name="uniE1E9" unicode="&#xe1e9;" 
d="M700 400h100v-200h-100v-100h-100v-100h-100v-100h-200v100h100v100h100v100h100v100h100v100zM300 500h-100v-100h-100v-100h-100v200h100v100h100v100h200v-100h-100v-100zM600 600v100h200v-100h-100v-100h-100v-100h-100v-100h-100v-100h-100v-100h-100v-100h-100
v-100h-100v200h100v100h100v100h100v100h100v100h100v100h100zM700 0h100v-100h-100v100z" />
    <glyph glyph-name="uniE1EA" unicode="&#xe1ea;" 
d="M0 -100v800h600v-800h-600z" />
    <glyph glyph-name="uniE1EB" unicode="&#xe1eb;" 
d="M0 -100v800h300v-800h-300zM500 700h300v-300h-300v300zM800 -100h-300v300h300v-300z" />
    <glyph glyph-name="uniE1EC" unicode="&#xe1ec;" 
d="M0 -100v800h800v-400h-400v-400h-400z" />
    <glyph glyph-name="uniE1ED" unicode="&#xe1ed;" 
d="M0 -100v800h300v-500h500v-300h-800zM500 700h300v-300h-300v300z" />
    <glyph glyph-name="uniE1EE" unicode="&#xe1ee;" 
d="M0 -100v300h300v-300h-300zM0 400v300h800v-800h-300v500h-500z" />
    <glyph glyph-name="uniE1EF" unicode="&#xe1ef;" 
d="M0 100v600h800v-600h-800z" />
    <glyph glyph-name="uniE1F0" unicode="&#xe1f0;" 
d="M0 -100v800h800v-300h-500v-500h-300zM800 -100h-300v300h300v-300z" />
    <glyph glyph-name="uniE1F1" unicode="&#xe1f1;" 
d="M0 -100v300h800v-300h-800zM500 700h300v-300h-300v300zM0 400v300h300v-300h-300z" />
    <glyph glyph-name="uniE1F2" unicode="&#xe1f2;" 
d="M0 -100v300h300v-300h-300zM0 400v300h800v-300h-800zM800 -100h-300v300h300v-300z" />
    <glyph glyph-name="uniE1F3" unicode="&#xe1f3;" 
d="M0 -100v300h300v-300h-300zM500 700h300v-800h-300v800zM0 400v300h300v-300h-300z" />
    <glyph glyph-name="uniE1F4" unicode="&#xe1f4;" 
d="M800 -100h-600v800h600v-800z" />
    <glyph glyph-name="uniE1F5" unicode="&#xe1f5;" 
d="M800 -100h-500v800h500v-800z" />
    <glyph glyph-name="uniE1F6" unicode="&#xe1f6;" 
d="M0 -100v800h500v-800h-500z" />
    <glyph glyph-name="uniE1F7" unicode="&#xe1f7;" 
d="M0 -100v600h800v-600h-800z" />
    <glyph glyph-name="uniE1F8" unicode="&#xe1f8;" 
d="M0 -100v500h800v-500h-800z" />
    <glyph glyph-name="uniE1F9" unicode="&#xe1f9;" 
d="M0 200v500h800v-500h-800z" />
    <glyph glyph-name="uniE1FA" unicode="&#xe1fa;" 
d="M700 400v100h100v-600h-800v800h700v-100h-100v-100h-100v-100h-100v-100h-100v100h-200v-400h200v100h100v100h100v100h100v100h100z" />
    <glyph glyph-name="uniE1FB" unicode="&#xe1fb;" 
d="M400 300h-400v400h800v-800h-400v400z" />
    <glyph glyph-name="uniE1FC" unicode="&#xe1fc;" 
d="M0 -100v800h400v-400h400v-400h-800z" />
    <glyph glyph-name="uniE1FD" unicode="&#xe1fd;" 
d="M0 -100v300h500v500h300v-800h-800zM0 400v300h300v-300h-300z" />
    <glyph glyph-name="uniE1FE" unicode="&#xe1fe;" 
d="M0 -100v400h400v400h400v-800h-800z" />
    <glyph glyph-name="uniE1FF" unicode="&#xe1ff;" 
d="M0 -100v400h400v-400h-400zM400 300v400h400v-400h-400z" />
    <glyph glyph-name="uniE200" unicode="&#xe200;" 
d="M700 600v-300h-300v200h100v100h-200v-500h300v-100h-400v100h-100v500h100v100h400v-100h100zM700 200v-100h-100v100h100z" />
    <glyph glyph-name="uniE201" unicode="&#xe201;" 
d="M500 700v-100h100v-100h100v-500h-200v300h-200v-300h-200v500h100v100h100v100h200zM300 500v-100h200v100h-200z" />
    <glyph glyph-name="uniE202" unicode="&#xe202;" 
d="M500 100v200h-200v-200h200zM700 400h-100v-100h100v-200h-100v-100h-500v700h500v-100h100v-200zM300 600v-200h200v200h-200z" />
    <glyph glyph-name="uniE203" unicode="&#xe203;" 
d="M500 100v100h200v-100h-100v-100h-400v100h-100v500h100v100h400v-100h100v-100h-200v100h-200v-500h200z" />
    <glyph glyph-name="uniE204" unicode="&#xe204;" 
d="M500 100v-100h-400v700h400v-100h100v-100h100v-300h-100v-100h-100zM400 100v100h100v300h-100v100h-100v-500h100z" />
    <glyph glyph-name="uniE205" unicode="&#xe205;" 
d="M500 300h-200v-200h400v-100h-600v700h600v-100h-400v-200h200v-100z" />
    <glyph glyph-name="uniE206" unicode="&#xe206;" 
d="M500 300h-200v-300h-200v700h600v-100h-400v-200h200v-100z" />
    <glyph glyph-name="uniE207" unicode="&#xe207;" 
d="M500 100v200h-100v100h300v-300h-100v-100h-400v100h-100v500h100v100h400v-100h100v-100h-200v100h-200v-500h200z" />
    <glyph glyph-name="uniE208" unicode="&#xe208;" 
d="M500 300h-200v-300h-200v700h200v-300h200v300h200v-700h-200v300z" />
    <glyph glyph-name="uniE209" unicode="&#xe209;" 
d="M500 100h100v-100h-400v100h100v500h-100v100h400v-100h-100v-500z" />
    <glyph glyph-name="uniE20A" unicode="&#xe20a;" 
d="M500 100v-100h-300v100h-100v100h200v-100h100v500h-100v100h400v-100h-100v-500h-100z" />
    <glyph glyph-name="uniE20B" unicode="&#xe20b;" 
d="M500 100h-100v100h-100v-200h-200v700h200v-200h100v100h100v100h200v-100h-100v-100h-100v-100h-100v-100h100v-100h100v-100h100v-100h-200v100z" />
    <glyph glyph-name="uniE20C" unicode="&#xe20c;" 
d="M700 0h-600v700h200v-600h400v-100z" />
    <glyph glyph-name="uniE20D" unicode="&#xe20d;" 
d="M100 0v700h200v-100h100v-100h100v100h100v100h200v-700h-200v400h-100v-100h-100v100h-100v-400h-200z" />
    <glyph glyph-name="uniE20E" unicode="&#xe20e;" 
d="M500 700h200v-700h-200v200h-100v100h-100v-300h-200v700h200v-100h100v-100h100v200z" />
    <glyph glyph-name="uniE20F" unicode="&#xe20f;" 
d="M500 100v500h-200v-500h200zM700 600v-500h-100v-100h-400v100h-100v500h100v100h400v-100h100z" />
    <glyph glyph-name="uniE210" unicode="&#xe210;" 
d="M600 300h-300v-300h-200v700h500v-100h100v-200h-100v-100zM300 600v-200h200v200h-200z" />
    <glyph glyph-name="uniE211" unicode="&#xe211;" 
d="M400 100h-200v100h-100v400h100v100h400v-100h100v-400h-100v-100h100v-100h-300v100zM300 200h200v400h-200v-400z" />
    <glyph glyph-name="uniE212" unicode="&#xe212;" 
d="M500 100h-100v100h-100v-200h-200v700h500v-100h100v-200h-100v-100h-100v-100h100v-100h100v-100h-200v100zM300 600v-200h200v200h-200z" />
    <glyph glyph-name="uniE213" unicode="&#xe213;" 
d="M500 100v200h-300v100h-100v200h100v100h400v-100h100v-100h-200v100h-200v-200h300v-100h100v-200h-100v-100h-400v100h-100v100h200v-100h200z" />
    <glyph glyph-name="uniE214" unicode="&#xe214;" 
d="M100 600v100h600v-100h-200v-600h-200v600h-200z" />
    <glyph glyph-name="uniE215" unicode="&#xe215;" 
d="M500 100v600h200v-600h-100v-100h-400v100h-100v600h200v-600h200z" />
    <glyph glyph-name="uniE216" unicode="&#xe216;" 
d="M500 100v-100h-200v100h-100v100h-100v500h200v-500h200v500h200v-500h-100v-100h-100z" />
    <glyph glyph-name="uniE217" unicode="&#xe217;" 
d="M500 100v100h-100v-100h-100v-100h-200v700h200v-400h100v100h100v-100h100v400h200v-700h-200v100h-100z" />
    <glyph glyph-name="uniE218" unicode="&#xe218;" 
d="M600 300v-100h100v-200h-200v200h-200v-200h-200v200h100v100h100v100h-100v100h-100v200h200v-200h200v200h200v-200h-100v-100h-100v-100h100z" />
    <glyph glyph-name="uniE219" unicode="&#xe219;" 
d="M600 300h-100v-300h-200v300h-100v100h-100v300h200v-300h200v300h200v-300h-100v-100z" />
    <glyph glyph-name="uniE21A" unicode="&#xe21a;" 
d="M600 500v-100h-100v-100h-100v-100h-100v-100h400v-100h-600v200h100v100h100v100h100v100h100v100h-400v100h600v-200h-100z" />
    <glyph glyph-name="uniE21B" unicode="&#xe21b;" 
d="M600 700v-100h-200v-500h200v-100h-400v700h400z" />
    <glyph glyph-name="uniE21C" unicode="&#xe21c;" 
d="M0 0v100h100v100h100v100h-100v100h100v100h100v100h100v-200h200v-100h-200v-100h-100v-100h300v-100h-600zM600 500v100h100v-100h-100zM400 700h200v-100h-200v100zM700 200v-100h-100v100h100z" />
    <glyph glyph-name="uniE21D" unicode="&#xe21d;" 
d="M600 700v-700h-400v100h200v500h-200v100h400z" />
    <glyph glyph-name="uniE21E" unicode="&#xe21e;" 
d="M700 400v-100h-200v-400h-200v400h-200v100h100v100h100v100h200v-100h100v-100h100z" />
    <glyph glyph-name="uniE21F" unicode="&#xe21f;" 
d="M800 200h-400v-200h-100v100h-100v100h-100v200h100v100h100v100h100v-200h400v-200z" />
    <glyph glyph-name="uniE220" unicode="&#xe220;" 
 />
    <glyph glyph-name="uniE221" unicode="&#xe221;" 
d="M500 100v-100h-200v100h200zM500 300h-200v400h200v-400z" />
    <glyph glyph-name="uniE222" unicode="&#xe222;" 
d="M500 700h200v-300h-200v300zM100 400v300h200v-300h-200z" />
    <glyph glyph-name="uniE223" unicode="&#xe223;" 
d="M700 400v-100h100v-100h-100v-200h-200v200h-200v-200h-200v200h-100v100h100v100h-100v100h100v200h200v-200h200v200h200v-200h100v-100h-100zM300 300h200v100h-200v-100z" />
    <glyph glyph-name="uniE224" unicode="&#xe224;" 
d="M500 100v-100h-200v100h-200v100h400v100h-300v100h-100v100h100v100h100v100h200v-100h200v-100h-400v-100h300v-100h100v-100h-100v-100h-100z" />
    <glyph glyph-name="uniE225" unicode="&#xe225;" 
d="M600 500v-100h-100v-100h-100v-100h-100v-100h-100v-100h-100v200h100v100h100v100h100v100h100v100h100v100h100v-200h-100zM700 200v-200h-200v200h200zM300 500h-200v200h200v-200z" />
    <glyph glyph-name="uniE226" unicode="&#xe226;" 
d="M500 100v200h300v-100h-100v-100h100v-100h-600v100h-100v200h100v200h-100v100h100v100h400v-100h100v-100h-100v-100h-100v-100h-200v-200h200zM300 500h200v100h-200v-100z" />
    <glyph glyph-name="uniE227" unicode="&#xe227;" 
d="M500 700h200v-100h-100v-100h-100v-100h-200v100h100v100h100v100z" />
    <glyph glyph-name="uniE228" unicode="&#xe228;" 
d="M500 100h100v-100h-200v100h-100v100h-100v300h100v100h100v100h200v-100h-100v-100h-100v-300h100v-100z" />
    <glyph glyph-name="uniE229" unicode="&#xe229;" 
d="M500 100h-100v-100h-200v100h100v100h100v300h-100v100h-100v100h200v-100h100v-100h100v-300h-100v-100z" />
    <glyph glyph-name="uniE22A" unicode="&#xe22a;" 
d="M500 100v100h-200v-100h-200v100h100v100h-200v100h200v100h-100v100h200v-100h200v100h200v-100h-100v-100h200v-100h-200v-100h100v-100h-200z" />
    <glyph glyph-name="uniE22B" unicode="&#xe22b;" 
d="M500 100h-200v200h-200v100h200v200h200v-200h200v-100h-200v-200z" />
    <glyph glyph-name="uniE22C" unicode="&#xe22c;" 
d="M200 -100v100h100v200h200v-200h-100v-100h-200z" />
    <glyph glyph-name="uniE22D" unicode="&#xe22d;" 
d="M700 400v-100h-600v100h600z" />
    <glyph glyph-name="uniE22E" unicode="&#xe22e;" 
d="M500 0h-200v200h200v-200z" />
    <glyph glyph-name="uniE22F" unicode="&#xe22f;" 
d="M700 400h-100v-100h-100v-100h-100v-100h-100v-100h-200v100h100v100h100v100h100v100h100v100h100v100h200v-100h-100v-100z" />
    <glyph glyph-name="uniE230" unicode="&#xe230;" 
d="M500 100v300h-100v100h100v100h-200v-200h100v-100h-100v-200h200zM700 600v-500h-100v-100h-400v100h-100v500h100v100h400v-100h100z" />
    <glyph glyph-name="uniE231" unicode="&#xe231;" 
d="M500 100h200v-100h-600v100h200v300h-100v100h100v200h200v-600z" />
    <glyph glyph-name="uniE232" unicode="&#xe232;" 
d="M600 300h-200v100h100v200h-200v-100h-200v100h100v100h400v-100h100v-200h-100v-100zM700 0h-600v200h100v100h200v-100h-100v-100h400v-100z" />
    <glyph glyph-name="uniE233" unicode="&#xe233;" 
d="M500 100v200h-200v100h200v200h-200v-100h-200v100h100v100h400v-100h100v-200h-100v-100h100v-200h-100v-100h-400v100h-100v100h200v-100h200z" />
    <glyph glyph-name="uniE234" unicode="&#xe234;" 
d="M500 700h200v-400h100v-100h-100v-200h-200v200h-400v200h200v-100h200v100h-200v100h100v100h100v100z" />
    <glyph glyph-name="uniE235" unicode="&#xe235;" 
d="M500 100v300h-400v300h600v-100h-400v-100h300v-100h100v-300h-100v-100h-400v100h-100v100h200v-100h200z" />
    <glyph glyph-name="uniE236" unicode="&#xe236;" 
d="M500 100v200h-200v-200h200zM600 300h100v-200h-100v-100h-400v100h-100v500h100v100h400v-100h100v-100h-200v100h-200v-200h300v-100z" />
    <glyph glyph-name="uniE237" unicode="&#xe237;" 
d="M600 500v-100h-100v-400h-200v400h100v100h100v100h-200v-100h-200v200h600v-200h-100z" />
    <glyph glyph-name="uniE238" unicode="&#xe238;" 
d="M500 100v200h-200v-200h200zM700 400h-100v-100h100v-200h-100v-100h-400v100h-100v200h100v100h-100v200h100v100h400v-100h100v-200zM300 600v-200h200v200h-200z" />
    <glyph glyph-name="uniE239" unicode="&#xe239;" 
d="M500 100v200h-300v100h-100v200h100v100h400v-100h100v-500h-100v-100h-400v100h-100v100h200v-100h200zM300 600v-200h200v200h-200z" />
    <glyph glyph-name="uniE23A" unicode="&#xe23a;" 
d="M500 100h-200v100h200v-100zM500 500v-100h-200v100h200z" />
    <glyph glyph-name="uniE23B" unicode="&#xe23b;" 
d="M500 500v-100h-200v100h200zM200 0h100v200h200v-200h-100v-100h-200v100z" />
    <glyph glyph-name="uniE23C" unicode="&#xe23c;" 
d="M500 100h200v-100h-300v100h-100v100h-100v100h-100v100h100v100h100v100h100v100h300v-100h-200v-100h-100v-100h-100v-100h100v-100h100v-100z" />
    <glyph glyph-name="uniE23D" unicode="&#xe23d;" 
d="M700 400h-600v100h600v-100zM700 200h-600v100h600v-100z" />
    <glyph glyph-name="uniE23E" unicode="&#xe23e;" 
d="M500 100h-100v-100h-300v100h200v100h100v100h100v100h-100v100h-100v100h-200v100h300v-100h100v-100h100v-100h100v-100h-100v-100h-100v-100z" />
    <glyph glyph-name="uniE23F" unicode="&#xe23f;" 
d="M500 100v-100h-200v100h200zM700 400h-100v-100h-100v-100h-200v100h100v100h100v200h-200v-100h-200v100h100v100h400v-100h100v-200z" />
    <glyph glyph-name="uniE240" unicode="&#xe240;" 
d="M0 200v200h800v-200h-800z" />
    <glyph glyph-name="uniE241" unicode="&#xe241;" 
d="M500 700v-100h100v-100h100v-100h100v-200h-200v-100h100v-100h-500v100h100v100h-200v200h100v100h100v100h100v100h100z" />
    <glyph glyph-name="uniE242" unicode="&#xe242;" 
d="M500 700v-800h-200v800h200z" />
    <glyph glyph-name="uniE243" unicode="&#xe243;" 
d="M0 200v200h800v-200h-800z" />
    <glyph glyph-name="uniE244" unicode="&#xe244;" 
d="M0 300v200h800v-200h-800z" />
    <glyph glyph-name="uniE245" unicode="&#xe245;" 
d="M0 600h800v-200h-800v200z" />
    <glyph glyph-name="uniE246" unicode="&#xe246;" 
d="M0 100v200h800v-200h-800z" />
    <glyph glyph-name="uniE247" unicode="&#xe247;" 
d="M400 700v-800h-200v800h200z" />
    <glyph glyph-name="uniE248" unicode="&#xe248;" 
d="M600 700v-800h-200v800h200z" />
    <glyph glyph-name="uniE249" unicode="&#xe249;" 
d="M0 200v200h300v-100h100v-100h100v-300h-200v200h-100v100h-200z" />
    <glyph glyph-name="uniE24A" unicode="&#xe24a;" 
d="M500 300h-100v100h-100v300h200v-200h100v-100h200v-200h-300v100z" />
    <glyph glyph-name="uniE24B" unicode="&#xe24b;" 
d="M0 200v200h200v100h100v200h200v-300h-100v-100h-100v-100h-300z" />
    <glyph glyph-name="uniE24C" unicode="&#xe24c;" 
d="M0 -100v800h200v-600h600v-200h-800z" />
    <glyph glyph-name="uniE24D" unicode="&#xe24d;" 
d="M500 100h-100v100h-100v100h-100v100h-100v100h-100v200h200v-100h100v-100h100v-100h100v-100h100v-100h100v-100h100v-200h-200v100h-100v100z" />
    <glyph glyph-name="uniE24E" unicode="&#xe24e;" 
d="M700 400h-100v-100h-100v-100h-100v-100h-100v-100h-100v-100h-200v200h100v100h100v100h100v100h100v100h100v100h100v100h200v-200h-100v-100z" />
    <glyph glyph-name="uniE24F" unicode="&#xe24f;" 
d="M0 -100v800h800v-200h-600v-600h-200z" />
    <glyph glyph-name="uniE250" unicode="&#xe250;" 
d="M600 500h-600v200h800v-800h-200v600z" />
    <glyph glyph-name="uniE251" unicode="&#xe251;" 
d="M600 100v-100h-400v100h-100v400h100v100h400v-100h100v-400h-100z" />
    <glyph glyph-name="uniE252" unicode="&#xe252;" 
d="M0 0v200h800v-200h-800z" />
    <glyph glyph-name="uniE253" unicode="&#xe253;" 
d="M500 100v-100h-100v100h-100v100h-100v100h-100v300h100v100h200v-100h100v100h200v-100h100v-300h-100v-100h-100v-100h-100z" />
    <glyph glyph-name="uniE254" unicode="&#xe254;" 
d="M100 -100v800h200v-800h-200z" />
    <glyph glyph-name="uniE255" unicode="&#xe255;" 
d="M500 100v-200h-200v300h100v100h100v100h300v-200h-200v-100h-100z" />
    <glyph glyph-name="uniE256" unicode="&#xe256;" 
d="M500 100h-200v-100h-100v-100h-200v200h100v100h100v200h-100v100h-100v200h200v-100h100v-100h200v100h100v100h200v-200h-100v-100h-100v-200h100v-100h100v-200h-200v100h-100v100z" />
    <glyph glyph-name="uniE257" unicode="&#xe257;" 
d="M600 500h100v-400h-100v-100h-400v100h-100v400h100v100h400v-100zM300 200h200v200h-200v-200z" />
    <glyph glyph-name="uniE258" unicode="&#xe258;" 
d="M500 100h100v-100h-400v100h100v200h200v-200zM500 700v-200h-200v200h200zM300 300h-200v200h200v-200zM700 500v-200h-200v200h200z" />
    <glyph glyph-name="uniE259" unicode="&#xe259;" 
d="M500 700h200v-800h-200v800z" />
    <glyph glyph-name="uniE25A" unicode="&#xe25a;" 
d="M500 100v-100h-100v100h-100v100h-100v100h-100v100h100v100h100v100h100v100h100v-100h100v-100h100v-100h100v-100h-100v-100h-100v-100h-100z" />
    <glyph glyph-name="uniE25B" unicode="&#xe25b;" 
d="M0 200v200h300v300h200v-300h300v-200h-300v-300h-200v300h-300z" />
    <glyph glyph-name="uniE25C" unicode="&#xe25c;" 
d="M400 100v-200h-200v200h200zM0 100v200h200v-200h-200zM0 700h200v-200h-200v200zM400 500v-200h-200v200h200z" />
    <glyph glyph-name="uniE25D" unicode="&#xe25d;" 
d="M500 700v-800h-200v800h200z" />
    <glyph glyph-name="uniE25E" unicode="&#xe25e;" 
d="M700 400v-400h-200v300h-100v-300h-200v200h-100v100h100v100h400v100h200v-100h-100z" />
    <glyph glyph-name="uniE25F" unicode="&#xe25f;" 
d="M500 100v100h-100v100h-100v100h-100v100h-100v100h-100v100h800v-800h-100v100h-100v100h-100z" />
    <glyph glyph-name="uniE260" unicode="&#xe260;" 
 />
    <glyph glyph-name="uniE261" unicode="&#xe261;" 
d="M0 -100v800h400v-800h-400z" />
    <glyph glyph-name="uniE262" unicode="&#xe262;" 
d="M0 -100v400h800v-400h-800z" />
    <glyph glyph-name="uniE263" unicode="&#xe263;" 
d="M0 600v100h800v-100h-800z" />
    <glyph glyph-name="uniE264" unicode="&#xe264;" 
d="M0 0h800v-100h-800v100z" />
    <glyph glyph-name="uniE265" unicode="&#xe265;" 
d="M0 -100v800h200v-800h-200z" />
    <glyph glyph-name="uniE266" unicode="&#xe266;" 
d="M600 300v-200h-200v200h200zM400 100v-200h-200v200h200zM600 500h-200v200h200v-200zM0 100v200h200v-200h-200zM0 700h200v-200h-200v200zM800 300h-200v200h200v-200zM400 500v-200h-200v200h200zM600 100h200v-200h-200v200z" />
    <glyph glyph-name="uniE267" unicode="&#xe267;" 
d="M600 700h200v-800h-200v800z" />
    <glyph glyph-name="uniE268" unicode="&#xe268;" 
d="M600 300v-200h-200v200h200zM400 100v-200h-200v200h200zM0 100v200h200v-200h-200zM600 100h200v-200h-200v200z" />
    <glyph glyph-name="uniE269" unicode="&#xe269;" 
d="M0 -100v800h800v-100h-100v-100h-100v-100h-100v-100h-100v-100h-100v-100h-100v-100h-100v-100h-100z" />
    <glyph glyph-name="uniE26A" unicode="&#xe26a;" 
d="M600 700h200v-800h-200v800z" />
    <glyph glyph-name="uniE26B" unicode="&#xe26b;" 
d="M500 700v-300h300v-200h-300v-300h-200v800h200z" />
    <glyph glyph-name="uniE26C" unicode="&#xe26c;" 
d="M400 300h400v-400h-400v400z" />
    <glyph glyph-name="uniE26D" unicode="&#xe26d;" 
d="M500 700v-300h300v-200h-500v500h200z" />
    <glyph glyph-name="uniE26E" unicode="&#xe26e;" 
d="M0 200v200h500v-500h-200v300h-300z" />
    <glyph glyph-name="uniE26F" unicode="&#xe26f;" 
d="M0 -100v200h800v-200h-800z" />
    <glyph glyph-name="uniE270" unicode="&#xe270;" 
d="M800 200h-300v-300h-200v500h500v-200z" />
    <glyph glyph-name="uniE271" unicode="&#xe271;" 
d="M0 200v200h300v300h200v-300h300v-200h-800z" />
    <glyph glyph-name="uniE272" unicode="&#xe272;" 
d="M0 200v200h800v-200h-300v-300h-200v300h-300z" />
    <glyph glyph-name="uniE273" unicode="&#xe273;" 
d="M0 200v200h300v300h200v-800h-200v300h-300z" />
    <glyph glyph-name="uniE274" unicode="&#xe274;" 
d="M0 -100v800h200v-800h-200z" />
    <glyph glyph-name="uniE275" unicode="&#xe275;" 
d="M0 -100v800h300v-800h-300z" />
    <glyph glyph-name="uniE276" unicode="&#xe276;" 
d="M500 700h300v-800h-300v800z" />
    <glyph glyph-name="uniE277" unicode="&#xe277;" 
d="M0 700h800v-200h-800v200z" />
    <glyph glyph-name="uniE278" unicode="&#xe278;" 
d="M0 400v300h800v-300h-800z" />
    <glyph glyph-name="uniE279" unicode="&#xe279;" 
d="M0 -100v300h800v-300h-800z" />
    <glyph glyph-name="uniE27A" unicode="&#xe27a;" 
d="M0 -100v200h600v600h200v-800h-800z" />
    <glyph glyph-name="uniE27B" unicode="&#xe27b;" 
d="M0 -100v400h400v-400h-400z" />
    <glyph glyph-name="uniE27C" unicode="&#xe27c;" 
d="M400 300v400h400v-400h-400z" />
    <glyph glyph-name="uniE27D" unicode="&#xe27d;" 
d="M0 200v200h300v300h200v-500h-500z" />
    <glyph glyph-name="uniE27E" unicode="&#xe27e;" 
d="M400 300h-400v400h400v-400z" />
    <glyph glyph-name="uniE27F" unicode="&#xe27f;" 
d="M400 300h-400v400h400v-400zM800 -100h-400v400h400v-400z" />
    <glyph glyph-name="uniE280" unicode="&#xe280;" 
d="M500 100h-200v500h200v-100h-100v-200h300v300h-100v100h200v-800h-800v800h200v-100h-100v-500h100v-100h400v100h100v100h-200v-100z" />
    <glyph glyph-name="uniE281" unicode="&#xe281;" 
d="M0 -100v800h300v-100h-100v-100h-100v-500h200v300h200v-300h200v500h-100v100h-100v100h300v-800h-800zM300 500h200v-100h-200v100z" />
    <glyph glyph-name="uniE282" unicode="&#xe282;" 
d="M0 -100v800h100v-700h500v100h100v200h-100v100h100v200h-100v100h200v-800h-800zM500 100h-200v200h200v-200zM300 600h200v-200h-200v200z" />
    <glyph glyph-name="uniE283" unicode="&#xe283;" 
d="M0 -100v800h200v-100h-100v-500h100v-100h400v100h100v100h-200v-100h-200v500h200v-100h200v100h-100v100h200v-800h-800z" />
    <glyph glyph-name="uniE284" unicode="&#xe284;" 
d="M0 -100v800h100v-700h400v100h100v100h100v300h-100v100h-100v100h300v-800h-800zM400 100h-100v500h100v-100h100v-300h-100v-100z" />
    <glyph glyph-name="uniE285" unicode="&#xe285;" 
d="M0 -100v800h100v-700h600v100h-400v200h200v100h-200v200h400v100h100v-800h-800z" />
    <glyph glyph-name="uniE286" unicode="&#xe286;" 
d="M0 -100v800h100v-700h200v300h200v100h-200v200h400v100h100v-800h-800z" />
    <glyph glyph-name="uniE287" unicode="&#xe287;" 
d="M500 100h-200v500h200v-100h200v100h-100v100h200v-800h-800v800h200v-100h-100v-500h100v-100h400v100h100v300h-300v-100h100v-200z" />
    <glyph glyph-name="uniE288" unicode="&#xe288;" 
d="M0 -100v800h100v-700h200v300h200v-300h200v700h100v-800h-800zM500 700v-300h-200v300h200z" />
    <glyph glyph-name="uniE289" unicode="&#xe289;" 
d="M0 -100v800h200v-100h100v-500h-100v-100h400v100h-100v500h100v100h200v-800h-800z" />
    <glyph glyph-name="uniE28A" unicode="&#xe28a;" 
d="M0 -100v800h300v-100h100v-500h-100v100h-200v-100h100v-100h300v100h100v500h100v100h100v-800h-800z" />
    <glyph glyph-name="uniE28B" unicode="&#xe28b;" 
d="M500 100v-100h200v100h-100v100h-100v100h-100v100h100v100h100v100h100v100h100v-800h-800v800h100v-700h200v200h100v-100h100zM300 500v200h200v-100h-100v-100h-100z" />
    <glyph glyph-name="uniE28C" unicode="&#xe28c;" 
d="M0 -100v800h100v-700h600v100h-400v600h500v-800h-800z" />
    <glyph glyph-name="uniE28D" unicode="&#xe28d;" 
d="M0 -100v800h100v-700h200v400h100v-100h100v100h100v-400h200v-100h-800zM600 600h-100v-100h-100v100h-100v100h300v-100z" />
    <glyph glyph-name="uniE28E" unicode="&#xe28e;" 
d="M0 -100v800h100v-700h200v300h100v-100h100v-200h200v700h100v-800h-800zM500 700v-200h-100v100h-100v100h200z" />
    <glyph glyph-name="uniE28F" unicode="&#xe28f;" 
d="M0 -100v800h200v-100h-100v-500h100v-100h400v100h100v500h-100v100h200v-800h-800zM500 100h-200v500h200v-500z" />
    <glyph glyph-name="uniE290" unicode="&#xe290;" 
d="M0 -100v800h100v-700h200v300h300v100h100v200h-100v100h200v-800h-800zM300 600h200v-200h-200v200z" />
    <glyph glyph-name="uniE291" unicode="&#xe291;" 
d="M0 -100v800h200v-100h-100v-400h100v-100h200v-100h300v100h-100v100h100v400h-100v100h200v-800h-800zM300 200v400h200v-400h-200z" />
    <glyph glyph-name="uniE292" unicode="&#xe292;" 
d="M500 100v-100h200v100h-100v100h-100v100h100v100h100v200h-100v100h200v-800h-800v800h100v-700h200v200h100v-100h100zM300 600h200v-200h-200v200z" />
    <glyph glyph-name="uniE293" unicode="&#xe293;" 
d="M500 100h-200v100h-200v-100h100v-100h400v100h100v200h-100v100h-300v200h200v-100h200v100h-100v100h200v-800h-800v800h200v-100h-100v-200h100v-100h300v-200z" />
    <glyph glyph-name="uniE294" unicode="&#xe294;" 
d="M0 -100v800h100v-100h200v-600h200v600h200v100h100v-800h-800z" />
    <glyph glyph-name="uniE295" unicode="&#xe295;" 
d="M0 -100v800h100v-600h100v-100h400v100h100v600h100v-800h-800zM500 100h-200v600h200v-600z" />
    <glyph glyph-name="uniE296" unicode="&#xe296;" 
d="M0 -100v800h100v-500h100v-100h100v-100h200v100h100v100h100v500h100v-800h-800zM500 700v-500h-200v500h200z" />
    <glyph glyph-name="uniE297" unicode="&#xe297;" 
d="M0 -100v800h100v-700h200v100h100v100h100v-100h100v-100h200v-100h-800zM600 300h-100v100h-100v-100h-100v400h300v-400z" />
    <glyph glyph-name="uniE298" unicode="&#xe298;" 
d="M600 300h-100v100h100v100h100v200h100v-800h-800v800h100v-200h100v-100h100v-100h-100v-100h-100v-200h200v200h200v-200h200v200h-100v100zM300 500v200h200v-200h-200z" />
    <glyph glyph-name="uniE299" unicode="&#xe299;" 
d="M0 -100v800h100v-300h100v-100h100v-300h200v300h100v100h100v300h100v-800h-800zM500 700v-300h-200v300h200z" />
    <glyph glyph-name="uniE29A" unicode="&#xe29a;" 
d="M600 500h100v200h100v-800h-800v800h100v-100h400v-100h-100v-100h-100v-100h-100v-100h-100v-200h600v100h-400v100h100v100h100v100h100v100z" />
    <glyph glyph-name="uniE29B" unicode="&#xe29b;" 
d="M0 -100v800h200v-700h400v100h-200v500h200v100h200v-800h-800z" />
    <glyph glyph-name="uniE29C" unicode="&#xe29c;" 
d="M0 0h600v100h100v100h-100v-100h-300v100h100v100h200v100h-200v200h200v-100h100v100h-100v100h200v-800h-800v100zM400 700v-100h-100v-100h-100v-100h-100v-100h100v-100h-100v-100h-100v600h400z" />
    <glyph glyph-name="uniE29D" unicode="&#xe29d;" 
d="M0 -100v800h200v-100h200v-500h-200v-100h400v700h200v-800h-800z" />
    <glyph glyph-name="uniE29E" unicode="&#xe29e;" 
d="M0 -100v800h800v-800h-300v400h200v100h-100v100h-100v100h-200v-100h-100v-100h-100v-100h200v-400h-300z" />
    <glyph glyph-name="uniE29F" unicode="&#xe29f;" 
d="M0 -100v800h800v-300h-400v200h-100v-100h-100v-100h-100v-200h100v-100h100v-100h100v200h400v-300h-800z" />
    <glyph glyph-name="uniE2A0" unicode="&#xe2a0;" 
d="M0 -100v800h800v-800h-800z" />
    <glyph glyph-name="uniE2A1" unicode="&#xe2a1;" 
d="M500 300v400h300v-800h-800v800h300v-400h200zM500 100h-200v-100h200v100z" />
    <glyph glyph-name="uniE2A2" unicode="&#xe2a2;" 
d="M0 -100v800h100v-300h200v300h200v-300h200v300h100v-800h-800z" />
    <glyph glyph-name="uniE2A3" unicode="&#xe2a3;" 
d="M700 400h100v-100h-100v100zM700 200h100v-300h-800v300h100v-200h200v200h200v-200h200v200zM300 300v100h200v-100h-200zM300 500v200h200v-200h-200zM0 700h100v-200h-100v200zM0 400h100v-100h-100v100zM700 700h100v-200h-100v200z" />
    <glyph glyph-name="uniE2A4" unicode="&#xe2a4;" 
d="M500 100h100v100h100v100h-100v100h-300v100h400v100h-200v100h300v-800h-800v800h300v-100h-100v-100h-100v-100h100v-100h300v-100h-400v-100h200v-100h200v100z" />
    <glyph glyph-name="uniE2A5" unicode="&#xe2a5;" 
d="M600 500h100v200h100v-800h-800v800h100v-200h200v200h300v-100h-100v-100h-100v-100h-100v-100h-100v-100h-100v-200h100v100h100v100h100v100h100v100h100v100zM700 200h-200v-200h200v200z" />
    <glyph glyph-name="uniE2A6" unicode="&#xe2a6;" 
d="M500 100h-200v200h200v-200zM600 500h100v100h-100v100h200v-400h-300v100h100v100zM700 200h100v-100h-100v100zM200 0h600v-100h-800v800h200v-100h-100v-100h100v-200h-100v-200h100v-100zM300 500v100h200v-100h-200z" />
    <glyph glyph-name="uniE2A7" unicode="&#xe2a7;" 
d="M0 -100v800h500v-100h-100v-100h-100v-100h200v100h100v100h100v100h100v-800h-800z" />
    <glyph glyph-name="uniE2A8" unicode="&#xe2a8;" 
d="M0 -100v800h400v-100h-100v-100h-100v-300h100v-100h100v-100h200v100h-100v100h-100v300h100v100h100v100h200v-800h-800z" />
    <glyph glyph-name="uniE2A9" unicode="&#xe2a9;" 
d="M0 -100v800h200v-100h100v-100h100v-300h-100v-100h-100v-100h200v100h100v100h100v300h-100v100h-100v100h400v-800h-800z" />
    <glyph glyph-name="uniE2AA" unicode="&#xe2aa;" 
d="M500 100h200v100h-100v100h200v-400h-800v400h200v-100h-100v-100h200v100h200v-100zM600 500h100v100h-200v-100h-200v100h-200v-100h100v-100h-200v300h800v-300h-200v100z" />
    <glyph glyph-name="uniE2AB" unicode="&#xe2ab;" 
d="M0 -100v800h800v-800h-800zM500 100v200h200v100h-200v200h-200v-200h-200v-100h200v-200h200z" />
    <glyph glyph-name="uniE2AC" unicode="&#xe2ac;" 
d="M0 -100v800h800v-800h-400v100h100v200h-200v-200h-100v-100h-200z" />
    <glyph glyph-name="uniE2AD" unicode="&#xe2ad;" 
d="M0 -100v800h800v-800h-800zM700 400h-600v-100h600v100z" />
    <glyph glyph-name="uniE2AE" unicode="&#xe2ae;" 
d="M0 -100v800h800v-800h-800zM500 0v200h-200v-200h200z" />
    <glyph glyph-name="uniE2AF" unicode="&#xe2af;" 
d="M700 400v100h100v-600h-800v800h800v-100h-200v-100h-100v-100h-100v-100h-100v-100h-100v-100h-100v-100h200v100h100v100h100v100h100v100h100z" />
    <glyph glyph-name="uniE2B0" unicode="&#xe2b0;" 
d="M500 100h-200v200h100v100h100v-300zM200 0h400v100h100v500h-100v100h200v-800h-800v800h200v-100h-100v-500h100v-100zM300 600h200v-100h-100v-100h-100v200z" />
    <glyph glyph-name="uniE2B1" unicode="&#xe2b1;" 
d="M0 -100v800h300v-200h-100v-100h100v-300h-200v-100h600v100h-200v600h300v-800h-800z" />
    <glyph glyph-name="uniE2B2" unicode="&#xe2b2;" 
d="M700 400v200h-100v100h200v-800h-800v800h200v-100h-100v-100h200v100h200v-200h-100v-100h-200v-100h-100v-200h600v100h-400v100h100v100h200v100h100z" />
    <glyph glyph-name="uniE2B3" unicode="&#xe2b3;" 
d="M500 100h-200v100h-200v-100h100v-100h400v100h100v200h-100v100h100v200h-100v100h200v-800h-800v800h200v-100h-100v-100h200v100h200v-200h-200v-100h200v-200z" />
    <glyph glyph-name="uniE2B4" unicode="&#xe2b4;" 
d="M0 -100v800h500v-100h-100v-100h-100v-100h-200v-200h400v-200h200v200h100v-300h-800zM300 300v100h200v-100h-200zM700 300v400h100v-400h-100z" />
    <glyph glyph-name="uniE2B5" unicode="&#xe2b5;" 
d="M0 -100v800h100v-300h400v-300h-200v100h-200v-100h100v-100h400v100h100v300h-100v100h-300v100h400v100h100v-800h-800z" />
    <glyph glyph-name="uniE2B6" unicode="&#xe2b6;" 
d="M500 100h-200v200h200v-200zM600 300v100h-300v200h200v-100h200v100h-100v100h200v-800h-800v800h200v-100h-100v-500h100v-100h400v100h100v200h-100z" />
    <glyph glyph-name="uniE2B7" unicode="&#xe2b7;" 
d="M0 -100v800h100v-200h200v100h200v-100h-100v-100h-100v-400h200v400h100v100h100v200h100v-800h-800z" />
    <glyph glyph-name="uniE2B8" unicode="&#xe2b8;" 
d="M500 100h-200v200h200v-200zM700 400v200h-100v100h200v-800h-800v800h200v-100h-100v-200h100v-100h-100v-200h100v-100h400v100h100v200h-100v100h100zM300 600h200v-200h-200v200z" />
    <glyph glyph-name="uniE2B9" unicode="&#xe2b9;" 
d="M500 100h-200v100h-200v-100h100v-100h400v100h100v500h-100v100h200v-800h-800v800h200v-100h-100v-200h100v-100h300v-200zM300 600h200v-200h-200v200z" />
    <glyph glyph-name="uniE2BA" unicode="&#xe2ba;" 
d="M0 -100v800h800v-800h-800zM500 100v100h-200v-100h200zM500 500h-200v-100h200v100z" />
    <glyph glyph-name="uniE2BB" unicode="&#xe2bb;" 
d="M0 -100v800h800v-800h-400v100h100v200h-200v-200h-100v-100h-200zM300 500v-100h200v100h-200z" />
    <glyph glyph-name="uniE2BC" unicode="&#xe2bc;" 
d="M500 100v100h-100v100h-100v100h100v100h100v100h200v100h100v-800h-800v800h400v-100h-100v-100h-100v-100h-100v-100h100v-100h100v-100h100v-100h300v100h-200z" />
    <glyph glyph-name="uniE2BD" unicode="&#xe2bd;" 
d="M0 -100v800h800v-800h-800zM700 400v100h-600v-100h600zM100 200h600v100h-600v-100z" />
    <glyph glyph-name="uniE2BE" unicode="&#xe2be;" 
d="M500 100v100h100v100h100v100h-100v100h-100v100h-100v100h400v-800h-800v800h100v-100h200v-100h100v-100h100v-100h-100v-100h-100v-100h-200v-100h300v100h100z" />
    <glyph glyph-name="uniE2BF" unicode="&#xe2bf;" 
d="M500 100h-200v-100h200v100zM700 400v200h-100v100h200v-800h-800v800h200v-100h-100v-100h200v100h200v-200h-100v-100h-100v-100h200v100h100v100h100z" />
    <glyph glyph-name="uniE2C0" unicode="&#xe2c0;" 
d="M0 -100v300h800v-300h-800zM0 400v300h800v-300h-800z" />
    <glyph glyph-name="uniE2C1" unicode="&#xe2c1;" 
d="M700 400v100h-100v100h-100v100h300v-300h-100zM400 700v-100h-100v-100h-100v-100h-100v-200h200v-100h-100v-100h500v100h-100v100h200v-300h-800v800h400z" />
    <glyph glyph-name="uniE2C2" unicode="&#xe2c2;" 
d="M0 -100v800h300v-800h-300zM500 700h300v-800h-300v800z" />
    <glyph glyph-name="uniE2C3" unicode="&#xe2c3;" 
d="M0 -100v300h800v-300h-800zM0 400v300h800v-300h-800z" />
    <glyph glyph-name="uniE2C4" unicode="&#xe2c4;" 
d="M0 -100v400h800v-400h-800zM0 700h800v-200h-800v200z" />
    <glyph glyph-name="uniE2C5" unicode="&#xe2c5;" 
d="M0 -100v500h800v-500h-800zM0 600v100h800v-100h-800z" />
    <glyph glyph-name="uniE2C6" unicode="&#xe2c6;" 
d="M0 -100v200h800v-200h-800zM0 300v400h800v-400h-800z" />
    <glyph glyph-name="uniE2C7" unicode="&#xe2c7;" 
d="M0 -100v800h200v-800h-200zM400 700h400v-800h-400v800z" />
    <glyph glyph-name="uniE2C8" unicode="&#xe2c8;" 
d="M0 -100v800h400v-800h-400zM600 700h200v-800h-200v800z" />
    <glyph glyph-name="uniE2C9" unicode="&#xe2c9;" 
d="M0 -100v300h200v-100h100v-200h-300zM300 300v100h-300v300h800v-800h-300v300h-100v100h-100z" />
    <glyph glyph-name="uniE2CA" unicode="&#xe2ca;" 
d="M0 -100v800h300v-300h100v-100h100v-100h300v-300h-800zM500 700h300v-300h-200v100h-100v200z" />
    <glyph glyph-name="uniE2CB" unicode="&#xe2cb;" 
d="M0 -100v300h300v100h100v100h100v300h300v-800h-800zM300 500h-100v-100h-200v300h300v-200z" />
    <glyph glyph-name="uniE2CC" unicode="&#xe2cc;" 
d="M200 700h600v-600h-600v600z" />
    <glyph glyph-name="uniE2CD" unicode="&#xe2cd;" 
d="M500 100v-100h100v-100h-600v600h100v-100h100v-100h100v-100h100v-100h100zM600 300h-100v100h-100v100h-100v100h-100v100h600v-600h-100v100h-100v100z" />
    <glyph glyph-name="uniE2CE" unicode="&#xe2ce;" 
d="M700 400v100h100v-600h-600v100h100v100h100v100h100v100h100v100h100zM300 300h-100v-100h-100v-100h-100v600h600v-100h-100v-100h-100v-100h-100v-100z" />
    <glyph glyph-name="uniE2CF" unicode="&#xe2cf;" 
d="M800 -100h-600v600h600v-600z" />
    <glyph glyph-name="uniE2D0" unicode="&#xe2d0;" 
d="M0 -100v600h600v-600h-600z" />
    <glyph glyph-name="uniE2D1" unicode="&#xe2d1;" 
d="M0 -100v800h800v-800h-800zM600 500v100h-400v-100h-100v-400h100v-100h400v100h100v400h-100z" />
    <glyph glyph-name="uniE2D2" unicode="&#xe2d2;" 
d="M0 0h800v-100h-800v100zM0 200v500h800v-500h-800z" />
    <glyph glyph-name="uniE2D3" unicode="&#xe2d3;" 
d="M500 100h100v100h100v100h100v-400h-800v800h200v-100h-100v-300h100v-100h100v-100h100v-100h100v100zM400 700h100v-100h-100v100zM700 700h100v-100h-100v100z" />
    <glyph glyph-name="uniE2D4" unicode="&#xe2d4;" 
d="M0 -100v800h100v-800h-100zM800 -100h-500v800h500v-800z" />
    <glyph glyph-name="uniE2D5" unicode="&#xe2d5;" 
d="M0 -100v800h800v-300h-300v-100h-100v-100h-100v-300h-300zM500 100h100v100h200v-300h-300v200z" />
    <glyph glyph-name="uniE2D6" unicode="&#xe2d6;" 
d="M500 100v-100h100v-100h-400v100h100v100h200zM700 400v100h100v-400h-100v100h-100v200h100zM300 500v100h-100v100h400v-100h-100v-100h-200zM100 100h-100v400h100v-100h100v-200h-100v-100z" />
    <glyph glyph-name="uniE2D7" unicode="&#xe2d7;" 
d="M0 -100v800h800v-800h-800zM600 500v100h-400v-100h-100v-400h100v-100h400v100h100v400h-100zM300 200v200h200v-200h-200z" />
    <glyph glyph-name="uniE2D8" unicode="&#xe2d8;" 
d="M0 -100v800h300v-200h-200v-200h200v-200h-100v-100h400v100h-100v200h200v200h-200v200h300v-800h-800zM300 300v200h200v-200h-200z" />
    <glyph glyph-name="uniE2D9" unicode="&#xe2d9;" 
d="M0 -100v800h500v-800h-500zM700 -100v800h100v-800h-100z" />
    <glyph glyph-name="uniE2DA" unicode="&#xe2da;" 
d="M500 100h100v100h100v100h100v-400h-800v800h400v-100h-100v-100h-100v-100h-100v-100h100v-100h100v-100h100v-100h100v100zM700 400v100h-100v100h-100v100h300v-300h-100z" />
    <glyph glyph-name="uniE2DB" unicode="&#xe2db;" 
d="M0 -100v300h300v-300h-300zM500 700h300v-300h-300v300zM800 200v-300h-300v300h300zM0 700h300v-300h-300v300z" />
    <glyph glyph-name="uniE2DC" unicode="&#xe2dc;" 
d="M0 -100v200h200v-200h-200zM400 100h-200v200h200v200h-200v200h600v-800h-400v200zM0 300v200h200v-200h-200z" />
    <glyph glyph-name="uniE2DD" unicode="&#xe2dd;" 
d="M0 -100v800h300v-800h-300zM500 700h300v-800h-300v800z" />
    <glyph glyph-name="uniE2DE" unicode="&#xe2de;" 
d="M0 -100v800h800v-200h-200v-100h-400v-100h-100v-100h100v-200h200v300h100v-300h200v400h100v-500h-800z" />
    <glyph glyph-name="uniE2DF" unicode="&#xe2df;" 
d="M500 100h100v-100h100v-100h-700v700h100v-100h100v-100h100v-100h100v-100h100v-100z" />
    <glyph glyph-name="uniE2E0" unicode="&#xe2e0;" 
d="M0 -100v800h800v-800h-800z" />
    <glyph glyph-name="uniE2E1" unicode="&#xe2e1;" 
d="M400 700h400v-800h-400v800z" />
    <glyph glyph-name="uniE2E2" unicode="&#xe2e2;" 
d="M0 300v400h800v-400h-800z" />
    <glyph glyph-name="uniE2E3" unicode="&#xe2e3;" 
d="M0 -100v700h800v-700h-800z" />
    <glyph glyph-name="uniE2E4" unicode="&#xe2e4;" 
d="M0 0v700h800v-700h-800z" />
    <glyph glyph-name="uniE2E5" unicode="&#xe2e5;" 
d="M800 -100h-600v800h600v-800z" />
    <glyph glyph-name="uniE2E6" unicode="&#xe2e6;" 
d="M0 -100v200h200v-200h-200zM600 300h-200v200h200v-200zM400 100h200v-200h-200v200zM600 500v200h200v-200h-200zM400 700v-200h-200v200h200zM800 300v-200h-200v200h200zM200 100v200h200v-200h-200zM0 300v200h200v-200h-200z" />
    <glyph glyph-name="uniE2E7" unicode="&#xe2e7;" 
d="M0 -100v800h600v-800h-600z" />
    <glyph glyph-name="uniE2E8" unicode="&#xe2e8;" 
d="M0 -100v200h200v-200h-200zM600 300h-200v-200h-200v200h-200v400h800v-600h-200v200zM400 100h200v-200h-200v200z" />
    <glyph glyph-name="uniE2E9" unicode="&#xe2e9;" 
d="M100 -100v100h100v100h100v100h100v100h100v100h100v100h100v100h100v-700h-700z" />
    <glyph glyph-name="uniE2EA" unicode="&#xe2ea;" 
d="M0 -100v800h600v-800h-600z" />
    <glyph glyph-name="uniE2EB" unicode="&#xe2eb;" 
d="M0 -100v800h300v-800h-300zM500 700h300v-300h-300v300zM800 -100h-300v300h300v-300z" />
    <glyph glyph-name="uniE2EC" unicode="&#xe2ec;" 
d="M0 -100v800h800v-400h-400v-400h-400z" />
    <glyph glyph-name="uniE2ED" unicode="&#xe2ed;" 
d="M0 -100v800h300v-500h500v-300h-800zM500 700h300v-300h-300v300z" />
    <glyph glyph-name="uniE2EE" unicode="&#xe2ee;" 
d="M0 -100v300h300v-300h-300zM0 400v300h800v-800h-300v500h-500z" />
    <glyph glyph-name="uniE2EF" unicode="&#xe2ef;" 
d="M0 100v600h800v-600h-800z" />
    <glyph glyph-name="uniE2F0" unicode="&#xe2f0;" 
d="M0 -100v800h800v-300h-500v-500h-300zM800 -100h-300v300h300v-300z" />
    <glyph glyph-name="uniE2F1" unicode="&#xe2f1;" 
d="M0 -100v300h800v-300h-800zM500 700h300v-300h-300v300zM0 400v300h300v-300h-300z" />
    <glyph glyph-name="uniE2F2" unicode="&#xe2f2;" 
d="M0 -100v300h300v-300h-300zM0 400v300h800v-300h-800zM800 -100h-300v300h300v-300z" />
    <glyph glyph-name="uniE2F3" unicode="&#xe2f3;" 
d="M0 -100v300h300v-300h-300zM500 700h300v-800h-300v800zM0 400v300h300v-300h-300z" />
    <glyph glyph-name="uniE2F4" unicode="&#xe2f4;" 
d="M800 -100h-600v800h600v-800z" />
    <glyph glyph-name="uniE2F5" unicode="&#xe2f5;" 
d="M800 -100h-500v800h500v-800z" />
    <glyph glyph-name="uniE2F6" unicode="&#xe2f6;" 
d="M0 -100v800h500v-800h-500z" />
    <glyph glyph-name="uniE2F7" unicode="&#xe2f7;" 
d="M0 -100v600h800v-600h-800z" />
    <glyph glyph-name="uniE2F8" unicode="&#xe2f8;" 
d="M0 -100v500h800v-500h-800z" />
    <glyph glyph-name="uniE2F9" unicode="&#xe2f9;" 
d="M0 200v500h800v-500h-800z" />
    <glyph glyph-name="uniE2FA" unicode="&#xe2fa;" 
d="M600 700v-600h-600v600h600z" />
    <glyph glyph-name="uniE2FB" unicode="&#xe2fb;" 
d="M400 300h-400v400h800v-800h-400v400z" />
    <glyph glyph-name="uniE2FC" unicode="&#xe2fc;" 
d="M0 -100v800h400v-400h400v-400h-800z" />
    <glyph glyph-name="uniE2FD" unicode="&#xe2fd;" 
d="M0 -100v300h500v500h300v-800h-800zM0 400v300h300v-300h-300z" />
    <glyph glyph-name="uniE2FE" unicode="&#xe2fe;" 
d="M0 -100v400h400v400h400v-800h-800z" />
    <glyph glyph-name="uniE2FF" unicode="&#xe2ff;" 
d="M0 -100v400h400v-400h-400zM400 300v400h400v-400h-400z" />
    <glyph glyph-name="uniE300" unicode="&#xe300;" 
d="M700 600v-300h-300v200h100v100h-200v-500h300v-100h-400v100h-100v500h100v100h400v-100h100zM700 200v-100h-100v100h100z" />
    <glyph glyph-name="uniE301" unicode="&#xe301;" 
d="M500 100v100h-200v-100h200zM700 400v-400h-500v100h-100v100h100v100h300v100h-300v100h400v-100h100z" />
    <glyph glyph-name="uniE302" unicode="&#xe302;" 
d="M500 100v300h-200v-300h200zM700 400v-300h-100v-100h-500v700h200v-200h300v-100h100z" />
    <glyph glyph-name="uniE303" unicode="&#xe303;" 
d="M500 100v100h200v-100h-100v-100h-400v100h-100v300h100v100h400v-100h100v-100h-200v100h-200v-300h200z" />
    <glyph glyph-name="uniE304" unicode="&#xe304;" 
d="M500 100v300h-200v-300h200zM500 700h200v-700h-500v100h-100v300h100v100h300v200z" />
    <glyph glyph-name="uniE305" unicode="&#xe305;" 
d="M700 400v-200h-400v-100h400v-100h-500v100h-100v300h100v100h400v-100h100zM300 300h200v100h-200v-100z" />
    <glyph glyph-name="uniE306" unicode="&#xe306;" 
d="M700 600v-100h-200v100h-100v-200h100v-100h-100v-300h-200v300h-100v100h100v200h100v100h300v-100h100z" />
    <glyph glyph-name="uniE307" unicode="&#xe307;" 
d="M500 100h-300v100h-100v200h100v100h500v-500h-100v-100h-500v100h400v100zM300 200h200v200h-200v-200z" />
    <glyph glyph-name="uniE308" unicode="&#xe308;" 
d="M700 400v-400h-200v400h-200v-400h-200v700h200v-200h300v-100h100z" />
    <glyph glyph-name="uniE309" unicode="&#xe309;" 
d="M500 700v-100h-200v100h200zM500 500v-500h-200v500h200z" />
    <glyph glyph-name="uniE30A" unicode="&#xe30a;" 
d="M500 700h200v-100h-200v100zM100 0v100h200v-100h200v500h200v-500h-100v-100h-400v100h-100z" />
    <glyph glyph-name="uniE30B" unicode="&#xe30b;" 
d="M500 100h-200v-100h-200v700h200v-400h100v100h100v100h200v-100h-100v-100h-100v-100h100v-100h100v-100h-200v100z" />
    <glyph glyph-name="uniE30C" unicode="&#xe30c;" 
d="M500 100h100v-100h-400v100h100v500h-100v100h300v-600z" />
    <glyph glyph-name="uniE30D" unicode="&#xe30d;" 
d="M500 100h-100v100h-100v-200h-200v500h200v-100h100v-100h100v100h100v100h200v-500h-200v200h-100v-100z" />
    <glyph glyph-name="uniE30E" unicode="&#xe30e;" 
d="M700 400v-400h-200v400h-200v-400h-200v500h500v-100h100z" />
    <glyph glyph-name="uniE30F" unicode="&#xe30f;" 
d="M500 100v300h-200v-300h200zM700 400v-300h-100v-100h-400v100h-100v300h100v100h400v-100h100z" />
    <glyph glyph-name="uniE310" unicode="&#xe310;" 
d="M700 400v-200h-100v-100h-300v-200h-200v600h500v-100h100zM300 200h200v200h-200v-200z" />
    <glyph glyph-name="uniE311" unicode="&#xe311;" 
d="M500 100h-300v100h-100v200h100v100h500v-600h-200v200zM300 200h200v200h-200v-200z" />
    </font>
</defs>
</svg>
